{"glyphs":{"0":{"ha":899,"x_min":42,"x_max":857,"o":"m 451 989 q 676 921 585 989 q 812 739 767 853 q 857 486 857 625 q 812 233 857 347 q 676 51 767 119 q 451 -17 585 -17 q 224 51 317 -17 q 87 233 132 118 q 42 486 42 347 q 87 740 42 625 q 224 922 132 854 q 451 989 317 989 m 428 942 q 353 895 385 942 q 303 763 321 849 q 285 567 285 678 q 308 290 285 413 q 373 99 331 168 q 471 31 415 31 q 547 77 514 31 q 597 209 579 124 q 615 406 615 294 q 592 682 615 560 q 526 873 568 804 q 428 942 483 942 z "},"1":{"ha":581,"x_min":35,"x_max":546,"o":"m 546 21 l 546 0 l 35 0 l 35 21 l 139 47 q 169 67 158 53 q 179 103 179 82 l 179 804 q 35 740 131 754 l 35 794 q 172 849 110 804 q 307 963 235 894 q 335 989 326 982 l 413 989 l 413 103 q 423 67 413 82 q 453 47 433 53 l 546 21 z "},"2":{"ha":826,"x_min":28,"x_max":799,"o":"m 747 0 l 28 0 l 28 21 l 289 290 q 463 500 411 417 q 515 669 515 583 q 471 806 515 753 q 346 860 426 860 q 215 821 272 860 q 115 718 157 782 l 88 726 q 143 843 99 782 q 264 947 188 904 q 442 989 340 989 q 602 952 529 989 q 717 849 675 915 q 760 699 760 783 q 719 563 760 625 q 616 451 678 501 q 451 332 554 401 q 289 215 340 257 l 629 215 q 689 240 665 215 l 778 339 l 799 339 l 747 0 z "},"3":{"ha":783,"x_min":28,"x_max":742,"o":"m 742 951 l 374 554 q 465 569 422 569 q 603 533 540 569 q 703 428 667 496 q 740 275 740 361 q 694 125 740 192 q 563 21 649 58 q 360 -17 476 -17 q 150 44 247 -17 q 28 249 53 106 l 221 249 q 267 90 226 147 q 369 32 308 32 q 474 88 438 32 q 510 253 510 144 q 465 414 510 358 q 353 469 421 469 q 275 451 313 469 l 251 485 l 483 757 l 208 757 q 150 724 169 757 l 107 649 l 86 649 l 131 972 l 742 972 l 742 951 z "},"4":{"ha":843,"x_min":14,"x_max":808,"o":"m 668 103 q 708 47 668 60 l 788 21 l 788 0 l 288 0 l 288 21 l 394 47 q 424 67 414 53 q 435 103 435 82 l 435 288 l 14 288 l 14 333 l 460 989 l 668 989 l 668 335 l 808 335 l 808 288 l 668 288 l 668 103 m 435 335 l 435 842 l 90 335 l 435 335 z "},"5":{"ha":775,"x_min":7,"x_max":726,"o":"m 408 625 q 575 588 503 625 q 687 484 647 551 q 726 328 726 417 q 628 72 726 160 q 344 -17 529 -17 q 202 8 274 -17 q 75 93 131 32 q 7 257 19 154 l 199 257 q 224 142 201 193 q 283 63 246 92 q 363 33 319 33 q 466 95 429 33 q 503 275 503 157 q 454 442 503 379 q 326 504 406 504 q 231 478 282 504 q 146 421 181 453 l 86 453 l 153 972 l 597 972 q 656 1006 636 972 l 699 1081 l 719 1081 l 675 757 l 175 757 l 140 497 q 263 589 185 553 q 408 625 340 625 z "},"6":{"ha":853,"x_min":35,"x_max":818,"o":"m 499 638 q 656 597 588 638 q 763 485 725 557 q 801 319 801 413 q 759 147 801 224 q 636 27 717 71 q 446 -17 556 -17 q 199 61 290 -17 q 71 247 107 139 q 35 458 35 354 q 87 717 35 596 q 240 914 139 839 q 485 989 342 989 q 818 763 743 989 l 610 763 q 551 890 597 839 q 440 940 504 940 q 306 832 344 940 q 264 528 268 724 q 369 610 313 582 q 499 638 426 638 m 458 32 q 585 240 585 32 q 563 376 585 314 q 497 477 540 439 q 396 515 454 515 q 325 506 361 515 q 264 479 289 497 q 287 288 265 393 q 352 107 308 182 q 458 32 396 32 z "},"7":{"ha":754,"x_min":28,"x_max":726,"o":"m 726 951 q 529 601 599 758 q 434 305 460 444 q 408 0 408 165 l 175 0 q 219 294 175 167 q 340 524 264 422 q 546 757 417 625 l 150 757 q 92 724 111 757 l 49 649 l 28 649 l 72 972 l 726 972 l 726 951 z "},"8":{"ha":818,"x_min":49,"x_max":769,"o":"m 408 988 q 582 956 508 988 q 695 871 656 925 q 735 749 735 817 q 674 623 735 679 q 514 536 614 567 q 702 411 635 482 q 769 261 769 340 q 731 124 769 188 q 612 22 693 61 q 408 -17 531 -17 q 221 19 303 -17 q 94 115 139 54 q 49 251 49 176 q 105 390 49 333 q 275 485 161 447 q 133 592 181 535 q 85 729 85 650 q 121 858 85 799 q 230 952 157 917 q 408 988 303 988 m 415 946 q 327 896 358 946 q 296 783 296 846 q 310 692 296 726 q 360 630 324 658 q 471 561 396 601 q 512 651 496 594 q 528 772 528 707 q 501 898 528 850 q 415 946 475 946 m 322 461 q 278 363 294 426 q 263 231 263 299 q 301 80 263 135 q 413 25 340 25 q 524 74 488 25 q 561 211 561 122 q 541 303 561 268 q 474 372 521 339 q 322 461 428 404 z "},"9":{"ha":844,"x_min":26,"x_max":810,"o":"m 399 985 q 646 907 554 985 q 774 722 738 829 q 810 510 810 614 q 758 251 810 372 q 604 54 706 129 q 360 -21 503 -21 q 26 206 101 -21 l 235 206 q 294 78 247 129 q 404 28 340 28 q 538 136 500 28 q 581 440 576 244 q 475 358 532 386 q 346 331 418 331 q 188 371 257 331 q 81 483 119 411 q 43 649 43 556 q 85 821 43 744 q 208 941 128 897 q 399 985 289 985 m 449 453 q 519 462 483 453 q 581 489 556 471 q 558 681 579 575 q 492 861 536 786 q 386 936 449 936 q 260 728 260 936 q 282 592 260 654 q 347 491 304 529 q 449 453 390 453 z "},"\r":{"ha":833,"x_min":0,"x_max":0,"o":""}," ":{"ha":278,"x_min":0,"x_max":0,"o":""},"!":{"ha":444,"x_min":90,"x_max":354,"o":"m 239 296 l 206 296 l 90 972 l 354 972 l 239 296 m 222 -19 q 140 14 174 -19 q 106 97 106 47 q 140 179 106 146 q 222 213 174 213 q 306 179 274 213 q 339 97 339 146 q 305 14 339 47 q 222 -19 271 -19 z "},"\"":{"ha":594,"x_min":72,"x_max":519,"o":"m 72 928 l 261 928 l 213 567 l 117 567 l 72 928 m 331 928 l 519 928 l 471 567 l 375 567 l 331 928 z "},"#":{"ha":838,"x_min":33,"x_max":804,"o":"m 642 638 l 565 364 l 749 364 l 749 310 l 550 310 l 449 -51 l 390 -51 l 492 310 l 235 310 l 133 -51 l 75 -51 l 176 310 l 33 310 l 33 364 l 192 364 l 268 638 l 89 638 l 89 692 l 283 692 l 374 1011 l 432 1011 l 342 692 l 599 692 l 689 1011 l 747 1011 l 657 692 l 804 692 l 804 638 l 642 638 m 583 638 l 326 638 l 250 364 l 507 364 l 583 638 z "},"$":{"ha":793,"x_min":49,"x_max":758,"o":"m 758 278 q 672 78 758 156 q 439 -14 586 1 l 439 -178 l 389 -178 l 389 -17 l 372 -17 q 201 -1 279 -17 q 49 51 124 15 l 49 300 l 69 300 q 133 158 85 219 q 248 62 182 96 q 378 28 314 28 l 389 28 l 389 385 l 324 414 q 187 482 242 450 q 90 572 132 514 q 49 714 49 629 q 90 855 49 793 q 208 952 131 917 q 389 989 285 988 l 389 1129 l 439 1129 l 439 988 q 688 917 579 979 l 688 708 l 667 708 q 585 873 649 807 q 439 947 521 939 l 439 610 q 461 600 443 607 q 685 464 611 539 q 758 278 758 389 m 250 807 q 286 706 250 746 q 389 632 322 665 l 389 947 q 287 899 324 939 q 250 807 250 860 m 439 36 q 515 92 489 51 q 542 189 542 132 q 515 285 542 244 q 439 357 488 325 l 439 36 z "},"%":{"ha":989,"x_min":33,"x_max":956,"o":"m 211 0 l 747 972 l 801 972 l 265 0 l 211 0 m 240 497 q 135 526 182 497 q 60 607 88 556 q 33 722 33 658 q 60 836 33 785 q 135 917 88 888 q 240 947 182 947 q 345 918 299 947 q 419 837 392 889 q 446 722 446 785 q 419 607 446 658 q 346 526 393 556 q 240 497 299 497 m 247 542 q 301 586 282 542 q 321 707 321 631 q 297 849 321 796 q 233 903 274 903 q 178 859 199 903 q 158 742 158 815 q 183 597 158 651 q 247 542 207 542 m 750 -18 q 644 11 692 -18 q 570 92 597 40 q 543 207 543 143 q 570 321 543 269 q 644 402 597 372 q 750 432 692 432 q 855 403 808 432 q 928 322 901 374 q 956 207 956 269 q 929 92 956 143 q 856 11 903 40 q 750 -18 808 -18 m 757 26 q 811 71 792 26 q 831 192 831 115 q 807 334 831 281 q 743 388 783 388 q 688 344 708 388 q 668 226 668 300 q 692 81 668 136 q 757 26 717 26 z "},"&":{"ha":1093,"x_min":35,"x_max":1065,"o":"m 1065 21 l 1065 0 l 736 0 l 686 54 q 438 -17 572 -17 q 149 53 263 -17 q 35 254 35 122 q 97 408 35 344 q 274 504 160 472 q 195 619 225 561 q 165 742 165 676 q 203 863 165 807 q 312 953 242 919 q 476 986 382 986 q 683 932 614 986 q 751 786 751 878 q 717 658 751 728 l 515 658 q 546 735 535 694 q 557 811 557 775 q 535 908 557 871 q 468 944 513 944 q 403 913 429 944 q 376 825 376 881 q 501 564 376 697 l 726 325 q 731 411 731 367 q 725 531 731 447 l 947 531 q 843 201 946 349 l 981 56 q 1028 28 1001 32 l 1065 21 m 468 32 q 644 100 581 32 l 310 464 q 281 374 292 429 q 269 265 269 319 q 292 152 269 206 q 360 65 315 99 q 468 32 404 32 z "},"'":{"ha":336,"x_min":72,"x_max":261,"o":"m 72 928 l 261 928 l 213 567 l 117 567 l 72 928 z "},"(":{"ha":519,"x_min":44,"x_max":499,"o":"m 499 1029 q 326 775 388 953 q 264 382 264 597 q 326 -12 264 165 q 499 -267 388 -190 l 479 -294 q 251 -140 349 -242 q 99 97 153 -39 q 44 382 44 232 q 99 667 44 532 q 251 903 153 801 q 479 1057 349 1004 l 499 1029 z "},")":{"ha":519,"x_min":21,"x_max":475,"o":"m 40 1057 q 269 903 171 1004 q 421 667 367 801 q 475 382 475 532 q 421 97 475 232 q 269 -140 367 -39 q 40 -294 171 -242 l 21 -267 q 194 -12 132 -190 q 256 382 256 165 q 194 775 256 597 q 21 1029 132 953 l 40 1057 z "},"*":{"ha":664,"x_min":76,"x_max":588,"o":"m 118 893 l 308 786 l 265 999 l 399 999 l 356 786 l 546 893 l 588 774 l 372 744 l 535 593 l 438 518 l 333 717 l 226 518 l 129 593 l 293 744 l 76 774 l 118 893 z "},"+":{"ha":753,"x_min":69,"x_max":683,"o":"m 683 447 l 400 447 l 400 164 l 353 164 l 353 447 l 69 447 l 69 494 l 353 494 l 353 778 l 400 778 l 400 494 l 683 494 l 683 447 z "},",":{"ha":394,"x_min":76,"x_max":318,"o":"m 193 213 q 283 173 249 213 q 318 68 318 133 q 285 -69 318 -8 q 196 -167 251 -131 q 76 -208 140 -203 l 76 -174 q 176 -120 135 -164 q 217 -17 217 -76 q 118 11 160 -22 q 76 97 76 44 q 110 179 76 146 q 193 213 144 213 z "},"-":{"ha":414,"x_min":33,"x_max":381,"o":"m 381 372 l 33 372 l 33 435 l 381 435 l 381 372 z "},".":{"ha":386,"x_min":76,"x_max":310,"o":"m 193 -19 q 110 14 144 -19 q 76 97 76 47 q 110 179 76 146 q 193 213 144 213 q 277 179 244 213 q 310 97 310 146 q 276 14 310 47 q 193 -19 242 -19 z "},"/":{"ha":472,"x_min":28,"x_max":444,"o":"m 394 972 l 444 972 l 78 0 l 28 0 l 394 972 z "},":":{"ha":386,"x_min":76,"x_max":310,"o":"m 193 496 q 110 529 144 496 q 76 613 76 563 q 110 694 76 661 q 193 728 144 728 q 277 694 244 728 q 310 613 310 661 q 276 529 310 563 q 193 496 242 496 m 193 -19 q 110 14 144 -19 q 76 97 76 47 q 110 179 76 146 q 193 213 144 213 q 277 179 244 213 q 310 97 310 146 q 276 14 310 47 q 193 -19 242 -19 z "},";":{"ha":394,"x_min":76,"x_max":318,"o":"m 193 213 q 283 173 249 213 q 318 68 318 133 q 285 -69 318 -8 q 196 -167 251 -131 q 76 -208 140 -203 l 76 -174 q 176 -120 135 -164 q 217 -17 217 -76 q 118 11 160 -22 q 76 97 76 44 q 110 179 76 146 q 193 213 144 213 m 193 390 q 110 424 144 390 q 76 507 76 457 q 110 589 76 556 q 193 622 144 622 q 277 589 244 622 q 310 507 310 556 q 276 424 310 457 q 193 390 242 390 z "},"<":{"ha":693,"x_min":69,"x_max":624,"o":"m 624 199 l 601 149 l 69 421 l 69 472 l 601 744 l 624 696 l 119 447 l 624 199 z "},"=":{"ha":753,"x_min":69,"x_max":683,"o":"m 69 613 l 683 613 l 683 565 l 69 565 l 69 613 m 69 386 l 683 386 l 683 339 l 69 339 l 69 386 z "},">":{"ha":693,"x_min":69,"x_max":624,"o":"m 69 696 l 92 744 l 624 472 l 624 421 l 92 149 l 69 199 l 574 447 l 69 696 z "},"?":{"ha":799,"x_min":69,"x_max":722,"o":"m 367 296 q 328 451 328 388 q 353 545 328 508 q 431 625 379 582 q 500 692 474 661 q 538 767 526 722 q 544 821 544 793 q 510 910 544 879 q 425 940 475 940 q 272 719 294 940 l 69 719 q 178 923 86 857 q 417 989 271 989 q 576 958 507 989 q 684 872 646 928 q 722 746 722 817 q 698 637 722 682 q 638 563 674 592 q 546 499 603 535 q 470 447 497 468 q 424 395 443 425 q 406 325 406 365 q 408 296 406 315 l 367 296 m 407 -19 q 324 14 358 -19 q 290 97 290 47 q 324 179 290 146 q 407 213 358 213 q 491 179 458 213 q 524 97 524 146 q 490 14 524 47 q 407 -19 456 -19 z "},"@":{"ha":1299,"x_min":42,"x_max":1257,"o":"m 894 90 q 757 124 808 90 q 706 222 706 158 q 713 268 706 240 q 619 128 668 165 q 506 92 569 92 q 376 149 428 92 q 325 294 325 207 q 383 508 325 411 q 530 659 440 604 q 708 714 619 714 q 792 694 761 714 q 842 638 824 675 l 899 694 l 979 694 l 868 306 q 851 215 851 254 q 867 160 851 179 q 913 142 882 142 q 1014 185 968 142 q 1086 306 1060 228 q 1113 483 1113 383 q 1060 701 1113 606 q 911 851 1008 797 q 686 906 814 906 q 426 831 540 906 q 249 626 313 757 q 186 329 186 494 q 247 81 186 190 q 418 -92 308 -29 q 668 -154 528 -154 q 868 -131 783 -154 q 1042 -51 953 -108 l 1061 -79 q 884 -170 993 -136 q 654 -204 775 -204 q 340 -135 479 -204 q 121 56 200 -67 q 42 331 42 178 q 125 648 42 507 q 355 868 208 789 q 686 947 501 947 q 980 888 850 947 q 1183 722 1110 828 q 1257 483 1257 617 q 1203 278 1257 368 q 1065 139 1149 188 q 894 90 981 90 m 761 489 q 779 582 779 542 q 714 654 779 654 q 622 611 669 654 q 540 492 574 568 q 497 322 506 417 q 496 297 496 314 q 514 222 496 247 q 563 196 532 196 q 629 222 593 196 q 697 300 665 249 l 761 489 z "},"A":{"ha":1093,"x_min":28,"x_max":1065,"o":"m 1065 21 l 1065 0 l 604 0 l 604 21 l 690 57 q 719 99 719 69 q 715 121 719 108 l 642 306 l 289 306 l 217 122 q 211 99 211 106 q 244 58 211 72 l 347 21 l 347 0 l 28 0 l 28 21 l 101 56 q 143 108 128 69 l 488 972 l 619 972 l 964 108 q 981 74 972 88 q 1001 54 989 61 l 1065 21 m 624 353 l 464 756 l 307 353 l 624 353 z "},"B":{"ha":928,"x_min":35,"x_max":894,"o":"m 472 972 q 742 918 650 972 q 833 749 833 864 q 772 610 833 664 q 622 547 710 556 q 820 463 746 536 q 894 271 894 389 q 852 132 894 193 q 726 35 810 71 q 521 0 642 0 l 35 0 l 35 21 l 118 57 q 154 114 154 74 l 154 861 q 117 917 154 900 l 35 951 l 35 972 l 472 972 m 388 925 l 388 556 l 456 556 q 567 606 529 556 q 604 749 604 656 q 561 873 604 821 q 435 925 518 925 l 388 925 m 388 508 l 388 117 q 465 47 388 47 l 499 47 q 619 110 575 47 q 663 271 663 172 q 642 383 663 329 q 579 473 621 438 q 478 508 538 508 l 388 508 z "},"C":{"ha":918,"x_min":42,"x_max":888,"o":"m 42 472 q 108 735 42 617 q 290 921 174 853 q 554 989 407 989 q 719 975 632 989 q 850 939 806 961 l 851 731 l 831 731 q 726 889 797 831 q 556 947 654 947 q 344 842 411 947 q 278 554 278 738 q 313 313 278 418 q 418 150 349 208 q 583 92 488 92 q 758 143 688 92 q 867 274 829 194 l 888 264 q 824 138 868 201 q 701 28 779 74 q 515 -17 624 -17 q 263 48 369 -17 q 99 224 156 113 q 42 472 42 335 z "},"D":{"ha":1044,"x_min":35,"x_max":1011,"o":"m 474 972 q 777 909 657 972 q 954 743 897 846 q 1011 518 1011 640 q 941 243 1011 361 q 753 63 871 125 q 493 0 635 0 l 35 0 l 35 21 l 118 51 q 154 108 154 65 l 154 863 q 118 919 154 906 l 35 951 l 35 972 l 474 972 m 493 47 q 695 163 624 47 q 767 486 767 279 q 730 699 767 599 q 622 863 693 800 q 450 925 550 925 l 386 925 l 386 139 q 410 73 386 99 q 493 47 435 47 z "},"E":{"ha":872,"x_min":35,"x_max":844,"o":"m 844 244 l 800 0 l 35 0 l 35 21 l 114 47 q 154 103 154 60 l 154 869 q 114 925 154 913 l 35 951 l 35 972 l 786 972 l 831 728 l 810 728 l 696 889 q 670 916 683 907 q 639 925 657 925 l 388 925 l 388 556 l 532 556 q 588 594 571 556 l 636 699 l 657 699 l 657 365 l 636 365 l 588 469 q 532 508 571 508 l 388 508 l 388 103 q 403 63 388 78 q 442 47 418 47 l 653 47 q 684 56 671 47 q 710 83 697 65 l 824 244 l 844 244 z "},"F":{"ha":826,"x_min":35,"x_max":817,"o":"m 817 728 l 796 728 l 682 889 q 656 916 669 907 q 625 925 643 925 l 388 925 l 388 556 l 518 556 q 574 594 557 556 l 622 699 l 643 699 l 643 365 l 622 365 l 574 469 q 518 508 557 508 l 388 508 l 388 103 q 398 67 388 82 q 428 47 408 53 l 535 21 l 535 0 l 35 0 l 35 21 l 114 47 q 154 103 154 60 l 154 869 q 114 925 154 913 l 35 951 l 35 972 l 772 972 l 817 728 z "},"G":{"ha":1040,"x_min":42,"x_max":1026,"o":"m 831 731 q 721 885 794 825 q 549 944 647 944 q 356 860 432 944 q 281 583 281 775 q 322 315 281 442 q 435 111 364 188 q 590 35 507 35 q 689 70 661 35 q 717 147 717 106 l 717 411 q 685 469 717 461 l 594 496 l 594 517 l 1026 517 l 1026 496 l 958 469 q 925 411 925 456 l 925 243 q 938 208 925 221 q 974 194 951 194 l 1026 194 l 1026 174 q 772 28 889 67 q 531 -10 654 -10 q 274 53 385 -10 q 102 224 163 115 q 42 469 42 333 q 108 740 42 622 q 292 923 174 858 q 561 988 410 988 q 711 974 632 988 q 850 939 790 961 l 851 731 l 831 731 z "},"H":{"ha":1156,"x_min":35,"x_max":1121,"o":"m 1042 925 q 1001 869 1001 913 l 1001 103 q 1042 47 1001 60 l 1121 21 l 1121 0 l 649 0 l 649 21 l 728 47 q 768 103 768 60 l 768 461 l 388 461 l 388 103 q 428 47 388 60 l 507 21 l 507 0 l 35 0 l 35 21 l 114 47 q 154 103 154 60 l 154 869 q 114 925 154 913 l 35 951 l 35 972 l 507 972 l 507 951 l 428 925 q 388 869 388 913 l 388 508 l 768 508 l 768 869 q 728 925 768 913 l 649 951 l 649 972 l 1121 972 l 1121 951 l 1042 925 z "},"I":{"ha":542,"x_min":35,"x_max":507,"o":"m 35 21 l 114 47 q 154 103 154 60 l 154 869 q 114 925 154 913 l 35 951 l 35 972 l 507 972 l 507 951 l 428 925 q 388 869 388 913 l 388 103 q 428 47 388 60 l 507 21 l 507 0 l 35 0 l 35 21 z "},"J":{"ha":864,"x_min":28,"x_max":829,"o":"m 829 972 l 829 951 l 750 925 q 710 869 710 913 l 710 276 q 619 59 710 135 q 363 -17 528 -17 q 128 47 222 -17 q 28 242 35 111 l 257 242 q 276 131 258 179 q 320 57 293 83 q 376 31 347 31 q 449 66 422 31 q 476 206 476 101 l 476 869 q 436 925 476 913 l 357 951 l 357 972 l 829 972 z "},"K":{"ha":1133,"x_min":35,"x_max":1113,"o":"m 1113 21 l 1113 0 l 635 0 l 635 21 l 675 32 q 710 67 710 42 q 701 94 710 81 l 494 429 q 472 454 485 447 q 438 461 458 461 l 388 461 l 388 103 q 428 47 388 60 l 507 21 l 507 0 l 35 0 l 35 21 l 114 47 q 154 103 154 60 l 154 869 q 114 925 154 913 l 35 951 l 35 972 l 507 972 l 507 951 l 428 925 q 388 869 388 913 l 388 508 l 424 508 q 483 535 458 508 l 790 886 q 800 906 800 896 q 754 933 800 924 l 679 951 l 679 972 l 1038 972 l 1038 951 l 911 918 q 881 907 893 914 q 858 888 869 900 l 632 635 l 972 88 q 1022 47 992 57 l 1113 21 z "},"L":{"ha":872,"x_min":35,"x_max":844,"o":"m 844 244 l 800 0 l 35 0 l 35 21 l 114 47 q 154 103 154 60 l 154 869 q 114 925 154 913 l 35 951 l 35 972 l 507 972 l 507 951 l 428 925 q 388 869 388 913 l 388 103 q 403 63 388 78 q 442 47 418 47 l 653 47 q 684 56 671 47 q 710 83 697 65 l 824 244 l 844 244 z "},"M":{"ha":1457,"x_min":14,"x_max":1429,"o":"m 14 21 l 111 49 q 141 66 131 54 q 154 100 151 78 l 263 850 q 228 908 268 892 l 128 951 l 128 972 l 472 972 l 728 363 l 996 972 l 1329 972 l 1329 951 l 1246 911 q 1213 853 1207 892 l 1307 100 q 1319 66 1310 79 q 1349 47 1329 53 l 1429 21 l 1429 0 l 957 0 l 957 21 l 1035 46 q 1074 103 1079 60 l 981 779 l 690 113 l 600 113 l 317 779 l 218 104 q 226 67 215 82 q 257 46 236 51 l 363 21 l 363 0 l 14 0 l 14 21 z "},"N":{"ha":1039,"x_min":35,"x_max":1004,"o":"m 1004 972 l 1004 951 l 917 926 q 875 872 875 914 l 875 0 l 825 0 l 229 753 l 229 113 q 269 57 229 71 l 374 21 l 374 0 l 38 0 l 38 21 l 128 56 q 167 113 167 71 l 167 832 q 107 906 129 883 q 57 942 85 929 l 35 951 l 35 972 l 356 972 l 815 388 l 815 872 q 774 925 815 915 l 667 951 l 667 972 l 1004 972 z "},"O":{"ha":1043,"x_min":42,"x_max":1001,"o":"m 526 989 q 784 923 676 989 q 947 747 892 857 q 1001 508 1001 636 q 939 235 1001 356 q 766 49 876 115 q 519 -17 656 -17 q 260 50 368 -17 q 97 226 151 117 q 42 465 42 336 q 105 738 42 619 q 278 923 168 857 q 526 989 389 989 m 507 940 q 387 885 439 940 q 306 730 335 829 q 278 503 278 631 q 308 272 278 379 q 398 98 339 164 q 539 32 457 32 q 657 86 606 32 q 737 238 708 140 q 765 461 765 336 q 736 698 765 589 q 649 874 707 807 q 507 940 590 940 z "},"P":{"ha":869,"x_min":35,"x_max":849,"o":"m 388 444 l 388 103 q 398 67 388 82 q 428 47 408 51 l 558 21 l 558 0 l 35 0 l 35 21 l 114 47 q 154 103 154 60 l 154 869 q 114 925 154 913 l 35 951 l 35 972 l 471 972 q 754 911 660 972 q 849 714 849 850 q 752 511 849 578 q 471 444 656 444 l 388 444 m 388 925 l 388 492 l 433 492 q 564 553 518 492 q 610 714 610 615 q 566 871 610 817 q 433 925 522 925 l 388 925 z "},"Q":{"ha":1043,"x_min":42,"x_max":1100,"o":"m 1100 -17 q 857 -158 968 -158 q 738 -118 793 -158 q 625 -6 683 -78 q 519 -17 572 -17 q 260 50 368 -17 q 97 226 151 117 q 42 465 42 336 q 105 738 42 619 q 278 923 168 857 q 526 989 389 989 q 784 923 676 989 q 947 747 892 857 q 1001 508 1001 636 q 942 243 1001 360 q 781 58 883 126 q 872 -19 828 8 q 961 -46 915 -46 q 1083 4 1019 -46 l 1100 -17 m 507 940 q 387 885 439 940 q 306 730 335 829 q 278 503 278 631 q 319 239 278 364 q 465 296 396 296 q 581 257 526 296 q 700 146 635 218 q 765 458 765 265 q 736 696 765 586 q 649 873 707 806 q 507 940 590 940 m 539 32 q 589 40 564 32 q 510 136 540 103 q 446 193 481 169 q 375 217 411 217 q 331 208 354 217 q 418 79 365 126 q 539 32 471 32 z "},"R":{"ha":1057,"x_min":35,"x_max":1043,"o":"m 922 89 q 965 38 935 53 q 1043 21 996 24 l 1043 0 l 699 0 l 575 335 q 502 425 554 392 q 401 458 450 458 l 388 458 l 388 103 q 398 67 388 82 q 428 47 408 51 l 558 21 l 558 0 l 35 0 l 35 21 l 114 47 q 154 103 154 60 l 154 869 q 114 925 154 913 l 35 951 l 35 972 l 471 972 q 754 913 660 972 q 849 721 849 854 q 560 463 849 493 q 731 439 657 463 q 832 340 804 415 l 922 89 m 433 506 q 564 565 518 506 q 610 721 610 624 q 433 925 610 925 l 388 925 l 388 506 l 433 506 z "},"S":{"ha":793,"x_min":49,"x_max":758,"o":"m 69 300 q 133 158 85 219 q 248 62 182 96 q 378 28 314 28 q 499 72 457 28 q 542 189 542 117 q 512 289 542 247 q 437 358 482 331 q 324 414 392 385 q 187 482 242 450 q 90 572 132 514 q 49 714 49 629 q 90 856 49 793 q 210 953 132 918 q 396 989 289 989 q 688 917 563 989 l 688 708 l 667 708 q 617 833 654 778 q 528 918 581 888 q 417 949 475 949 q 294 907 339 949 q 250 807 250 865 q 303 687 250 731 q 461 600 357 643 q 685 464 611 539 q 758 278 758 389 q 710 121 758 188 q 574 19 661 54 q 372 -17 486 -17 q 201 -1 279 -17 q 49 51 124 15 l 49 300 l 69 300 z "},"T":{"ha":983,"x_min":28,"x_max":956,"o":"m 256 21 l 335 47 q 375 103 375 63 l 375 925 l 219 925 q 188 916 201 925 q 163 889 175 907 l 49 728 l 28 728 l 72 972 l 911 972 l 956 728 l 935 728 l 821 889 q 795 916 808 907 q 764 925 782 925 l 608 925 l 608 103 q 649 47 608 63 l 728 21 l 728 0 l 256 0 l 256 21 z "},"U":{"ha":1060,"x_min":35,"x_max":1025,"o":"m 1025 972 l 1025 951 l 940 926 q 899 872 899 914 l 899 347 q 814 74 899 169 q 563 -21 729 -21 q 255 73 356 -21 q 154 342 154 167 l 154 869 q 114 925 154 913 l 35 951 l 35 972 l 507 972 l 507 951 l 428 925 q 404 906 410 919 q 399 868 399 893 l 399 325 q 444 122 399 188 q 599 57 490 57 q 772 126 708 57 q 836 331 836 194 l 836 871 q 831 904 836 892 q 808 921 825 917 l 700 951 l 700 972 l 1025 972 z "},"V":{"ha":1065,"x_min":14,"x_max":1051,"o":"m 115 864 q 99 898 107 885 q 78 918 90 911 l 14 951 l 14 972 l 475 972 l 475 951 l 389 915 q 360 874 360 903 q 364 851 360 864 l 615 217 l 863 850 q 868 874 868 867 q 835 914 868 900 l 732 951 l 732 972 l 1051 972 l 1051 951 l 978 917 q 936 864 951 903 l 592 0 l 460 0 l 115 864 z "},"W":{"ha":1447,"x_min":14,"x_max":1433,"o":"m 1089 251 l 1258 854 q 1261 872 1261 868 q 1226 915 1261 903 l 1128 951 l 1128 972 l 1433 972 l 1433 951 l 1374 924 q 1332 864 1346 911 l 1078 0 l 931 0 l 736 576 l 543 0 l 388 0 l 103 865 q 64 925 88 911 l 14 951 l 14 972 l 479 972 l 479 951 l 386 915 q 354 874 354 903 q 357 854 354 861 l 547 221 l 749 824 l 896 824 l 1089 251 z "},"X":{"ha":1010,"x_min":21,"x_max":989,"o":"m 989 21 l 989 0 l 547 0 l 547 21 l 583 35 q 611 72 611 44 q 603 103 611 89 l 436 401 l 249 107 q 239 78 239 92 q 271 43 239 54 l 346 21 l 346 0 l 21 0 l 21 21 l 111 49 q 139 63 128 54 q 161 88 150 71 l 403 461 l 165 883 q 117 926 149 914 l 46 951 l 46 972 l 490 972 l 490 951 l 457 935 q 426 896 426 919 q 435 869 426 885 l 575 618 l 729 865 q 739 893 739 879 q 703 929 739 918 l 631 951 l 631 972 l 956 972 l 956 951 l 865 924 q 814 885 831 914 l 608 558 l 872 89 q 921 46 889 58 l 989 21 z "},"Y":{"ha":939,"x_min":7,"x_max":932,"o":"m 932 951 l 861 926 q 813 882 826 914 l 594 417 l 594 100 q 635 46 594 58 l 715 21 l 715 0 l 242 0 l 242 21 l 321 46 q 361 100 361 58 l 361 382 l 110 883 q 64 929 90 919 l 7 951 l 7 972 l 443 972 l 443 951 l 383 932 q 356 915 367 926 q 346 890 346 904 q 351 868 346 879 l 547 456 l 739 868 q 744 893 744 881 q 713 931 744 918 l 656 951 l 656 972 l 932 972 l 932 951 z "},"Z":{"ha":892,"x_min":35,"x_max":857,"o":"m 857 244 l 813 0 l 35 0 l 35 47 l 590 925 l 263 925 q 231 916 244 925 q 206 889 218 907 l 92 728 l 71 728 l 115 972 l 853 972 l 853 925 l 297 47 l 665 47 q 697 56 683 47 q 722 83 710 65 l 836 244 l 857 244 z "},"[":{"ha":426,"x_min":76,"x_max":406,"o":"m 76 1056 l 406 1056 l 406 1021 l 265 1021 l 265 -229 l 406 -229 l 406 -264 l 76 -264 l 76 1056 z "},"\\":{"ha":492,"x_min":54,"x_max":471,"o":"m 421 0 l 54 972 l 104 972 l 471 0 l 421 0 z "},"]":{"ha":426,"x_min":21,"x_max":350,"o":"m 21 -264 l 21 -229 l 161 -229 l 161 1021 l 21 1021 l 21 1056 l 350 1056 l 350 -264 l 21 -264 z "},"^":{"ha":658,"x_min":44,"x_max":614,"o":"m 306 972 l 354 972 l 614 596 l 554 596 l 329 929 l 104 596 l 44 596 l 306 972 z "},"_":{"ha":553,"x_min":33,"x_max":519,"o":"m 519 -58 l 33 -58 l 33 -11 l 519 -11 l 519 -58 z "},"`":{"ha":407,"x_min":69,"x_max":338,"o":"m 69 994 l 243 994 l 338 785 l 292 785 l 69 994 z "},"a":{"ha":794,"x_min":35,"x_max":774,"o":"m 774 42 l 774 21 l 501 -17 l 453 -17 l 453 122 q 358 19 411 54 q 238 -17 306 -17 q 90 35 146 -17 q 35 174 35 88 q 122 340 35 276 q 372 419 208 403 l 453 428 l 453 493 q 427 635 453 583 q 360 686 401 686 q 273 628 299 686 q 250 492 247 571 l 38 492 q 89 619 40 565 q 214 700 138 672 q 378 728 290 728 q 601 654 525 728 q 678 447 678 581 l 678 121 q 715 64 678 79 l 774 42 m 356 104 q 453 165 410 104 l 453 388 l 399 378 q 303 323 338 368 q 268 210 268 278 q 293 134 268 164 q 356 104 318 104 z "},"b":{"ha":867,"x_min":22,"x_max":832,"o":"m 529 728 q 694 681 626 728 q 797 553 763 633 q 832 379 832 474 q 785 170 832 260 q 658 32 739 81 q 474 -17 576 -17 q 360 8 411 -17 q 275 78 310 32 l 167 -17 l 118 -17 l 118 851 q 81 908 118 894 l 22 931 l 22 951 l 294 989 l 343 989 l 343 640 q 424 703 375 679 q 529 728 474 728 m 456 25 q 531 66 499 25 q 581 176 564 107 q 599 328 599 244 q 560 544 599 451 q 447 638 522 638 q 391 627 415 638 q 343 593 367 617 l 343 261 q 372 86 343 147 q 456 25 400 25 z "},"c":{"ha":715,"x_min":35,"x_max":701,"o":"m 614 451 q 576 574 607 519 q 499 658 544 628 q 407 688 454 688 q 288 617 326 688 q 249 440 249 547 q 277 263 249 339 q 358 144 306 186 q 476 103 410 103 q 595 133 543 103 q 676 224 647 163 l 701 214 q 585 44 665 106 q 388 -17 504 -17 q 197 33 276 -17 q 76 165 117 82 q 35 347 35 247 q 76 538 35 451 q 199 676 117 624 q 397 728 281 728 q 528 717 460 728 q 635 689 597 706 l 635 451 l 614 451 z "},"d":{"ha":872,"x_min":35,"x_max":844,"o":"m 844 42 l 844 21 l 572 -17 l 524 -17 l 524 71 q 442 8 492 32 q 338 -17 393 -17 q 172 31 240 -17 q 69 158 104 78 q 35 332 35 238 q 81 541 35 451 q 209 679 128 631 q 393 728 290 728 q 524 693 465 728 l 524 851 q 486 908 524 894 l 428 931 l 428 951 l 700 989 l 749 989 l 749 121 q 786 64 749 78 l 844 42 m 419 74 q 476 84 451 74 q 524 118 500 94 l 524 450 q 495 625 524 564 q 411 686 467 686 q 335 645 368 686 q 285 535 303 604 q 268 383 268 467 q 306 167 268 260 q 419 74 344 74 z "},"e":{"ha":750,"x_min":35,"x_max":708,"o":"m 507 139 q 608 165 560 139 q 683 235 657 190 l 707 225 q 591 53 676 122 q 379 -17 506 -17 q 189 33 267 -17 q 73 163 111 82 q 35 339 35 244 q 80 544 35 457 q 208 680 125 632 q 400 728 290 728 q 633 647 560 728 q 708 404 707 567 l 251 404 q 291 258 254 318 q 385 168 328 197 q 507 139 443 139 m 376 686 q 290 624 324 686 q 251 446 256 561 l 488 446 q 456 624 485 563 q 376 686 428 686 z "},"f":{"ha":583,"x_min":7,"x_max":556,"o":"m 556 888 q 325 940 393 940 q 268 904 268 940 q 277 867 268 888 q 308 806 286 846 q 338 747 329 768 q 347 711 347 726 l 544 711 l 544 669 l 347 669 l 347 93 q 386 38 347 47 l 451 21 l 451 0 l 44 0 l 44 21 l 86 38 q 122 93 122 51 l 122 669 l 7 669 l 7 711 l 122 711 q 172 870 122 790 q 321 1015 222 950 q 556 1115 419 1079 l 556 888 z "},"g":{"ha":778,"x_min":21,"x_max":750,"o":"m 469 150 q 674 94 597 138 q 750 -36 750 51 q 697 -157 750 -103 q 551 -242 643 -211 q 350 -272 460 -272 q 110 -226 200 -272 q 21 -106 21 -181 q 79 -21 21 -56 q 217 22 138 14 l 231 22 q 125 79 160 42 q 90 165 90 117 q 112 238 90 208 q 183 292 133 267 q 90 371 125 322 q 56 486 56 419 q 94 608 56 553 q 206 696 133 664 q 372 728 278 728 q 547 690 468 728 l 660 818 l 700 781 l 589 665 q 658 586 633 632 q 683 486 683 540 q 645 365 683 419 q 536 278 607 310 q 372 247 465 247 q 203 282 281 247 q 183 228 183 258 q 211 187 183 201 q 299 167 239 172 l 469 150 m 350 689 q 302 647 319 689 q 285 538 285 606 q 299 406 285 464 q 340 315 314 347 q 394 283 365 283 q 441 326 424 283 q 458 440 458 369 q 457 475 458 463 q 420 630 450 571 q 350 689 390 689 m 372 -233 q 500 -193 458 -233 q 542 -94 542 -153 q 512 -36 542 -56 q 425 -8 482 -17 l 300 8 q 240 19 275 11 q 219 -76 219 -10 q 240 -153 219 -117 q 294 -211 260 -189 q 372 -233 329 -233 z "},"h":{"ha":904,"x_min":28,"x_max":876,"o":"m 876 21 l 876 0 l 482 0 l 482 21 l 528 38 q 567 93 567 51 l 567 561 q 555 600 567 585 q 524 615 543 615 q 453 598 490 615 q 349 536 417 581 l 349 93 q 388 38 349 51 l 433 21 l 433 0 l 39 0 l 39 21 l 85 38 q 124 93 124 51 l 124 851 q 86 908 124 894 l 28 931 l 28 951 l 300 989 l 349 989 l 349 593 q 533 696 461 664 q 657 728 604 728 q 756 683 719 728 q 792 561 792 639 l 792 93 q 831 38 792 51 l 876 21 z "},"i":{"ha":461,"x_min":28,"x_max":433,"o":"m 433 21 l 433 0 l 39 0 l 39 21 l 85 38 q 124 93 124 51 l 124 590 q 86 647 124 633 l 28 669 l 28 690 l 300 728 l 349 728 l 349 93 q 388 38 349 51 l 433 21 m 231 786 q 133 822 174 786 q 92 911 92 857 q 133 999 92 964 q 231 1033 174 1033 q 328 999 288 1033 q 369 911 369 964 q 328 822 369 857 q 231 786 288 786 z "},"j":{"ha":428,"x_min":-35,"x_max":353,"o":"m 338 728 l 338 51 q 307 -90 338 -32 q 197 -192 276 -149 q -24 -264 118 -235 l -35 -236 q 61 -194 35 -212 q 100 -129 88 -176 q 113 24 113 -82 l 113 590 q 75 647 113 633 l 17 669 l 17 690 l 289 728 l 338 728 m 214 789 q 116 824 157 789 q 75 914 75 860 q 116 1001 75 967 q 214 1036 157 1036 q 312 1001 271 1036 q 353 914 353 967 q 312 824 353 860 q 214 789 271 789 z "},"k":{"ha":914,"x_min":28,"x_max":897,"o":"m 897 19 l 897 0 l 593 0 l 407 332 q 349 365 389 365 l 349 93 q 388 38 349 51 l 433 21 l 433 0 l 39 0 l 39 21 l 85 38 q 124 93 124 51 l 124 846 q 86 903 124 889 l 28 925 l 28 946 l 300 983 l 349 983 l 349 407 l 363 407 q 422 432 399 407 l 610 622 q 629 650 629 642 q 597 667 629 660 l 525 683 l 525 711 l 849 711 l 849 683 l 753 664 q 697 633 719 656 l 549 488 l 781 85 q 800 60 789 68 q 829 44 811 51 l 897 19 z "},"l":{"ha":461,"x_min":28,"x_max":433,"o":"m 433 21 l 433 0 l 39 0 l 39 21 l 85 38 q 124 93 124 51 l 124 846 q 86 903 124 889 l 28 925 l 28 946 l 300 983 l 349 983 l 349 93 q 388 38 349 51 l 433 21 z "},"m":{"ha":1319,"x_min":28,"x_max":1292,"o":"m 1292 21 l 1292 0 l 897 0 l 897 21 l 943 38 q 982 93 982 51 l 982 547 q 972 598 982 582 q 939 614 961 614 q 878 601 906 614 q 778 544 851 589 l 778 93 q 817 38 778 51 l 863 21 l 863 0 l 468 0 l 468 21 l 514 38 q 553 93 553 51 l 553 492 q 551 567 553 546 q 538 601 549 589 q 500 614 526 614 q 443 600 472 614 q 386 569 414 586 q 349 546 358 553 l 349 93 q 388 38 349 51 l 433 21 l 433 0 l 39 0 l 39 21 l 85 38 q 124 93 124 51 l 124 590 q 86 647 124 633 l 28 669 l 28 690 l 300 728 l 349 728 l 349 601 l 407 636 q 539 707 494 686 q 625 728 583 728 q 725 697 689 728 q 772 599 761 665 q 935 694 868 661 q 1054 728 1003 728 q 1142 709 1110 728 q 1191 645 1175 690 q 1207 519 1207 600 l 1207 93 q 1246 38 1207 51 l 1292 21 z "},"n":{"ha":904,"x_min":28,"x_max":876,"o":"m 876 21 l 876 0 l 482 0 l 482 21 l 528 38 q 567 93 567 51 l 567 561 q 555 600 567 585 q 524 615 543 615 q 453 598 490 615 q 349 536 417 581 l 349 93 q 388 38 349 51 l 433 21 l 433 0 l 39 0 l 39 21 l 85 38 q 124 93 124 51 l 124 590 q 86 647 124 633 l 28 669 l 28 690 l 300 728 l 349 728 l 349 593 q 533 696 461 664 q 657 728 604 728 q 756 683 719 728 q 792 561 792 639 l 792 93 q 831 38 792 51 l 876 21 z "},"o":{"ha":826,"x_min":35,"x_max":792,"o":"m 406 -17 q 212 29 296 -17 q 81 159 128 75 q 35 354 35 243 q 87 548 35 463 q 226 681 139 633 q 417 728 314 728 q 613 681 528 728 q 744 550 697 635 q 792 354 792 465 q 739 163 792 247 q 598 31 686 78 q 406 -17 510 -17 m 431 25 q 495 60 467 25 q 540 159 524 96 q 557 303 557 222 q 539 478 557 389 q 484 626 521 567 q 396 686 447 686 q 331 651 360 686 q 285 552 301 615 q 268 408 268 489 q 287 233 268 322 q 342 85 306 144 q 431 25 379 25 z "},"p":{"ha":872,"x_min":28,"x_max":838,"o":"m 535 728 q 700 681 632 728 q 803 553 768 633 q 838 379 838 474 q 791 170 838 260 q 663 32 744 81 q 479 -17 582 -17 q 349 18 407 -17 l 349 -168 q 388 -224 349 -210 l 433 -240 l 433 -261 l 39 -261 l 39 -240 l 85 -224 q 124 -168 124 -210 l 124 590 q 86 647 124 633 l 28 669 l 28 690 l 300 728 l 349 728 l 349 640 q 430 703 381 679 q 535 728 479 728 m 461 25 q 537 66 504 25 q 587 176 569 107 q 604 328 604 244 q 566 544 604 451 q 453 638 528 638 q 397 627 421 638 q 349 593 372 617 l 349 261 q 377 86 349 147 q 461 25 406 25 z "},"q":{"ha":861,"x_min":35,"x_max":828,"o":"m 828 -240 l 828 -261 l 433 -261 l 433 -240 l 479 -224 q 518 -168 518 -210 l 518 18 q 378 -15 460 -15 q 188 33 265 -15 q 73 165 111 82 q 35 350 35 247 q 74 541 35 456 q 192 677 114 626 q 383 728 271 728 q 588 651 511 728 l 701 728 l 743 728 l 743 -168 q 782 -224 743 -210 l 828 -240 m 476 65 q 518 74 500 65 l 518 547 q 463 658 500 624 q 382 692 426 692 q 285 623 322 692 q 249 429 249 554 q 278 243 249 326 q 358 113 307 160 q 476 65 410 65 z "},"r":{"ha":686,"x_min":28,"x_max":644,"o":"m 592 735 q 644 728 621 735 l 644 517 q 519 542 593 542 q 410 516 456 542 q 349 447 365 490 l 349 106 q 358 72 349 85 q 386 50 367 58 l 461 21 l 461 0 l 39 0 l 39 21 l 89 47 q 124 104 124 65 l 124 590 q 86 647 124 633 l 28 669 l 28 690 l 300 728 l 349 728 l 349 522 q 445 683 381 632 q 592 735 510 735 z "},"s":{"ha":654,"x_min":56,"x_max":631,"o":"m 322 -17 q 188 -6 256 -17 q 68 24 121 4 l 68 231 l 89 231 q 178 81 117 136 q 326 25 240 25 q 424 57 389 25 q 460 132 460 89 q 441 196 460 172 q 384 234 422 219 q 267 268 346 249 q 119 338 183 289 q 56 500 56 388 q 133 666 56 604 q 336 728 211 728 q 558 690 476 728 l 558 503 l 538 503 q 459 634 510 582 q 332 686 408 686 q 249 658 275 686 q 222 599 222 629 q 257 519 222 549 q 367 468 292 489 q 490 424 436 449 q 588 351 544 400 q 631 226 631 301 q 592 104 631 160 q 484 16 554 49 q 322 -17 414 -17 z "},"t":{"ha":614,"x_min":42,"x_max":572,"o":"m 419 711 l 572 711 l 572 669 l 419 669 l 419 0 l 194 0 l 194 669 l 42 669 l 42 711 l 201 711 l 201 886 l 399 972 l 419 972 l 419 711 z "},"u":{"ha":915,"x_min":28,"x_max":888,"o":"m 888 42 l 888 21 l 615 -17 l 567 -17 l 567 118 q 383 15 454 47 q 258 -17 311 -17 q 160 28 196 -17 q 124 150 124 72 l 124 590 q 86 647 124 633 l 28 669 l 28 690 l 300 728 l 349 728 l 349 150 q 360 111 349 126 q 392 96 372 96 q 462 113 425 96 q 567 175 499 131 l 567 590 q 529 647 567 633 l 471 669 l 471 690 l 743 728 l 792 728 l 792 121 q 829 64 792 78 l 888 42 z "},"v":{"ha":886,"x_min":21,"x_max":865,"o":"m 865 711 l 865 690 l 792 665 q 744 619 758 654 l 503 0 l 371 0 l 122 619 q 78 667 107 654 l 21 690 l 21 711 l 432 711 l 432 690 l 383 671 q 351 631 351 656 q 356 608 351 621 l 517 182 l 685 606 q 690 628 690 622 q 654 667 690 656 l 572 690 l 572 711 l 865 711 z "},"w":{"ha":1260,"x_min":21,"x_max":1239,"o":"m 926 201 l 1065 606 q 1069 626 1069 617 q 1035 668 1069 658 l 961 690 l 961 711 l 1239 711 l 1239 690 l 1179 665 q 1149 648 1160 658 q 1133 619 1139 638 l 915 0 l 781 0 l 624 447 l 464 0 l 331 0 l 107 625 q 91 652 101 642 q 61 671 81 663 l 21 690 l 21 711 l 413 711 l 413 690 l 376 672 q 344 632 344 657 q 349 610 344 622 l 476 200 l 632 650 l 776 650 l 926 201 z "},"x":{"ha":883,"x_min":21,"x_max":863,"o":"m 863 21 l 863 0 l 446 0 l 446 21 l 488 36 q 507 57 507 44 q 493 88 507 67 l 375 264 l 246 96 q 233 67 233 81 q 264 39 233 47 l 336 21 l 336 0 l 21 0 l 21 21 l 110 46 q 144 63 131 51 q 178 100 158 75 l 344 310 l 140 618 q 117 651 126 639 q 94 667 107 663 l 25 690 l 25 711 l 442 711 l 442 690 l 400 675 q 382 653 382 669 q 397 617 382 640 l 501 458 l 624 619 q 638 653 638 638 q 615 676 638 671 l 550 690 l 550 711 l 826 711 l 826 690 l 767 678 q 731 663 746 674 q 697 628 715 651 l 532 413 l 746 90 q 793 44 769 53 l 863 21 z "},"y":{"ha":886,"x_min":21,"x_max":865,"o":"m 865 711 l 865 690 l 792 665 q 744 619 758 654 l 471 -82 q 382 -230 433 -178 q 233 -282 331 -282 q 165 -275 203 -282 l 165 -126 q 282 -146 235 -146 q 369 -131 332 -146 q 422 -85 407 -117 l 426 -75 l 129 619 q 78 667 115 650 l 21 690 l 21 711 l 432 711 l 432 690 l 383 671 q 357 636 357 660 q 363 608 357 621 l 526 197 l 685 606 q 690 628 690 622 q 654 667 690 656 l 572 690 l 572 711 l 865 711 z "},"z":{"ha":743,"x_min":35,"x_max":701,"o":"m 688 635 l 271 42 l 500 42 q 554 58 529 42 q 594 101 579 74 l 681 257 l 701 257 l 654 0 l 35 0 l 35 76 l 451 669 l 250 669 q 201 658 221 669 q 163 619 181 646 l 69 476 l 49 476 l 103 711 l 688 711 l 688 635 z "},"{":{"ha":513,"x_min":35,"x_max":492,"o":"m 35 408 q 100 433 79 415 q 128 479 121 450 q 135 563 135 508 l 135 871 q 181 976 135 931 q 309 1045 228 1021 q 492 1069 390 1069 l 492 1042 q 338 890 338 1024 l 338 569 q 290 458 338 496 q 139 396 242 421 q 290 333 242 371 q 338 222 338 296 l 338 -99 q 492 -250 338 -232 l 492 -278 q 309 -253 390 -278 q 181 -184 228 -229 q 135 -79 135 -139 l 135 229 q 128 313 135 283 q 100 359 121 342 q 35 383 79 376 l 35 408 z "},"|":{"ha":356,"x_min":154,"x_max":201,"o":"m 154 1094 l 201 1094 l 201 -294 l 154 -294 l 154 1094 z "},"}":{"ha":513,"x_min":21,"x_max":478,"o":"m 478 383 q 413 359 433 376 q 385 313 392 342 q 378 229 378 283 l 378 -79 q 331 -184 378 -139 q 203 -253 285 -229 q 21 -278 122 -278 l 21 -250 q 175 -99 175 -232 l 175 222 q 223 333 175 296 q 374 396 271 371 q 223 458 271 421 q 175 569 175 496 l 175 890 q 21 1042 175 1024 l 21 1069 q 203 1045 122 1069 q 331 976 285 1021 q 378 871 378 931 l 378 563 q 385 479 378 508 q 413 433 392 450 q 478 408 433 415 l 478 383 z "},"~":{"ha":599,"x_min":58,"x_max":540,"o":"m 58 368 q 103 506 60 451 q 206 561 146 561 q 263 553 233 561 q 351 524 293 544 q 436 499 414 499 q 482 516 467 499 q 510 578 497 533 l 540 565 q 494 424 535 479 q 397 368 453 368 q 324 377 358 368 q 247 403 290 386 q 154 428 188 428 q 111 413 125 428 q 88 356 97 397 l 58 368 z "}," ":{"ha":278,"x_min":0,"x_max":0,"o":""},"¡":{"ha":444,"x_min":90,"x_max":354,"o":"m 222 708 q 305 675 271 708 q 339 592 339 642 q 306 510 339 543 q 222 476 274 476 q 140 510 174 476 q 106 592 106 543 q 140 675 106 642 q 222 708 174 708 m 90 -283 l 206 393 l 239 393 l 354 -283 l 90 -283 z "},"¢":{"ha":715,"x_min":35,"x_max":701,"o":"m 701 214 q 590 49 667 110 q 401 -17 513 -12 l 401 -207 l 351 -207 l 351 -15 q 180 44 251 -7 q 72 174 108 94 q 35 347 35 253 q 71 526 35 444 q 178 662 107 608 q 351 725 250 715 l 351 928 l 401 928 l 401 728 q 531 717 464 728 q 635 689 599 706 l 635 451 l 614 451 q 576 574 607 519 q 499 658 544 628 q 407 688 454 688 q 288 617 326 688 q 249 440 249 547 q 277 263 249 339 q 358 144 306 186 q 476 103 410 103 q 595 133 543 103 q 676 224 647 163 l 701 214 z "},"£":{"ha":821,"x_min":21,"x_max":786,"o":"m 786 231 q 715 49 774 118 q 546 -19 656 -19 q 441 -6 483 -19 q 342 36 399 8 q 283 64 308 54 q 229 74 257 74 q 151 54 193 74 q 53 -10 110 35 l 32 14 q 165 181 126 107 q 204 324 204 256 q 196 395 204 360 q 171 479 188 431 l 21 479 l 21 526 l 156 526 q 134 611 142 572 q 126 693 126 650 q 167 848 126 781 q 282 952 207 915 q 457 989 357 989 q 581 972 525 989 q 701 917 636 954 l 701 717 l 681 717 q 601 888 661 824 q 456 951 540 951 q 344 912 385 951 q 303 801 303 872 q 306 765 303 790 q 349 654 311 729 q 371 605 353 644 q 399 526 389 565 l 629 526 l 629 479 l 407 479 q 408 454 408 471 q 370 315 408 388 q 242 161 332 243 q 386 210 318 210 q 452 199 421 210 q 519 167 483 188 q 570 142 551 150 q 610 135 589 135 q 697 158 660 135 q 754 231 735 182 l 786 231 z "},"¤":{"ha":781,"x_min":6,"x_max":724,"o":"m 694 146 l 578 265 q 480 205 535 226 q 365 183 425 183 q 249 205 304 183 q 150 265 194 226 l 32 147 l 7 174 l 125 292 q 65 389 86 335 q 44 506 44 443 q 65 621 44 567 q 122 718 85 675 l 6 836 l 35 865 l 153 747 q 251 807 196 786 q 365 828 306 828 q 481 806 425 828 q 579 744 536 785 l 697 864 l 722 838 l 604 719 q 663 622 642 676 q 683 506 683 567 q 606 294 683 383 l 724 175 l 694 146 m 365 225 q 501 263 438 225 q 601 364 564 300 q 638 506 638 428 q 601 647 638 582 q 501 749 564 711 q 365 786 439 786 q 227 749 290 786 q 127 647 164 711 q 90 506 90 582 q 127 365 90 429 q 227 263 164 300 q 365 225 290 225 z "},"¥":{"ha":939,"x_min":7,"x_max":932,"o":"m 932 972 l 932 951 l 861 926 q 813 882 826 914 l 594 417 l 800 417 l 800 369 l 594 369 l 594 100 q 635 46 594 58 l 715 21 l 715 0 l 242 0 l 242 21 l 321 46 q 361 100 361 58 l 361 369 l 164 369 l 164 417 l 343 417 l 110 883 q 64 929 90 919 l 7 951 l 7 972 l 443 972 l 443 951 l 383 932 q 356 915 367 926 q 346 890 346 904 q 351 868 346 879 l 547 456 l 739 868 q 744 893 744 881 q 713 931 744 918 l 656 951 l 656 972 l 932 972 z "},"¦":{"ha":356,"x_min":154,"x_max":201,"o":"m 154 1094 l 201 1094 l 201 553 l 154 553 l 154 1094 m 201 -294 l 154 -294 l 154 247 l 201 247 l 201 -294 z "},"§":{"ha":772,"x_min":76,"x_max":696,"o":"m 533 222 q 649 139 606 188 q 692 14 692 90 q 654 -102 692 -51 q 545 -181 617 -153 q 376 -210 474 -210 q 233 -193 299 -210 q 99 -142 168 -176 l 99 54 l 124 54 q 209 -115 144 -51 q 376 -178 274 -178 q 474 -143 435 -178 q 513 -62 513 -108 q 492 10 514 -19 q 438 58 471 39 q 339 106 404 76 q 140 224 204 164 q 76 363 76 283 q 126 494 76 440 q 263 572 175 547 q 146 667 188 617 q 104 789 104 718 q 180 934 104 879 q 390 989 256 989 q 633 933 526 989 l 633 767 l 617 767 q 540 903 600 850 q 404 957 479 957 q 304 924 338 957 q 271 846 271 892 q 294 775 271 804 q 350 728 318 746 q 449 678 382 710 q 590 603 540 635 q 668 532 640 572 q 696 433 696 492 q 653 303 696 357 q 533 222 610 249 m 242 432 q 269 358 242 388 q 335 310 297 328 q 461 254 372 292 q 474 249 469 251 q 524 291 506 264 q 543 351 543 318 q 508 440 543 407 q 378 515 472 472 q 319 543 358 524 q 263 497 283 526 q 242 432 242 468 z "},"¨":{"ha":640,"x_min":51,"x_max":588,"o":"m 176 796 q 88 828 125 796 q 51 908 51 860 q 88 988 51 956 q 176 1019 125 1019 q 265 988 228 1019 q 301 908 301 956 q 265 828 301 860 q 176 796 228 796 m 463 796 q 374 828 411 796 q 338 908 338 860 q 374 988 338 956 q 463 1019 411 1019 q 551 988 514 1019 q 588 908 588 956 q 551 828 588 860 q 463 796 514 796 z "},"©":{"ha":1050,"x_min":42,"x_max":1008,"o":"m 524 -19 q 283 46 393 -19 q 107 222 172 111 q 42 464 42 333 q 107 706 42 594 q 283 882 172 817 q 524 947 393 947 q 766 882 654 947 q 943 706 878 817 q 1008 464 1008 594 q 943 222 1008 333 q 766 46 878 111 q 524 -19 654 -19 m 525 26 q 743 85 643 26 q 902 245 843 144 q 961 464 961 346 q 902 683 961 582 q 743 842 843 783 q 525 901 643 901 q 307 842 407 901 q 148 683 207 783 q 89 464 89 582 q 148 245 89 346 q 307 85 207 144 q 525 26 407 26 m 526 200 q 392 234 450 200 q 301 331 333 268 q 268 474 268 393 q 301 617 268 554 q 392 714 333 679 q 526 749 450 749 q 669 705 610 749 q 747 585 728 661 l 697 574 q 639 670 683 636 q 526 704 594 704 q 375 642 431 704 q 319 474 319 581 q 375 306 319 368 q 526 244 431 244 q 637 277 593 244 q 697 372 681 310 l 746 363 q 665 243 724 286 q 526 200 607 200 z "},"ª":{"ha":503,"x_min":18,"x_max":493,"o":"m 493 569 l 493 557 l 308 539 l 274 539 l 274 624 q 214 559 246 579 q 142 539 182 539 q 51 570 83 539 q 18 654 18 601 q 75 756 18 718 q 233 806 132 794 l 274 808 l 274 867 q 262 938 274 911 q 231 964 250 964 q 183 926 196 964 q 171 840 169 889 l 19 840 q 85 949 19 908 q 238 989 150 989 q 385 943 335 989 q 436 815 436 897 l 436 624 q 460 585 436 596 l 493 569 m 228 621 q 274 647 251 621 l 274 782 l 249 778 q 201 746 219 771 q 183 686 183 721 q 196 639 183 657 q 228 621 208 621 z "},"«":{"ha":858,"x_min":83,"x_max":831,"o":"m 83 404 l 429 654 l 457 629 l 233 360 l 457 89 l 429 64 l 83 315 l 83 404 m 457 404 l 803 654 l 831 629 l 607 360 l 831 89 l 803 64 l 457 315 l 457 404 z "},"¬":{"ha":681,"x_min":33,"x_max":647,"o":"m 647 0 l 600 0 l 600 393 l 33 393 l 33 440 l 647 440 l 647 0 z "},"®":{"ha":664,"x_min":42,"x_max":622,"o":"m 331 471 q 186 510 253 471 q 81 615 119 549 q 42 760 42 682 q 81 906 42 839 q 186 1011 119 972 q 331 1050 253 1050 q 476 1011 410 1050 q 583 906 543 972 q 622 760 622 839 q 583 615 622 682 q 476 510 543 549 q 331 471 410 471 m 332 507 q 458 541 400 507 q 551 633 517 575 q 585 760 585 692 q 551 888 585 829 q 459 980 517 946 q 332 1014 401 1014 q 205 980 263 1014 q 113 888 147 946 q 79 760 79 829 q 113 633 79 692 q 206 541 147 575 q 332 507 264 507 m 428 615 l 342 757 l 269 757 l 269 615 l 232 615 l 232 929 l 340 929 q 412 906 385 929 q 439 844 439 882 q 423 794 439 815 q 379 761 407 772 l 472 615 l 428 615 m 268 796 l 339 796 q 384 808 368 796 q 400 844 400 821 q 384 881 400 868 q 339 893 368 893 l 268 893 l 268 796 z "},"¯":{"ha":585,"x_min":69,"x_max":515,"o":"m 69 907 l 515 907 l 515 861 l 69 861 l 69 907 z "},"°":{"ha":515,"x_min":69,"x_max":379,"o":"m 225 638 q 115 683 161 638 q 69 793 69 729 q 115 902 69 857 q 225 947 160 947 q 334 902 289 947 q 379 793 379 857 q 333 684 379 731 q 225 638 288 638 m 222 686 q 299 717 268 686 q 329 793 329 747 q 299 868 329 838 q 222 899 268 899 q 149 868 178 899 q 119 793 119 838 q 149 717 119 747 q 222 686 178 686 z "},"±":{"ha":753,"x_min":69,"x_max":683,"o":"m 683 447 l 400 447 l 400 164 l 353 164 l 353 447 l 69 447 l 69 494 l 353 494 l 353 778 l 400 778 l 400 494 l 683 494 l 683 447 m 69 47 l 683 47 l 683 0 l 69 0 l 69 47 z "},"´":{"ha":407,"x_min":69,"x_max":338,"o":"m 69 785 l 164 994 l 338 994 l 115 785 l 69 785 z "},"µ":{"ha":904,"x_min":28,"x_max":888,"o":"m 888 42 l 888 21 l 615 -17 l 567 -17 l 567 118 q 349 1 425 29 l 349 -124 q 386 -181 349 -167 l 444 -203 l 444 -224 l 172 -261 l 124 -261 l 124 590 q 86 647 124 633 l 28 669 l 28 690 l 300 728 l 349 728 l 349 150 q 360 111 349 126 q 392 96 372 96 q 462 113 425 96 q 567 175 499 131 l 567 590 q 529 647 567 633 l 471 669 l 471 690 l 743 728 l 792 728 l 792 121 q 829 64 792 78 l 888 42 z "},"¶":{"ha":760,"x_min":76,"x_max":725,"o":"m 300 519 q 188 547 239 519 q 106 621 136 574 q 76 724 76 668 q 106 826 76 779 q 188 901 136 874 q 300 928 239 928 l 725 928 l 725 882 l 631 882 l 631 -294 l 576 -294 l 576 882 l 354 882 l 354 -294 l 300 -294 l 300 519 z "},"·":{"ha":372,"x_min":69,"x_max":303,"o":"m 186 396 q 103 429 138 396 q 69 513 69 463 q 103 594 69 561 q 186 628 138 628 q 270 594 238 628 q 303 513 303 561 q 269 429 303 463 q 186 396 235 396 z "},"¸":{"ha":394,"x_min":69,"x_max":325,"o":"m 69 -282 q 199 -211 199 -285 q 172 -168 199 -186 q 97 -140 146 -150 l 178 0 l 217 0 l 179 -71 q 281 -110 236 -83 q 325 -182 325 -137 q 274 -276 325 -244 q 139 -307 224 -307 q 69 -303 104 -307 l 69 -282 z "},"º":{"ha":515,"x_min":17,"x_max":499,"o":"m 253 539 q 82 601 147 539 q 17 765 17 663 q 50 881 17 829 q 140 960 83 932 q 260 989 196 989 q 433 926 367 989 q 499 760 499 864 q 465 646 499 696 q 374 567 431 596 q 253 539 318 539 m 269 563 q 311 608 294 563 q 328 726 328 654 q 305 889 328 813 q 246 965 282 965 q 203 919 221 965 q 186 800 186 872 q 209 638 186 714 q 269 563 232 563 z "},"»":{"ha":831,"x_min":28,"x_max":775,"o":"m 429 64 l 401 89 l 625 360 l 401 629 l 429 654 l 775 404 l 775 315 l 429 64 m 56 64 l 28 89 l 251 360 l 28 629 l 56 654 l 401 404 l 401 315 l 56 64 z "},"¼":{"ha":1099,"x_min":25,"x_max":1081,"o":"m 261 0 l 797 972 l 851 972 l 315 0 l 261 0 z "},"½":{"ha":1124,"x_min":25,"x_max":1106,"o":"m 261 0 l 797 972 l 851 972 l 315 0 l 261 0 z "},"¾":{"ha":1111,"x_min":10,"x_max":1093,"o":"m 274 0 l 810 972 l 864 972 l 328 0 l 274 0 z "},"¿":{"ha":799,"x_min":76,"x_max":729,"o":"m 392 731 q 474 697 440 731 q 508 614 508 664 q 474 532 508 565 q 392 499 440 499 q 308 532 340 499 q 275 614 275 565 q 309 697 275 664 q 392 731 343 731 m 432 415 q 471 260 471 324 q 445 166 471 203 q 368 86 419 129 q 299 19 325 50 q 261 -56 272 -11 q 254 -110 254 -82 q 289 -199 254 -168 q 374 -229 324 -229 q 526 -8 504 -229 l 729 -8 q 620 -212 713 -146 q 382 -278 528 -278 q 222 -247 292 -278 q 115 -161 153 -217 q 76 -35 76 -106 q 101 74 76 29 q 160 148 125 119 q 253 213 196 176 q 328 265 301 243 q 374 316 356 286 q 393 386 393 346 q 390 415 393 396 l 432 415 z "},"À":{"ha":1093,"x_min":28,"x_max":1065,"o":"m 1065 21 l 1065 0 l 604 0 l 604 21 l 690 57 q 719 99 719 69 q 715 121 719 108 l 642 306 l 289 306 l 217 122 q 211 99 211 106 q 244 58 211 72 l 347 21 l 347 0 l 28 0 l 28 21 l 101 56 q 143 108 128 69 l 488 972 l 619 972 l 964 108 q 981 74 972 88 q 1001 54 989 61 l 1065 21 m 624 353 l 464 756 l 307 353 l 624 353 m 357 1256 l 531 1256 l 625 1046 l 579 1046 l 357 1256 z "},"Á":{"ha":1093,"x_min":28,"x_max":1065,"o":"m 1065 21 l 1065 0 l 604 0 l 604 21 l 690 57 q 719 99 719 69 q 715 121 719 108 l 642 306 l 289 306 l 217 122 q 211 99 211 106 q 244 58 211 72 l 347 21 l 347 0 l 28 0 l 28 21 l 101 56 q 143 108 128 69 l 488 972 l 619 972 l 964 108 q 981 74 972 88 q 1001 54 989 61 l 1065 21 m 624 353 l 464 756 l 307 353 l 624 353 m 513 1046 l 607 1256 l 781 1256 l 558 1046 l 513 1046 z "},"Â":{"ha":1093,"x_min":28,"x_max":1065,"o":"m 1065 21 l 1065 0 l 604 0 l 604 21 l 690 57 q 719 99 719 69 q 715 121 719 108 l 642 306 l 289 306 l 217 122 q 211 99 211 106 q 244 58 211 72 l 347 21 l 347 0 l 28 0 l 28 21 l 101 56 q 143 108 128 69 l 488 972 l 619 972 l 964 108 q 981 74 972 88 q 1001 54 989 61 l 1065 21 m 624 353 l 464 756 l 307 353 l 624 353 m 739 1046 l 546 1183 l 356 1046 l 317 1046 l 444 1256 l 646 1256 l 789 1046 l 739 1046 z "},"Ã":{"ha":1093,"x_min":28,"x_max":1065,"o":"m 1065 21 l 1065 0 l 604 0 l 604 21 l 690 57 q 719 99 719 69 q 715 121 719 108 l 642 306 l 289 306 l 217 122 q 211 99 211 106 q 244 58 211 72 l 347 21 l 347 0 l 28 0 l 28 21 l 101 56 q 143 108 128 69 l 488 972 l 619 972 l 964 108 q 981 74 972 88 q 1001 54 989 61 l 1065 21 m 624 353 l 464 756 l 307 353 l 624 353 m 311 1046 q 356 1184 313 1129 q 458 1239 399 1239 q 516 1231 486 1239 q 604 1201 546 1222 q 689 1176 667 1176 q 735 1194 719 1176 q 763 1256 750 1211 l 793 1243 q 747 1101 788 1157 q 650 1046 706 1046 q 577 1055 611 1046 q 500 1081 543 1064 q 407 1106 440 1106 q 364 1090 378 1106 q 340 1033 350 1075 l 311 1046 z "},"Ä":{"ha":1093,"x_min":28,"x_max":1065,"o":"m 1065 21 l 1065 0 l 604 0 l 604 21 l 690 57 q 719 99 719 69 q 715 121 719 108 l 642 306 l 289 306 l 217 122 q 211 99 211 106 q 244 58 211 72 l 347 21 l 347 0 l 28 0 l 28 21 l 101 56 q 143 108 128 69 l 488 972 l 619 972 l 964 108 q 981 74 972 88 q 1001 54 989 61 l 1065 21 m 624 353 l 464 756 l 307 353 l 624 353 m 410 1057 q 322 1089 358 1057 q 285 1169 285 1121 q 322 1249 285 1217 q 410 1281 358 1281 q 498 1249 461 1281 q 535 1169 535 1217 q 498 1089 535 1121 q 410 1057 461 1057 m 696 1057 q 608 1089 644 1057 q 571 1169 571 1121 q 608 1249 571 1217 q 696 1281 644 1281 q 784 1249 747 1281 q 821 1169 821 1217 q 784 1089 821 1121 q 696 1057 747 1057 z "},"Å":{"ha":1093,"x_min":28,"x_max":1065,"o":"m 1065 21 l 1065 0 l 604 0 l 604 21 l 690 57 q 719 99 719 69 q 715 121 719 108 l 642 306 l 289 306 l 217 122 q 211 99 211 106 q 244 58 211 72 l 347 21 l 347 0 l 28 0 l 28 21 l 101 56 q 143 108 128 69 l 488 972 l 619 972 l 964 108 q 981 74 972 88 q 1001 54 989 61 l 1065 21 m 624 353 l 464 756 l 307 353 l 624 353 m 553 1029 q 438 1072 485 1029 q 392 1178 392 1114 q 438 1285 392 1243 q 553 1328 485 1328 q 667 1285 621 1328 q 714 1178 714 1243 q 667 1072 714 1114 q 553 1029 621 1029 m 553 1074 q 627 1101 599 1074 q 656 1178 656 1129 q 626 1254 656 1225 q 553 1283 597 1283 q 480 1254 508 1283 q 451 1178 451 1225 q 480 1101 451 1129 q 553 1074 508 1074 z "},"Æ":{"ha":1428,"x_min":0,"x_max":1400,"o":"m 1400 244 l 1356 0 l 590 0 l 590 21 l 669 47 q 710 103 710 60 l 710 306 l 344 306 l 217 122 q 207 97 207 108 q 244 58 207 74 l 347 18 l 347 0 l 0 0 l 0 18 l 88 61 q 144 108 125 79 l 694 910 q 669 925 686 921 l 590 951 l 590 972 l 1342 972 l 1386 728 l 1365 728 l 1251 889 q 1226 916 1239 907 q 1194 925 1213 925 l 943 925 l 943 556 l 1088 556 q 1143 594 1126 556 l 1192 699 l 1213 699 l 1213 365 l 1192 365 l 1143 469 q 1088 508 1126 508 l 943 508 l 943 103 q 958 63 943 78 q 997 47 974 47 l 1208 47 q 1240 56 1226 47 q 1265 83 1253 65 l 1379 244 l 1400 244 m 710 353 l 710 829 l 378 353 l 710 353 z "},"Ç":{"ha":918,"x_min":42,"x_max":888,"o":"m 514 -17 l 485 -71 q 586 -110 542 -83 q 631 -182 631 -137 q 580 -276 631 -244 q 444 -307 529 -307 q 375 -303 410 -307 l 375 -282 q 504 -211 504 -285 q 478 -168 504 -186 q 403 -140 451 -150 l 475 -15 q 244 60 342 -7 q 94 234 146 126 q 42 472 42 342 q 108 735 42 617 q 290 921 174 853 q 554 989 407 989 q 719 975 632 989 q 850 939 806 961 l 851 731 l 831 731 q 726 889 797 831 q 556 947 654 947 q 344 842 411 947 q 278 554 278 738 q 313 313 278 418 q 418 150 349 208 q 583 92 488 92 q 758 143 688 92 q 867 274 829 194 l 888 264 q 824 138 868 201 q 701 28 779 74 q 515 -17 624 -17 l 514 -17 z "},"È":{"ha":872,"x_min":35,"x_max":844,"o":"m 844 244 l 800 0 l 35 0 l 35 21 l 114 47 q 154 103 154 60 l 154 869 q 114 925 154 913 l 35 951 l 35 972 l 786 972 l 831 728 l 810 728 l 696 889 q 670 916 683 907 q 639 925 657 925 l 388 925 l 388 556 l 532 556 q 588 594 571 556 l 636 699 l 657 699 l 657 365 l 636 365 l 588 469 q 532 508 571 508 l 388 508 l 388 103 q 403 63 388 78 q 442 47 418 47 l 653 47 q 684 56 671 47 q 710 83 697 65 l 824 244 l 844 244 m 238 1256 l 411 1256 l 506 1046 l 460 1046 l 238 1256 z "},"É":{"ha":872,"x_min":35,"x_max":844,"o":"m 844 244 l 800 0 l 35 0 l 35 21 l 114 47 q 154 103 154 60 l 154 869 q 114 925 154 913 l 35 951 l 35 972 l 786 972 l 831 728 l 810 728 l 696 889 q 670 916 683 907 q 639 925 657 925 l 388 925 l 388 556 l 532 556 q 588 594 571 556 l 636 699 l 657 699 l 657 365 l 636 365 l 588 469 q 532 508 571 508 l 388 508 l 388 103 q 403 63 388 78 q 442 47 418 47 l 653 47 q 684 56 671 47 q 710 83 697 65 l 824 244 l 844 244 m 393 1046 l 488 1256 l 661 1256 l 439 1046 l 393 1046 z "},"Ê":{"ha":872,"x_min":35,"x_max":844,"o":"m 844 244 l 800 0 l 35 0 l 35 21 l 114 47 q 154 103 154 60 l 154 869 q 114 925 154 913 l 35 951 l 35 972 l 786 972 l 831 728 l 810 728 l 696 889 q 670 916 683 907 q 639 925 657 925 l 388 925 l 388 556 l 532 556 q 588 594 571 556 l 636 699 l 657 699 l 657 365 l 636 365 l 588 469 q 532 508 571 508 l 388 508 l 388 103 q 403 63 388 78 q 442 47 418 47 l 653 47 q 684 56 671 47 q 710 83 697 65 l 824 244 l 844 244 m 619 1046 l 426 1183 l 236 1046 l 197 1046 l 325 1256 l 526 1256 l 669 1046 l 619 1046 z "},"Ë":{"ha":872,"x_min":35,"x_max":844,"o":"m 844 244 l 800 0 l 35 0 l 35 21 l 114 47 q 154 103 154 60 l 154 869 q 114 925 154 913 l 35 951 l 35 972 l 786 972 l 831 728 l 810 728 l 696 889 q 670 916 683 907 q 639 925 657 925 l 388 925 l 388 556 l 532 556 q 588 594 571 556 l 636 699 l 657 699 l 657 365 l 636 365 l 588 469 q 532 508 571 508 l 388 508 l 388 103 q 403 63 388 78 q 442 47 418 47 l 653 47 q 684 56 671 47 q 710 83 697 65 l 824 244 l 844 244 m 290 1057 q 202 1089 239 1057 q 165 1169 165 1121 q 202 1249 165 1217 q 290 1281 239 1281 q 378 1249 342 1281 q 415 1169 415 1217 q 378 1089 415 1121 q 290 1057 342 1057 m 576 1057 q 488 1089 525 1057 q 451 1169 451 1121 q 488 1249 451 1217 q 576 1281 525 1281 q 665 1249 628 1281 q 701 1169 701 1217 q 665 1089 701 1121 q 576 1057 628 1057 z "},"Ì":{"ha":542,"x_min":35,"x_max":507,"o":"m 35 21 l 114 47 q 154 103 154 60 l 154 869 q 114 925 154 913 l 35 951 l 35 972 l 507 972 l 507 951 l 428 925 q 388 869 388 913 l 388 103 q 428 47 388 60 l 507 21 l 507 0 l 35 0 l 35 21 m 75 1256 l 249 1256 l 343 1046 l 297 1046 l 75 1256 z "},"Í":{"ha":542,"x_min":35,"x_max":507,"o":"m 35 21 l 114 47 q 154 103 154 60 l 154 869 q 114 925 154 913 l 35 951 l 35 972 l 507 972 l 507 951 l 428 925 q 388 869 388 913 l 388 103 q 428 47 388 60 l 507 21 l 507 0 l 35 0 l 35 21 m 231 1046 l 325 1256 l 499 1256 l 276 1046 l 231 1046 z "},"Î":{"ha":542,"x_min":35,"x_max":507,"o":"m 35 21 l 114 47 q 154 103 154 60 l 154 869 q 114 925 154 913 l 35 951 l 35 972 l 507 972 l 507 951 l 428 925 q 388 869 388 913 l 388 103 q 428 47 388 60 l 507 21 l 507 0 l 35 0 l 35 21 m 457 1046 l 264 1183 l 74 1046 l 35 1046 l 163 1256 l 364 1256 l 507 1046 l 457 1046 z "},"Ï":{"ha":542,"x_min":3,"x_max":539,"o":"m 35 21 l 114 47 q 154 103 154 60 l 154 869 q 114 925 154 913 l 35 951 l 35 972 l 507 972 l 507 951 l 428 925 q 388 869 388 913 l 388 103 q 428 47 388 60 l 507 21 l 507 0 l 35 0 l 35 21 m 128 1057 q 40 1089 76 1057 q 3 1169 3 1121 q 40 1249 3 1217 q 128 1281 76 1281 q 216 1249 179 1281 q 253 1169 253 1217 q 216 1089 253 1121 q 128 1057 179 1057 m 414 1057 q 326 1089 363 1057 q 289 1169 289 1121 q 326 1249 289 1217 q 414 1281 363 1281 q 502 1249 465 1281 q 539 1169 539 1217 q 502 1089 539 1121 q 414 1057 465 1057 z "},"Ð":{"ha":1044,"x_min":35,"x_max":1011,"o":"m 474 972 q 777 909 657 972 q 954 743 897 846 q 1011 518 1011 640 q 941 243 1011 361 q 753 63 871 125 q 493 0 635 0 l 35 0 l 35 21 l 118 51 q 154 108 154 65 l 154 465 l 53 465 l 53 507 l 154 507 l 154 863 q 118 919 154 906 l 35 951 l 35 972 l 474 972 m 493 47 q 695 163 624 47 q 767 486 767 279 q 730 699 767 599 q 622 863 693 800 q 450 925 550 925 l 386 925 l 386 507 l 542 507 l 542 465 l 386 465 l 386 139 q 410 73 386 99 q 493 47 435 47 z "},"Ñ":{"ha":1039,"x_min":35,"x_max":1004,"o":"m 1004 972 l 1004 951 l 917 926 q 875 872 875 914 l 875 0 l 825 0 l 229 753 l 229 113 q 269 57 229 71 l 374 21 l 374 0 l 38 0 l 38 21 l 128 56 q 167 113 167 71 l 167 832 q 107 906 129 883 q 57 942 85 929 l 35 951 l 35 972 l 356 972 l 815 388 l 815 872 q 774 925 815 915 l 667 951 l 667 972 l 1004 972 m 278 1046 q 322 1184 279 1129 q 425 1239 365 1239 q 483 1231 453 1239 q 571 1201 513 1222 q 656 1176 633 1176 q 701 1194 686 1176 q 729 1256 717 1211 l 760 1243 q 713 1101 754 1157 q 617 1046 672 1046 q 544 1055 578 1046 q 467 1081 510 1064 q 374 1106 407 1106 q 331 1090 344 1106 q 307 1033 317 1075 l 278 1046 z "},"Ò":{"ha":1043,"x_min":42,"x_max":1001,"o":"m 526 989 q 784 923 676 989 q 947 747 892 857 q 1001 508 1001 636 q 939 235 1001 356 q 766 49 876 115 q 519 -17 656 -17 q 260 50 368 -17 q 97 226 151 117 q 42 465 42 336 q 105 738 42 619 q 278 923 168 857 q 526 989 389 989 m 507 940 q 387 885 439 940 q 306 730 335 829 q 278 503 278 631 q 308 272 278 379 q 398 98 339 164 q 539 32 457 32 q 657 86 606 32 q 737 238 708 140 q 765 461 765 336 q 736 698 765 589 q 649 874 707 807 q 507 940 590 940 m 326 1256 l 500 1256 l 594 1046 l 549 1046 l 326 1256 z "},"Ó":{"ha":1043,"x_min":42,"x_max":1001,"o":"m 526 989 q 784 923 676 989 q 947 747 892 857 q 1001 508 1001 636 q 939 235 1001 356 q 766 49 876 115 q 519 -17 656 -17 q 260 50 368 -17 q 97 226 151 117 q 42 465 42 336 q 105 738 42 619 q 278 923 168 857 q 526 989 389 989 m 507 940 q 387 885 439 940 q 306 730 335 829 q 278 503 278 631 q 308 272 278 379 q 398 98 339 164 q 539 32 457 32 q 657 86 606 32 q 737 238 708 140 q 765 461 765 336 q 736 698 765 589 q 649 874 707 807 q 507 940 590 940 m 482 1046 l 576 1256 l 750 1256 l 528 1046 l 482 1046 z "},"Ô":{"ha":1043,"x_min":42,"x_max":1001,"o":"m 526 989 q 784 923 676 989 q 947 747 892 857 q 1001 508 1001 636 q 939 235 1001 356 q 766 49 876 115 q 519 -17 656 -17 q 260 50 368 -17 q 97 226 151 117 q 42 465 42 336 q 105 738 42 619 q 278 923 168 857 q 526 989 389 989 m 507 940 q 387 885 439 940 q 306 730 335 829 q 278 503 278 631 q 308 272 278 379 q 398 98 339 164 q 539 32 457 32 q 657 86 606 32 q 737 238 708 140 q 765 461 765 336 q 736 698 765 589 q 649 874 707 807 q 507 940 590 940 m 708 1046 l 515 1183 l 325 1046 l 286 1046 l 414 1256 l 615 1256 l 758 1046 l 708 1046 z "},"Õ":{"ha":1043,"x_min":42,"x_max":1001,"o":"m 526 989 q 784 923 676 989 q 947 747 892 857 q 1001 508 1001 636 q 939 235 1001 356 q 766 49 876 115 q 519 -17 656 -17 q 260 50 368 -17 q 97 226 151 117 q 42 465 42 336 q 105 738 42 619 q 278 923 168 857 q 526 989 389 989 m 507 940 q 387 885 439 940 q 306 730 335 829 q 278 503 278 631 q 308 272 278 379 q 398 98 339 164 q 539 32 457 32 q 657 86 606 32 q 737 238 708 140 q 765 461 765 336 q 736 698 765 589 q 649 874 707 807 q 507 940 590 940 m 281 1046 q 325 1184 282 1129 q 428 1239 368 1239 q 485 1231 456 1239 q 574 1201 515 1222 q 658 1176 636 1176 q 704 1194 689 1176 q 732 1256 719 1211 l 763 1243 q 716 1101 757 1157 q 619 1046 675 1046 q 547 1055 581 1046 q 469 1081 513 1064 q 376 1106 410 1106 q 333 1090 347 1106 q 310 1033 319 1075 l 281 1046 z "},"Ö":{"ha":1043,"x_min":42,"x_max":1001,"o":"m 526 989 q 784 923 676 989 q 947 747 892 857 q 1001 508 1001 636 q 939 235 1001 356 q 766 49 876 115 q 519 -17 656 -17 q 260 50 368 -17 q 97 226 151 117 q 42 465 42 336 q 105 738 42 619 q 278 923 168 857 q 526 989 389 989 m 507 940 q 387 885 439 940 q 306 730 335 829 q 278 503 278 631 q 308 272 278 379 q 398 98 339 164 q 539 32 457 32 q 657 86 606 32 q 737 238 708 140 q 765 461 765 336 q 736 698 765 589 q 649 874 707 807 q 507 940 590 940 m 379 1057 q 291 1089 328 1057 q 254 1169 254 1121 q 291 1249 254 1217 q 379 1281 328 1281 q 467 1249 431 1281 q 504 1169 504 1217 q 467 1089 504 1121 q 379 1057 431 1057 m 665 1057 q 577 1089 614 1057 q 540 1169 540 1121 q 577 1249 540 1217 q 665 1281 614 1281 q 753 1249 717 1281 q 790 1169 790 1217 q 753 1089 790 1121 q 665 1057 717 1057 z "},"×":{"ha":607,"x_min":69,"x_max":538,"o":"m 335 465 l 536 264 l 503 231 l 301 432 l 103 233 l 69 267 l 268 465 l 69 665 l 103 699 l 303 499 l 504 700 l 538 667 l 335 465 z "},"Ø":{"ha":1043,"x_min":42,"x_max":1001,"o":"m 849 875 q 963 713 924 808 q 1001 508 1001 617 q 939 235 1001 356 q 766 49 876 115 q 519 -17 656 -17 q 239 64 357 -17 l 113 -104 l 71 -71 l 197 96 q 81 260 121 164 q 42 465 42 357 q 105 738 42 619 q 278 923 168 857 q 526 989 389 989 q 807 908 689 989 l 932 1075 l 974 1042 l 849 875 m 278 503 q 314 253 278 368 l 708 778 q 624 897 675 854 q 507 940 574 940 q 387 885 439 940 q 306 730 335 829 q 278 503 278 631 m 539 32 q 657 86 606 32 q 737 238 708 140 q 765 461 765 336 q 731 718 765 606 l 338 194 q 423 75 372 118 q 539 32 474 32 z "},"Ù":{"ha":1060,"x_min":35,"x_max":1025,"o":"m 1025 972 l 1025 951 l 940 926 q 899 872 899 914 l 899 347 q 814 74 899 169 q 563 -21 729 -21 q 255 73 356 -21 q 154 342 154 167 l 154 869 q 114 925 154 913 l 35 951 l 35 972 l 507 972 l 507 951 l 428 925 q 404 906 410 919 q 399 868 399 893 l 399 325 q 444 122 399 188 q 599 57 490 57 q 772 126 708 57 q 836 331 836 194 l 836 871 q 831 904 836 892 q 808 921 825 917 l 700 951 l 700 972 l 1025 972 m 376 1256 l 550 1256 l 644 1046 l 599 1046 l 376 1256 z "},"Ú":{"ha":1060,"x_min":35,"x_max":1025,"o":"m 1025 972 l 1025 951 l 940 926 q 899 872 899 914 l 899 347 q 814 74 899 169 q 563 -21 729 -21 q 255 73 356 -21 q 154 342 154 167 l 154 869 q 114 925 154 913 l 35 951 l 35 972 l 507 972 l 507 951 l 428 925 q 404 906 410 919 q 399 868 399 893 l 399 325 q 444 122 399 188 q 599 57 490 57 q 772 126 708 57 q 836 331 836 194 l 836 871 q 831 904 836 892 q 808 921 825 917 l 700 951 l 700 972 l 1025 972 m 532 1046 l 626 1256 l 800 1256 l 578 1046 l 532 1046 z "},"Û":{"ha":1060,"x_min":35,"x_max":1025,"o":"m 1025 972 l 1025 951 l 940 926 q 899 872 899 914 l 899 347 q 814 74 899 169 q 563 -21 729 -21 q 255 73 356 -21 q 154 342 154 167 l 154 869 q 114 925 154 913 l 35 951 l 35 972 l 507 972 l 507 951 l 428 925 q 404 906 410 919 q 399 868 399 893 l 399 325 q 444 122 399 188 q 599 57 490 57 q 772 126 708 57 q 836 331 836 194 l 836 871 q 831 904 836 892 q 808 921 825 917 l 700 951 l 700 972 l 1025 972 m 758 1046 l 565 1183 l 375 1046 l 336 1046 l 464 1256 l 665 1256 l 808 1046 l 758 1046 z "},"Ü":{"ha":1060,"x_min":35,"x_max":1025,"o":"m 1025 972 l 1025 951 l 940 926 q 899 872 899 914 l 899 347 q 814 74 899 169 q 563 -21 729 -21 q 255 73 356 -21 q 154 342 154 167 l 154 869 q 114 925 154 913 l 35 951 l 35 972 l 507 972 l 507 951 l 428 925 q 404 906 410 919 q 399 868 399 893 l 399 325 q 444 122 399 188 q 599 57 490 57 q 772 126 708 57 q 836 331 836 194 l 836 871 q 831 904 836 892 q 808 921 825 917 l 700 951 l 700 972 l 1025 972 m 429 1057 q 341 1089 378 1057 q 304 1169 304 1121 q 341 1249 304 1217 q 429 1281 378 1281 q 517 1249 481 1281 q 554 1169 554 1217 q 517 1089 554 1121 q 429 1057 481 1057 m 715 1057 q 627 1089 664 1057 q 590 1169 590 1121 q 627 1249 590 1217 q 715 1281 664 1281 q 803 1249 767 1281 q 840 1169 840 1217 q 803 1089 840 1121 q 715 1057 767 1057 z "},"Ý":{"ha":939,"x_min":7,"x_max":932,"o":"m 932 951 l 861 926 q 813 882 826 914 l 594 417 l 594 100 q 635 46 594 58 l 715 21 l 715 0 l 242 0 l 242 21 l 321 46 q 361 100 361 58 l 361 382 l 110 883 q 64 929 90 919 l 7 951 l 7 972 l 443 972 l 443 951 l 383 932 q 356 915 367 926 q 346 890 346 904 q 351 868 346 879 l 547 456 l 739 868 q 744 893 744 881 q 713 931 744 918 l 656 951 l 656 972 l 932 972 l 932 951 m 460 1046 l 554 1256 l 728 1256 l 506 1046 l 460 1046 z "},"Þ":{"ha":881,"x_min":35,"x_max":847,"o":"m 388 247 l 388 103 q 428 47 388 60 l 507 21 l 507 0 l 35 0 l 35 21 l 114 47 q 154 103 154 60 l 154 869 q 114 925 154 913 l 35 951 l 35 972 l 507 972 l 507 951 l 428 925 q 388 869 388 913 l 388 775 l 469 775 q 753 714 658 775 q 847 517 847 653 q 751 314 847 381 q 469 247 654 247 l 388 247 m 388 728 l 388 294 l 432 294 q 562 356 515 294 q 608 517 608 418 q 565 674 608 619 q 432 728 521 728 l 388 728 z "},"ß":{"ha":1000,"x_min":22,"x_max":961,"o":"m 961 213 q 926 94 961 146 q 830 13 892 42 q 689 -17 768 -17 q 492 40 578 -17 q 386 193 407 96 l 574 193 q 610 68 579 113 q 696 24 642 24 q 769 54 739 24 q 799 135 799 85 q 760 217 799 186 q 644 286 722 249 q 539 344 579 318 q 470 413 499 371 q 442 515 442 454 q 457 583 442 556 q 495 628 472 611 q 558 669 518 646 q 628 714 601 693 q 672 769 654 735 q 690 854 690 803 q 644 967 690 925 q 524 1008 599 1008 q 388 938 436 1008 q 340 749 340 867 l 340 0 l 29 0 l 29 21 l 75 38 q 114 93 114 51 l 114 669 l 22 669 l 22 711 l 114 711 l 114 714 q 181 917 114 840 q 340 1024 247 993 q 519 1054 433 1054 q 806 996 703 1054 q 908 840 908 938 q 884 751 908 785 q 824 701 860 717 q 733 669 789 685 q 640 633 671 651 q 610 574 610 615 q 641 514 610 536 q 742 460 672 492 q 853 403 808 431 q 930 329 899 376 q 961 213 961 282 z "},"à":{"ha":794,"x_min":35,"x_max":774,"o":"m 774 42 l 774 21 l 501 -17 l 453 -17 l 453 122 q 358 19 411 54 q 238 -17 306 -17 q 90 35 146 -17 q 35 174 35 88 q 122 340 35 276 q 372 419 208 403 l 453 428 l 453 493 q 427 635 453 583 q 360 686 401 686 q 273 628 299 686 q 250 492 247 571 l 38 492 q 89 619 40 565 q 214 700 138 672 q 378 728 290 728 q 601 654 525 728 q 678 447 678 581 l 678 121 q 715 64 678 79 l 774 42 m 356 104 q 453 165 410 104 l 453 388 l 399 378 q 303 323 338 368 q 268 210 268 278 q 293 134 268 164 q 356 104 318 104 m 185 994 l 358 994 l 453 785 l 407 785 l 185 994 z "},"á":{"ha":794,"x_min":35,"x_max":774,"o":"m 774 42 l 774 21 l 501 -17 l 453 -17 l 453 122 q 358 19 411 54 q 238 -17 306 -17 q 90 35 146 -17 q 35 174 35 88 q 122 340 35 276 q 372 419 208 403 l 453 428 l 453 493 q 427 635 453 583 q 360 686 401 686 q 273 628 299 686 q 250 492 247 571 l 38 492 q 89 619 40 565 q 214 700 138 672 q 378 728 290 728 q 601 654 525 728 q 678 447 678 581 l 678 121 q 715 64 678 79 l 774 42 m 356 104 q 453 165 410 104 l 453 388 l 399 378 q 303 323 338 368 q 268 210 268 278 q 293 134 268 164 q 356 104 318 104 m 340 785 l 435 994 l 608 994 l 386 785 l 340 785 z "},"â":{"ha":794,"x_min":35,"x_max":774,"o":"m 774 42 l 774 21 l 501 -17 l 453 -17 l 453 122 q 358 19 411 54 q 238 -17 306 -17 q 90 35 146 -17 q 35 174 35 88 q 122 340 35 276 q 372 419 208 403 l 453 428 l 453 493 q 427 635 453 583 q 360 686 401 686 q 273 628 299 686 q 250 492 247 571 l 38 492 q 89 619 40 565 q 214 700 138 672 q 378 728 290 728 q 601 654 525 728 q 678 447 678 581 l 678 121 q 715 64 678 79 l 774 42 m 356 104 q 453 165 410 104 l 453 388 l 399 378 q 303 323 338 368 q 268 210 268 278 q 293 134 268 164 q 356 104 318 104 m 567 785 l 374 922 l 183 785 l 144 785 l 272 994 l 474 994 l 617 785 l 567 785 z "},"ã":{"ha":794,"x_min":35,"x_max":774,"o":"m 774 42 l 774 21 l 501 -17 l 453 -17 l 453 122 q 358 19 411 54 q 238 -17 306 -17 q 90 35 146 -17 q 35 174 35 88 q 122 340 35 276 q 372 419 208 403 l 453 428 l 453 493 q 427 635 453 583 q 360 686 401 686 q 273 628 299 686 q 250 492 247 571 l 38 492 q 89 619 40 565 q 214 700 138 672 q 378 728 290 728 q 601 654 525 728 q 678 447 678 581 l 678 121 q 715 64 678 79 l 774 42 m 356 104 q 453 165 410 104 l 453 388 l 399 378 q 303 323 338 368 q 268 210 268 278 q 293 134 268 164 q 356 104 318 104 m 139 785 q 183 923 140 868 q 286 978 226 978 q 344 969 314 978 q 432 940 374 961 q 517 915 494 915 q 563 933 547 915 q 590 994 578 950 l 621 982 q 574 840 615 896 q 478 785 533 785 q 405 794 439 785 q 328 819 371 803 q 235 844 268 844 q 192 829 206 844 q 168 772 178 814 l 139 785 z "},"ä":{"ha":794,"x_min":35,"x_max":774,"o":"m 774 42 l 774 21 l 501 -17 l 453 -17 l 453 122 q 358 19 411 54 q 238 -17 306 -17 q 90 35 146 -17 q 35 174 35 88 q 122 340 35 276 q 372 419 208 403 l 453 428 l 453 493 q 427 635 453 583 q 360 686 401 686 q 273 628 299 686 q 250 492 247 571 l 38 492 q 89 619 40 565 q 214 700 138 672 q 378 728 290 728 q 601 654 525 728 q 678 447 678 581 l 678 121 q 715 64 678 79 l 774 42 m 356 104 q 453 165 410 104 l 453 388 l 399 378 q 303 323 338 368 q 268 210 268 278 q 293 134 268 164 q 356 104 318 104 m 238 796 q 149 828 186 796 q 113 908 113 860 q 149 988 113 956 q 238 1019 186 1019 q 326 988 289 1019 q 363 908 363 956 q 326 828 363 860 q 238 796 289 796 m 524 796 q 435 828 472 796 q 399 908 399 860 q 435 988 399 956 q 524 1019 472 1019 q 612 988 575 1019 q 649 908 649 956 q 612 828 649 860 q 524 796 575 796 z "},"å":{"ha":794,"x_min":35,"x_max":774,"o":"m 774 42 l 774 21 l 501 -17 l 453 -17 l 453 122 q 358 19 411 54 q 238 -17 306 -17 q 90 35 146 -17 q 35 174 35 88 q 122 340 35 276 q 372 419 208 403 l 453 428 l 453 493 q 427 635 453 583 q 360 686 401 686 q 273 628 299 686 q 250 492 247 571 l 38 492 q 89 619 40 565 q 214 700 138 672 q 378 728 290 728 q 601 654 525 728 q 678 447 678 581 l 678 121 q 715 64 678 79 l 774 42 m 356 104 q 453 165 410 104 l 453 388 l 399 378 q 303 323 338 368 q 268 210 268 278 q 293 134 268 164 q 356 104 318 104 m 381 768 q 266 810 313 768 q 219 917 219 853 q 266 1024 219 982 q 381 1067 313 1067 q 495 1024 449 1067 q 542 917 542 982 q 495 810 542 853 q 381 768 449 768 m 381 813 q 455 840 426 813 q 483 917 483 868 q 454 993 483 964 q 381 1022 425 1022 q 308 993 336 1022 q 279 917 279 964 q 308 840 279 868 q 381 813 336 813 z "},"æ":{"ha":1168,"x_min":35,"x_max":1126,"o":"m 925 139 q 1026 165 978 139 q 1101 235 1075 190 l 1125 225 q 1009 53 1094 122 q 797 -17 924 -17 q 610 31 686 -17 q 493 160 533 79 q 384 32 457 81 q 238 -17 311 -17 q 90 35 146 -17 q 35 174 35 88 q 122 340 35 276 q 372 419 208 403 l 453 428 l 453 493 q 427 635 453 583 q 360 686 401 686 q 273 628 299 686 q 250 492 247 571 l 38 492 q 89 619 40 565 q 214 700 138 672 q 378 728 290 728 q 593 658 517 728 q 818 728 686 728 q 1051 647 978 728 q 1126 404 1125 567 l 669 404 q 709 258 672 318 q 803 168 746 197 q 925 139 861 139 m 794 686 q 708 624 742 686 q 669 446 674 561 l 906 446 q 874 624 903 563 q 794 686 846 686 m 349 104 q 423 125 388 104 q 482 183 458 146 q 453 336 453 254 l 453 388 l 399 378 q 303 323 338 368 q 268 210 268 278 q 292 134 268 164 q 349 104 315 104 z "},"ç":{"ha":715,"x_min":35,"x_max":701,"o":"m 383 -17 l 354 -71 q 456 -110 411 -83 q 500 -182 500 -137 q 449 -276 500 -244 q 314 -307 399 -307 q 244 -303 281 -307 l 244 -282 q 374 -211 374 -285 q 347 -168 374 -186 q 272 -140 321 -150 l 344 -15 q 176 46 246 -6 q 71 176 107 97 q 35 347 35 254 q 76 538 35 451 q 199 676 117 624 q 397 728 281 728 q 528 717 460 728 q 635 689 597 706 l 635 451 l 614 451 q 576 574 607 519 q 499 658 544 628 q 407 688 454 688 q 288 617 326 688 q 249 440 249 547 q 277 263 249 339 q 358 144 306 186 q 476 103 410 103 q 595 133 543 103 q 676 224 647 163 l 701 214 q 585 44 665 106 q 388 -17 504 -17 l 383 -17 z "},"è":{"ha":750,"x_min":35,"x_max":708,"o":"m 507 139 q 608 165 560 139 q 683 235 657 190 l 707 225 q 591 53 676 122 q 379 -17 506 -17 q 189 33 267 -17 q 73 163 111 82 q 35 339 35 244 q 80 544 35 457 q 208 680 125 632 q 400 728 290 728 q 633 647 560 728 q 708 404 707 567 l 251 404 q 291 258 254 318 q 385 168 328 197 q 507 139 443 139 m 376 686 q 290 624 324 686 q 251 446 256 561 l 488 446 q 456 624 485 563 q 376 686 428 686 m 201 994 l 375 994 l 469 785 l 424 785 l 201 994 z "},"é":{"ha":750,"x_min":35,"x_max":708,"o":"m 507 139 q 608 165 560 139 q 683 235 657 190 l 707 225 q 591 53 676 122 q 379 -17 506 -17 q 189 33 267 -17 q 73 163 111 82 q 35 339 35 244 q 80 544 35 457 q 208 680 125 632 q 400 728 290 728 q 633 647 560 728 q 708 404 707 567 l 251 404 q 291 258 254 318 q 385 168 328 197 q 507 139 443 139 m 376 686 q 290 624 324 686 q 251 446 256 561 l 488 446 q 456 624 485 563 q 376 686 428 686 m 357 785 l 451 994 l 625 994 l 403 785 l 357 785 z "},"ê":{"ha":750,"x_min":35,"x_max":708,"o":"m 507 139 q 608 165 560 139 q 683 235 657 190 l 707 225 q 591 53 676 122 q 379 -17 506 -17 q 189 33 267 -17 q 73 163 111 82 q 35 339 35 244 q 80 544 35 457 q 208 680 125 632 q 400 728 290 728 q 633 647 560 728 q 708 404 707 567 l 251 404 q 291 258 254 318 q 385 168 328 197 q 507 139 443 139 m 376 686 q 290 624 324 686 q 251 446 256 561 l 488 446 q 456 624 485 563 q 376 686 428 686 m 583 785 l 390 922 l 200 785 l 161 785 l 289 994 l 490 994 l 633 785 l 583 785 z "},"ë":{"ha":750,"x_min":35,"x_max":708,"o":"m 507 139 q 608 165 560 139 q 683 235 657 190 l 707 225 q 591 53 676 122 q 379 -17 506 -17 q 189 33 267 -17 q 73 163 111 82 q 35 339 35 244 q 80 544 35 457 q 208 680 125 632 q 400 728 290 728 q 633 647 560 728 q 708 404 707 567 l 251 404 q 291 258 254 318 q 385 168 328 197 q 507 139 443 139 m 376 686 q 290 624 324 686 q 251 446 256 561 l 488 446 q 456 624 485 563 q 376 686 428 686 m 254 796 q 166 828 203 796 q 129 908 129 860 q 166 988 129 956 q 254 1019 203 1019 q 342 988 306 1019 q 379 908 379 956 q 342 828 379 860 q 254 796 306 796 m 540 796 q 452 828 489 796 q 415 908 415 860 q 452 988 415 956 q 540 1019 489 1019 q 628 988 592 1019 q 665 908 665 956 q 628 828 665 860 q 540 796 592 796 z "},"ì":{"ha":461,"x_min":7,"x_max":433,"o":"m 433 21 l 433 0 l 39 0 l 39 21 l 85 38 q 124 93 124 51 l 124 590 q 86 647 124 633 l 28 669 l 28 690 l 300 728 l 349 728 l 349 93 q 388 38 349 51 l 433 21 m 7 997 l 181 997 l 275 788 l 229 788 l 7 997 z "},"í":{"ha":461,"x_min":28,"x_max":436,"o":"m 433 21 l 433 0 l 39 0 l 39 21 l 85 38 q 124 93 124 51 l 124 590 q 86 647 124 633 l 28 669 l 28 690 l 300 728 l 349 728 l 349 93 q 388 38 349 51 l 433 21 m 168 788 l 263 997 l 436 997 l 214 788 l 168 788 z "},"î":{"ha":461,"x_min":-31,"x_max":442,"o":"m 433 21 l 433 0 l 39 0 l 39 21 l 85 38 q 124 93 124 51 l 124 590 q 86 647 124 633 l 28 669 l 28 690 l 300 728 l 349 728 l 349 93 q 388 38 349 51 l 433 21 m 392 788 l 199 925 l 8 788 l -31 788 l 97 997 l 299 997 l 442 788 l 392 788 z "},"ï":{"ha":461,"x_min":-58,"x_max":478,"o":"m 433 21 l 433 0 l 39 0 l 39 21 l 85 38 q 124 93 124 51 l 124 590 q 86 647 124 633 l 28 669 l 28 690 l 300 728 l 349 728 l 349 93 q 388 38 349 51 l 433 21 m 67 788 q -22 819 15 788 q -58 900 -58 851 q -22 979 -58 947 q 67 1011 15 1011 q 155 979 118 1011 q 192 900 192 947 q 155 819 192 851 q 67 788 118 788 m 353 788 q 265 819 301 788 q 228 900 228 851 q 265 979 228 947 q 353 1011 301 1011 q 441 979 404 1011 q 478 900 478 947 q 441 819 478 851 q 353 788 404 788 z "},"ð":{"ha":826,"x_min":35,"x_max":792,"o":"m 790 399 q 792 354 792 385 q 739 163 792 247 q 598 31 686 78 q 406 -17 510 -17 q 212 29 296 -17 q 81 159 128 75 q 35 354 35 243 q 87 548 35 463 q 226 681 139 633 q 417 728 314 728 q 507 719 464 728 q 392 896 472 819 l 172 786 l 151 831 l 353 931 q 176 1031 278 992 l 189 1068 q 429 969 324 1032 l 626 1068 l 647 1024 l 476 939 q 699 708 615 844 q 790 399 782 571 m 431 25 q 495 60 467 25 q 540 159 524 96 q 557 303 557 222 q 539 478 557 389 q 484 626 521 567 q 396 686 447 686 q 331 651 360 686 q 285 552 301 615 q 268 408 268 489 q 287 233 268 322 q 342 85 306 144 q 431 25 379 25 z "},"ñ":{"ha":904,"x_min":28,"x_max":876,"o":"m 876 21 l 876 0 l 482 0 l 482 21 l 528 38 q 567 93 567 51 l 567 561 q 555 600 567 585 q 524 615 543 615 q 453 598 490 615 q 349 536 417 581 l 349 93 q 388 38 349 51 l 433 21 l 433 0 l 39 0 l 39 21 l 85 38 q 124 93 124 51 l 124 590 q 86 647 124 633 l 28 669 l 28 690 l 300 728 l 349 728 l 349 593 q 533 696 461 664 q 657 728 604 728 q 756 683 719 728 q 792 561 792 639 l 792 93 q 831 38 792 51 l 876 21 m 204 788 q 249 926 206 871 q 351 981 292 981 q 409 972 379 981 q 497 943 439 964 q 582 918 560 918 q 628 935 613 918 q 656 997 643 953 l 686 985 q 640 843 681 899 q 543 788 599 788 q 470 797 504 788 q 393 822 436 806 q 300 847 333 847 q 257 832 271 847 q 233 775 243 817 l 204 788 z "},"ò":{"ha":826,"x_min":35,"x_max":792,"o":"m 406 -17 q 212 29 296 -17 q 81 159 128 75 q 35 354 35 243 q 87 548 35 463 q 226 681 139 633 q 417 728 314 728 q 613 681 528 728 q 744 550 697 635 q 792 354 792 465 q 739 163 792 247 q 598 31 686 78 q 406 -17 510 -17 m 431 25 q 495 60 467 25 q 540 159 524 96 q 557 303 557 222 q 539 478 557 389 q 484 626 521 567 q 396 686 447 686 q 331 651 360 686 q 285 552 301 615 q 268 408 268 489 q 287 233 268 322 q 342 85 306 144 q 431 25 379 25 m 213 994 l 386 994 l 481 785 l 435 785 l 213 994 z "},"ó":{"ha":826,"x_min":35,"x_max":792,"o":"m 406 -17 q 212 29 296 -17 q 81 159 128 75 q 35 354 35 243 q 87 548 35 463 q 226 681 139 633 q 417 728 314 728 q 613 681 528 728 q 744 550 697 635 q 792 354 792 465 q 739 163 792 247 q 598 31 686 78 q 406 -17 510 -17 m 431 25 q 495 60 467 25 q 540 159 524 96 q 557 303 557 222 q 539 478 557 389 q 484 626 521 567 q 396 686 447 686 q 331 651 360 686 q 285 552 301 615 q 268 408 268 489 q 287 233 268 322 q 342 85 306 144 q 431 25 379 25 m 368 785 l 463 994 l 636 994 l 414 785 l 368 785 z "},"ô":{"ha":826,"x_min":35,"x_max":792,"o":"m 406 -17 q 212 29 296 -17 q 81 159 128 75 q 35 354 35 243 q 87 548 35 463 q 226 681 139 633 q 417 728 314 728 q 613 681 528 728 q 744 550 697 635 q 792 354 792 465 q 739 163 792 247 q 598 31 686 78 q 406 -17 510 -17 m 431 25 q 495 60 467 25 q 540 159 524 96 q 557 303 557 222 q 539 478 557 389 q 484 626 521 567 q 396 686 447 686 q 331 651 360 686 q 285 552 301 615 q 268 408 268 489 q 287 233 268 322 q 342 85 306 144 q 431 25 379 25 m 594 785 l 401 922 l 211 785 l 172 785 l 300 994 l 501 994 l 644 785 l 594 785 z "},"õ":{"ha":826,"x_min":35,"x_max":792,"o":"m 406 -17 q 212 29 296 -17 q 81 159 128 75 q 35 354 35 243 q 87 548 35 463 q 226 681 139 633 q 417 728 314 728 q 613 681 528 728 q 744 550 697 635 q 792 354 792 465 q 739 163 792 247 q 598 31 686 78 q 406 -17 510 -17 m 431 25 q 495 60 467 25 q 540 159 524 96 q 557 303 557 222 q 539 478 557 389 q 484 626 521 567 q 396 686 447 686 q 331 651 360 686 q 285 552 301 615 q 268 408 268 489 q 287 233 268 322 q 342 85 306 144 q 431 25 379 25 m 167 785 q 211 923 168 868 q 314 978 254 978 q 372 969 342 978 q 460 940 401 961 q 544 915 522 915 q 590 933 575 915 q 618 994 606 950 l 649 982 q 602 840 643 896 q 506 785 561 785 q 433 794 467 785 q 356 819 399 803 q 263 844 296 844 q 219 829 233 844 q 196 772 206 814 l 167 785 z "},"ö":{"ha":826,"x_min":35,"x_max":792,"o":"m 406 -17 q 212 29 296 -17 q 81 159 128 75 q 35 354 35 243 q 87 548 35 463 q 226 681 139 633 q 417 728 314 728 q 613 681 528 728 q 744 550 697 635 q 792 354 792 465 q 739 163 792 247 q 598 31 686 78 q 406 -17 510 -17 m 431 25 q 495 60 467 25 q 540 159 524 96 q 557 303 557 222 q 539 478 557 389 q 484 626 521 567 q 396 686 447 686 q 331 651 360 686 q 285 552 301 615 q 268 408 268 489 q 287 233 268 322 q 342 85 306 144 q 431 25 379 25 m 265 796 q 177 828 214 796 q 140 908 140 860 q 177 988 140 956 q 265 1019 214 1019 q 353 988 317 1019 q 390 908 390 956 q 353 828 390 860 q 265 796 317 796 m 551 796 q 463 828 500 796 q 426 908 426 860 q 463 988 426 956 q 551 1019 500 1019 q 640 988 603 1019 q 676 908 676 956 q 640 828 676 860 q 551 796 603 796 z "},"÷":{"ha":753,"x_min":69,"x_max":683,"o":"m 376 617 q 308 644 336 617 q 279 714 279 672 q 308 783 279 754 q 376 811 336 811 q 447 783 421 811 q 474 714 474 756 q 445 644 474 672 q 376 617 417 617 m 69 494 l 683 494 l 683 447 l 69 447 l 69 494 m 376 129 q 308 157 336 129 q 279 226 279 185 q 308 295 279 267 q 376 324 336 324 q 447 296 421 324 q 474 226 474 268 q 445 157 474 185 q 376 129 417 129 z "},"ø":{"ha":826,"x_min":35,"x_max":792,"o":"m 565 703 q 731 572 671 664 q 792 354 792 481 q 739 163 792 247 q 598 31 686 78 q 406 -17 510 -17 q 301 -4 349 -17 l 247 -149 l 200 -129 l 251 11 q 92 140 150 50 q 35 354 35 231 q 87 548 35 463 q 226 681 139 633 q 417 728 314 728 q 515 717 467 728 l 568 860 l 617 842 l 565 703 m 268 408 q 278 280 268 346 q 307 158 288 214 l 482 629 q 396 686 446 686 q 331 651 360 686 q 285 552 301 615 q 268 408 268 489 m 431 25 q 495 60 467 25 q 540 159 524 96 q 557 303 557 222 q 546 440 557 369 q 514 565 535 510 l 338 93 q 431 25 376 25 z "},"ù":{"ha":915,"x_min":28,"x_max":888,"o":"m 888 42 l 888 21 l 615 -17 l 567 -17 l 567 118 q 383 15 454 47 q 258 -17 311 -17 q 160 28 196 -17 q 124 150 124 72 l 124 590 q 86 647 124 633 l 28 669 l 28 690 l 300 728 l 349 728 l 349 150 q 360 111 349 126 q 392 96 372 96 q 462 113 425 96 q 567 175 499 131 l 567 590 q 529 647 567 633 l 471 669 l 471 690 l 743 728 l 792 728 l 792 121 q 829 64 792 78 l 888 42 m 268 994 l 442 994 l 536 785 l 490 785 l 268 994 z "},"ú":{"ha":915,"x_min":28,"x_max":888,"o":"m 888 42 l 888 21 l 615 -17 l 567 -17 l 567 118 q 383 15 454 47 q 258 -17 311 -17 q 160 28 196 -17 q 124 150 124 72 l 124 590 q 86 647 124 633 l 28 669 l 28 690 l 300 728 l 349 728 l 349 150 q 360 111 349 126 q 392 96 372 96 q 462 113 425 96 q 567 175 499 131 l 567 590 q 529 647 567 633 l 471 669 l 471 690 l 743 728 l 792 728 l 792 121 q 829 64 792 78 l 888 42 m 418 785 l 513 994 l 686 994 l 464 785 l 418 785 z "},"û":{"ha":915,"x_min":28,"x_max":888,"o":"m 888 42 l 888 21 l 615 -17 l 567 -17 l 567 118 q 383 15 454 47 q 258 -17 311 -17 q 160 28 196 -17 q 124 150 124 72 l 124 590 q 86 647 124 633 l 28 669 l 28 690 l 300 728 l 349 728 l 349 150 q 360 111 349 126 q 392 96 372 96 q 462 113 425 96 q 567 175 499 131 l 567 590 q 529 647 567 633 l 471 669 l 471 690 l 743 728 l 792 728 l 792 121 q 829 64 792 78 l 888 42 m 644 785 l 451 922 l 261 785 l 222 785 l 350 994 l 551 994 l 694 785 l 644 785 z "},"ü":{"ha":915,"x_min":28,"x_max":888,"o":"m 888 42 l 888 21 l 615 -17 l 567 -17 l 567 118 q 383 15 454 47 q 258 -17 311 -17 q 160 28 196 -17 q 124 150 124 72 l 124 590 q 86 647 124 633 l 28 669 l 28 690 l 300 728 l 349 728 l 349 150 q 360 111 349 126 q 392 96 372 96 q 462 113 425 96 q 567 175 499 131 l 567 590 q 529 647 567 633 l 471 669 l 471 690 l 743 728 l 792 728 l 792 121 q 829 64 792 78 l 888 42 m 321 796 q 233 828 269 796 q 196 908 196 860 q 233 988 196 956 q 321 1019 269 1019 q 409 988 372 1019 q 446 908 446 956 q 409 828 446 860 q 321 796 372 796 m 607 796 q 519 828 556 796 q 482 908 482 860 q 519 988 482 956 q 607 1019 556 1019 q 695 988 658 1019 q 732 908 732 956 q 695 828 732 860 q 607 796 658 796 z "},"ý":{"ha":886,"x_min":21,"x_max":865,"o":"m 865 711 l 865 690 l 792 665 q 744 619 758 654 l 471 -82 q 382 -230 433 -178 q 233 -282 331 -282 q 165 -275 203 -282 l 165 -126 q 282 -146 235 -146 q 369 -131 332 -146 q 422 -85 407 -117 l 426 -75 l 129 619 q 78 667 115 650 l 21 690 l 21 711 l 432 711 l 432 690 l 383 671 q 357 636 357 660 q 363 608 357 621 l 526 197 l 685 606 q 690 628 690 622 q 654 667 690 656 l 572 690 l 572 711 l 865 711 m 403 785 l 497 994 l 671 994 l 449 785 l 403 785 z "},"þ":{"ha":872,"x_min":28,"x_max":838,"o":"m 535 728 q 700 681 632 728 q 803 553 768 633 q 838 379 838 474 q 791 170 838 260 q 663 32 744 81 q 479 -17 582 -17 q 349 18 407 -17 l 349 -168 q 388 -224 349 -210 l 433 -240 l 433 -261 l 39 -261 l 39 -240 l 85 -224 q 124 -168 124 -210 l 124 846 q 86 903 124 889 l 28 925 l 28 946 l 300 983 l 349 983 l 349 640 q 430 703 381 679 q 535 728 479 728 m 461 25 q 537 66 504 25 q 587 176 569 107 q 604 328 604 244 q 566 544 604 451 q 453 638 528 638 q 397 627 421 638 q 349 593 372 617 l 349 261 q 377 86 349 147 q 461 25 406 25 z "},"ÿ":{"ha":886,"x_min":21,"x_max":865,"o":"m 865 711 l 865 690 l 792 665 q 744 619 758 654 l 471 -82 q 382 -230 433 -178 q 233 -282 331 -282 q 165 -275 203 -282 l 165 -126 q 282 -146 235 -146 q 369 -131 332 -146 q 422 -85 407 -117 l 426 -75 l 129 619 q 78 667 115 650 l 21 690 l 21 711 l 432 711 l 432 690 l 383 671 q 357 636 357 660 q 363 608 357 621 l 526 197 l 685 606 q 690 628 690 622 q 654 667 690 656 l 572 690 l 572 711 l 865 711 m 300 796 q 212 828 249 796 q 175 908 175 860 q 212 988 175 956 q 300 1019 249 1019 q 388 988 351 1019 q 425 908 425 956 q 388 828 425 860 q 300 796 351 796 m 586 796 q 498 828 535 796 q 461 908 461 860 q 498 988 461 956 q 586 1019 535 1019 q 674 988 638 1019 q 711 908 711 956 q 674 828 711 860 q 586 796 638 796 z "},"Ā":{"ha":1093,"x_min":28,"x_max":1065,"o":"m 1065 21 l 1065 0 l 604 0 l 604 21 l 690 57 q 719 99 719 69 q 715 121 719 108 l 642 306 l 289 306 l 217 122 q 211 99 211 106 q 244 58 211 72 l 347 21 l 347 0 l 28 0 l 28 21 l 101 56 q 143 108 128 69 l 488 972 l 619 972 l 964 108 q 981 74 972 88 q 1001 54 989 61 l 1065 21 m 624 353 l 464 756 l 307 353 l 624 353 m 329 1168 l 775 1168 l 775 1122 l 329 1122 l 329 1168 z "},"ā":{"ha":794,"x_min":35,"x_max":774,"o":"m 774 42 l 774 21 l 501 -17 l 453 -17 l 453 122 q 358 19 411 54 q 238 -17 306 -17 q 90 35 146 -17 q 35 174 35 88 q 122 340 35 276 q 372 419 208 403 l 453 428 l 453 493 q 427 635 453 583 q 360 686 401 686 q 273 628 299 686 q 250 492 247 571 l 38 492 q 89 619 40 565 q 214 700 138 672 q 378 728 290 728 q 601 654 525 728 q 678 447 678 581 l 678 121 q 715 64 678 79 l 774 42 m 356 104 q 453 165 410 104 l 453 388 l 399 378 q 303 323 338 368 q 268 210 268 278 q 293 134 268 164 q 356 104 318 104 m 157 907 l 603 907 l 603 861 l 157 861 l 157 907 z "},"Ă":{"ha":1093,"x_min":28,"x_max":1065,"o":"m 1065 21 l 1065 0 l 604 0 l 604 21 l 690 57 q 719 99 719 69 q 715 121 719 108 l 642 306 l 289 306 l 217 122 q 211 99 211 106 q 244 58 211 72 l 347 21 l 347 0 l 28 0 l 28 21 l 101 56 q 143 108 128 69 l 488 972 l 619 972 l 964 108 q 981 74 972 88 q 1001 54 989 61 l 1065 21 m 624 353 l 464 756 l 307 353 l 624 353 m 553 1028 q 408 1091 463 1028 q 347 1256 354 1154 l 389 1256 q 442 1168 400 1203 q 553 1133 485 1133 q 665 1168 621 1133 q 719 1256 708 1203 l 758 1256 q 697 1091 751 1154 q 553 1028 643 1028 z "},"ă":{"ha":794,"x_min":35,"x_max":774,"o":"m 774 42 l 774 21 l 501 -17 l 453 -17 l 453 122 q 358 19 411 54 q 238 -17 306 -17 q 90 35 146 -17 q 35 174 35 88 q 122 340 35 276 q 372 419 208 403 l 453 428 l 453 493 q 427 635 453 583 q 360 686 401 686 q 273 628 299 686 q 250 492 247 571 l 38 492 q 89 619 40 565 q 214 700 138 672 q 378 728 290 728 q 601 654 525 728 q 678 447 678 581 l 678 121 q 715 64 678 79 l 774 42 m 356 104 q 453 165 410 104 l 453 388 l 399 378 q 303 323 338 368 q 268 210 268 278 q 293 134 268 164 q 356 104 318 104 m 381 767 q 236 830 290 767 q 175 994 182 893 l 217 994 q 270 907 228 942 q 381 872 313 872 q 492 907 449 872 q 547 994 536 942 l 586 994 q 525 830 579 893 q 381 767 471 767 z "},"Ą":{"ha":1093,"x_min":28,"x_max":1065,"o":"m 967 0 q 897 -89 919 -50 q 874 -171 874 -128 q 895 -225 874 -204 q 950 -246 917 -246 q 1024 -222 985 -246 l 1038 -250 q 956 -292 1008 -275 q 861 -310 903 -310 q 751 -284 790 -310 q 711 -210 711 -258 q 758 -106 711 -157 q 900 0 806 -54 l 604 0 l 604 21 l 690 57 q 719 99 719 69 q 715 121 719 108 l 642 306 l 289 306 l 217 122 q 211 99 211 106 q 244 58 211 72 l 347 21 l 347 0 l 28 0 l 28 21 l 101 56 q 143 108 128 69 l 488 972 l 619 972 l 964 108 q 981 74 972 88 q 1001 54 989 61 l 1065 21 l 1065 0 l 967 0 m 624 353 l 464 756 l 307 353 l 624 353 z "},"ą":{"ha":794,"x_min":35,"x_max":774,"o":"m 550 -10 q 499 -83 515 -50 q 482 -153 482 -117 q 503 -207 482 -186 q 558 -228 525 -228 q 632 -204 593 -228 l 646 -232 q 564 -274 617 -257 q 469 -292 511 -292 q 359 -266 399 -292 q 319 -192 319 -240 q 353 -104 319 -147 q 453 -17 386 -61 l 453 122 q 358 19 411 54 q 238 -17 306 -17 q 90 35 146 -17 q 35 174 35 88 q 122 340 35 276 q 372 419 208 403 l 453 428 l 453 493 q 427 635 453 583 q 360 686 401 686 q 273 628 299 686 q 250 492 247 571 l 38 492 q 89 619 40 565 q 214 700 138 672 q 378 728 290 728 q 601 654 525 728 q 678 447 678 581 l 678 121 q 715 64 678 79 l 774 42 l 774 21 l 550 -10 m 356 104 q 453 165 410 104 l 453 388 l 399 378 q 303 323 338 368 q 268 210 268 278 q 293 134 268 164 q 356 104 318 104 z "},"Ć":{"ha":918,"x_min":42,"x_max":888,"o":"m 42 472 q 108 735 42 617 q 290 921 174 853 q 554 989 407 989 q 719 975 632 989 q 850 939 806 961 l 851 731 l 831 731 q 726 889 797 831 q 556 947 654 947 q 344 842 411 947 q 278 554 278 738 q 313 313 278 418 q 418 150 349 208 q 583 92 488 92 q 758 143 688 92 q 867 274 829 194 l 888 264 q 824 138 868 201 q 701 28 779 74 q 515 -17 624 -17 q 263 48 369 -17 q 99 224 156 113 q 42 472 42 335 m 497 1046 l 592 1256 l 765 1256 l 543 1046 l 497 1046 z "},"ć":{"ha":715,"x_min":35,"x_max":701,"o":"m 614 451 q 576 574 607 519 q 499 658 544 628 q 407 688 454 688 q 288 617 326 688 q 249 440 249 547 q 277 263 249 339 q 358 144 306 186 q 476 103 410 103 q 595 133 543 103 q 676 224 647 163 l 701 214 q 585 44 665 106 q 388 -17 504 -17 q 197 33 276 -17 q 76 165 117 82 q 35 347 35 247 q 76 538 35 451 q 199 676 117 624 q 397 728 281 728 q 528 717 460 728 q 635 689 597 706 l 635 451 l 614 451 m 350 785 l 444 994 l 618 994 l 396 785 l 350 785 z "},"Ĉ":{"ha":918,"x_min":42,"x_max":888,"o":"m 42 472 q 108 735 42 617 q 290 921 174 853 q 554 989 407 989 q 719 975 632 989 q 850 939 806 961 l 851 731 l 831 731 q 726 889 797 831 q 556 947 654 947 q 344 842 411 947 q 278 554 278 738 q 313 313 278 418 q 418 150 349 208 q 583 92 488 92 q 758 143 688 92 q 867 274 829 194 l 888 264 q 824 138 868 201 q 701 28 779 74 q 515 -17 624 -17 q 263 48 369 -17 q 99 224 156 113 q 42 472 42 335 m 724 1046 l 531 1183 l 340 1046 l 301 1046 l 429 1256 l 631 1256 l 774 1046 l 724 1046 z "},"ĉ":{"ha":715,"x_min":35,"x_max":701,"o":"m 614 451 q 576 574 607 519 q 499 658 544 628 q 407 688 454 688 q 288 617 326 688 q 249 440 249 547 q 277 263 249 339 q 358 144 306 186 q 476 103 410 103 q 595 133 543 103 q 676 224 647 163 l 701 214 q 585 44 665 106 q 388 -17 504 -17 q 197 33 276 -17 q 76 165 117 82 q 35 347 35 247 q 76 538 35 451 q 199 676 117 624 q 397 728 281 728 q 528 717 460 728 q 635 689 597 706 l 635 451 l 614 451 m 576 785 l 383 922 l 193 785 l 154 785 l 282 994 l 483 994 l 626 785 l 576 785 z "},"Ċ":{"ha":918,"x_min":42,"x_max":888,"o":"m 42 472 q 108 735 42 617 q 290 921 174 853 q 554 989 407 989 q 719 975 632 989 q 850 939 806 961 l 851 731 l 831 731 q 726 889 797 831 q 556 947 654 947 q 344 842 411 947 q 278 554 278 738 q 313 313 278 418 q 418 150 349 208 q 583 92 488 92 q 758 143 688 92 q 867 274 829 194 l 888 264 q 824 138 868 201 q 701 28 779 74 q 515 -17 624 -17 q 263 48 369 -17 q 99 224 156 113 q 42 472 42 335 m 538 1047 q 440 1083 481 1047 q 399 1172 399 1118 q 440 1260 399 1225 q 538 1294 481 1294 q 635 1260 594 1294 q 676 1172 676 1225 q 635 1083 676 1118 q 538 1047 594 1047 z "},"ċ":{"ha":715,"x_min":35,"x_max":701,"o":"m 614 451 q 576 574 607 519 q 499 658 544 628 q 407 688 454 688 q 288 617 326 688 q 249 440 249 547 q 277 263 249 339 q 358 144 306 186 q 476 103 410 103 q 595 133 543 103 q 676 224 647 163 l 701 214 q 585 44 665 106 q 388 -17 504 -17 q 197 33 276 -17 q 76 165 117 82 q 35 347 35 247 q 76 538 35 451 q 199 676 117 624 q 397 728 281 728 q 528 717 460 728 q 635 689 597 706 l 635 451 l 614 451 m 390 786 q 292 822 333 786 q 251 911 251 857 q 292 999 251 964 q 390 1033 333 1033 q 488 999 447 1033 q 529 911 529 964 q 488 822 529 857 q 390 786 447 786 z "},"Č":{"ha":918,"x_min":42,"x_max":888,"o":"m 42 472 q 108 735 42 617 q 290 921 174 853 q 554 989 407 989 q 719 975 632 989 q 850 939 806 961 l 851 731 l 831 731 q 726 889 797 831 q 556 947 654 947 q 344 842 411 947 q 278 554 278 738 q 313 313 278 418 q 418 150 349 208 q 583 92 488 92 q 758 143 688 92 q 867 274 829 194 l 888 264 q 824 138 868 201 q 701 28 779 74 q 515 -17 624 -17 q 263 48 369 -17 q 99 224 156 113 q 42 472 42 335 m 774 1256 l 631 1046 l 429 1046 l 301 1256 l 340 1256 l 531 1118 l 724 1256 l 774 1256 z "},"č":{"ha":715,"x_min":35,"x_max":701,"o":"m 614 451 q 576 574 607 519 q 499 658 544 628 q 407 688 454 688 q 288 617 326 688 q 249 440 249 547 q 277 263 249 339 q 358 144 306 186 q 476 103 410 103 q 595 133 543 103 q 676 224 647 163 l 701 214 q 585 44 665 106 q 388 -17 504 -17 q 197 33 276 -17 q 76 165 117 82 q 35 347 35 247 q 76 538 35 451 q 199 676 117 624 q 397 728 281 728 q 528 717 460 728 q 635 689 597 706 l 635 451 l 614 451 m 626 994 l 483 785 l 282 785 l 154 994 l 193 994 l 383 857 l 576 994 l 626 994 z "},"Ď":{"ha":1044,"x_min":35,"x_max":1011,"o":"m 474 972 q 777 909 657 972 q 954 743 897 846 q 1011 518 1011 640 q 941 243 1011 361 q 753 63 871 125 q 493 0 635 0 l 35 0 l 35 21 l 118 51 q 154 108 154 65 l 154 863 q 118 919 154 906 l 35 951 l 35 972 l 474 972 m 493 47 q 695 163 624 47 q 767 486 767 279 q 730 699 767 599 q 622 863 693 800 q 450 925 550 925 l 386 925 l 386 139 q 410 73 386 99 q 493 47 435 47 m 717 1256 l 574 1046 l 372 1046 l 244 1256 l 283 1256 l 474 1118 l 667 1256 l 717 1256 z "},"ď":{"ha":935,"x_min":35,"x_max":963,"o":"m 844 42 l 844 21 l 572 -17 l 524 -17 l 524 71 q 442 8 492 32 q 338 -17 393 -17 q 172 31 240 -17 q 69 158 104 78 q 35 332 35 238 q 81 541 35 451 q 209 679 128 631 q 393 728 290 728 q 524 693 465 728 l 524 851 q 486 908 524 894 l 428 931 l 428 951 l 700 989 l 749 989 l 749 121 q 786 64 749 78 l 844 42 m 419 74 q 476 84 451 74 q 524 118 500 94 l 524 450 q 495 625 524 564 q 411 686 467 686 q 335 645 368 686 q 285 535 303 604 q 268 383 268 467 q 306 167 268 260 q 419 74 344 74 m 804 786 l 832 1065 l 963 1065 l 844 786 l 804 786 z "},"Đ":{"ha":1044,"x_min":35,"x_max":1011,"o":"m 474 972 q 777 909 657 972 q 954 743 897 846 q 1011 518 1011 640 q 941 243 1011 361 q 753 63 871 125 q 493 0 635 0 l 35 0 l 35 21 l 118 51 q 154 108 154 65 l 154 465 l 53 465 l 53 507 l 154 507 l 154 863 q 118 919 154 906 l 35 951 l 35 972 l 474 972 m 493 47 q 695 163 624 47 q 767 486 767 279 q 730 699 767 599 q 622 863 693 800 q 450 925 550 925 l 386 925 l 386 507 l 542 507 l 542 465 l 386 465 l 386 139 q 410 73 386 99 q 493 47 435 47 z "},"đ":{"ha":872,"x_min":35,"x_max":847,"o":"m 749 121 q 786 64 749 78 l 844 42 l 844 21 l 572 -17 l 524 -17 l 524 71 q 442 8 492 32 q 338 -17 393 -17 q 172 31 240 -17 q 69 158 104 78 q 35 332 35 238 q 81 541 35 451 q 209 679 128 631 q 393 728 290 728 q 524 693 465 728 l 524 801 l 358 801 l 358 843 l 524 843 l 524 851 q 486 908 524 894 l 428 931 l 428 951 l 700 989 l 749 989 l 749 843 l 847 843 l 847 801 l 749 801 l 749 121 m 419 74 q 476 84 451 74 q 524 118 500 94 l 524 450 q 495 625 524 564 q 411 686 467 686 q 335 645 368 686 q 285 535 303 604 q 268 383 268 467 q 306 167 268 260 q 419 74 344 74 z "},"Ē":{"ha":872,"x_min":35,"x_max":844,"o":"m 844 244 l 800 0 l 35 0 l 35 21 l 114 47 q 154 103 154 60 l 154 869 q 114 925 154 913 l 35 951 l 35 972 l 786 972 l 831 728 l 810 728 l 696 889 q 670 916 683 907 q 639 925 657 925 l 388 925 l 388 556 l 532 556 q 588 594 571 556 l 636 699 l 657 699 l 657 365 l 636 365 l 588 469 q 532 508 571 508 l 388 508 l 388 103 q 403 63 388 78 q 442 47 418 47 l 653 47 q 684 56 671 47 q 710 83 697 65 l 824 244 l 844 244 m 210 1168 l 656 1168 l 656 1122 l 210 1122 l 210 1168 z "},"ē":{"ha":750,"x_min":35,"x_max":708,"o":"m 507 139 q 608 165 560 139 q 683 235 657 190 l 707 225 q 591 53 676 122 q 379 -17 506 -17 q 189 33 267 -17 q 73 163 111 82 q 35 339 35 244 q 80 544 35 457 q 208 680 125 632 q 400 728 290 728 q 633 647 560 728 q 708 404 707 567 l 251 404 q 291 258 254 318 q 385 168 328 197 q 507 139 443 139 m 376 686 q 290 624 324 686 q 251 446 256 561 l 488 446 q 456 624 485 563 q 376 686 428 686 m 174 907 l 619 907 l 619 861 l 174 861 l 174 907 z "},"Ĕ":{"ha":872,"x_min":35,"x_max":844,"o":"m 844 244 l 800 0 l 35 0 l 35 21 l 114 47 q 154 103 154 60 l 154 869 q 114 925 154 913 l 35 951 l 35 972 l 786 972 l 831 728 l 810 728 l 696 889 q 670 916 683 907 q 639 925 657 925 l 388 925 l 388 556 l 532 556 q 588 594 571 556 l 636 699 l 657 699 l 657 365 l 636 365 l 588 469 q 532 508 571 508 l 388 508 l 388 103 q 403 63 388 78 q 442 47 418 47 l 653 47 q 684 56 671 47 q 710 83 697 65 l 824 244 l 844 244 m 433 1028 q 289 1091 343 1028 q 228 1256 235 1154 l 269 1256 q 323 1168 281 1203 q 433 1133 365 1133 q 545 1168 501 1133 q 600 1256 589 1203 l 639 1256 q 578 1091 632 1154 q 433 1028 524 1028 z "},"ĕ":{"ha":750,"x_min":35,"x_max":708,"o":"m 507 139 q 608 165 560 139 q 683 235 657 190 l 707 225 q 591 53 676 122 q 379 -17 506 -17 q 189 33 267 -17 q 73 163 111 82 q 35 339 35 244 q 80 544 35 457 q 208 680 125 632 q 400 728 290 728 q 633 647 560 728 q 708 404 707 567 l 251 404 q 291 258 254 318 q 385 168 328 197 q 507 139 443 139 m 376 686 q 290 624 324 686 q 251 446 256 561 l 488 446 q 456 624 485 563 q 376 686 428 686 m 397 767 q 253 830 307 767 q 192 994 199 893 l 233 994 q 287 907 244 942 q 397 872 329 872 q 509 907 465 872 q 564 994 553 942 l 603 994 q 542 830 596 893 q 397 767 488 767 z "},"Ė":{"ha":872,"x_min":35,"x_max":844,"o":"m 844 244 l 800 0 l 35 0 l 35 21 l 114 47 q 154 103 154 60 l 154 869 q 114 925 154 913 l 35 951 l 35 972 l 786 972 l 831 728 l 810 728 l 696 889 q 670 916 683 907 q 639 925 657 925 l 388 925 l 388 556 l 532 556 q 588 594 571 556 l 636 699 l 657 699 l 657 365 l 636 365 l 588 469 q 532 508 571 508 l 388 508 l 388 103 q 403 63 388 78 q 442 47 418 47 l 653 47 q 684 56 671 47 q 710 83 697 65 l 824 244 l 844 244 m 433 1047 q 335 1083 376 1047 q 294 1172 294 1118 q 335 1260 294 1225 q 433 1294 376 1294 q 531 1260 490 1294 q 572 1172 572 1225 q 531 1083 572 1118 q 433 1047 490 1047 z "},"ė":{"ha":750,"x_min":35,"x_max":708,"o":"m 507 139 q 608 165 560 139 q 683 235 657 190 l 707 225 q 591 53 676 122 q 379 -17 506 -17 q 189 33 267 -17 q 73 163 111 82 q 35 339 35 244 q 80 544 35 457 q 208 680 125 632 q 400 728 290 728 q 633 647 560 728 q 708 404 707 567 l 251 404 q 291 258 254 318 q 385 168 328 197 q 507 139 443 139 m 376 686 q 290 624 324 686 q 251 446 256 561 l 488 446 q 456 624 485 563 q 376 686 428 686 m 397 786 q 299 822 340 786 q 258 911 258 857 q 299 999 258 964 q 397 1033 340 1033 q 495 999 454 1033 q 536 911 536 964 q 495 822 536 857 q 397 786 454 786 z "},"Ę":{"ha":872,"x_min":35,"x_max":844,"o":"m 640 -157 q 662 -211 640 -190 q 717 -232 683 -232 q 790 -208 751 -232 l 804 -236 q 722 -278 775 -261 q 628 -296 669 -296 q 517 -270 557 -296 q 478 -196 478 -244 q 519 -98 478 -146 q 643 0 561 -50 l 35 0 l 35 21 l 114 47 q 154 103 154 60 l 154 869 q 114 925 154 913 l 35 951 l 35 972 l 786 972 l 831 728 l 810 728 l 696 889 q 670 916 683 907 q 639 925 657 925 l 388 925 l 388 556 l 532 556 q 588 594 571 556 l 636 699 l 657 699 l 657 365 l 636 365 l 588 469 q 532 508 571 508 l 388 508 l 388 103 q 403 63 388 78 q 442 47 418 47 l 653 47 q 684 56 671 47 q 710 83 697 65 l 824 244 l 844 244 l 800 0 l 721 0 q 660 -81 681 -44 q 640 -157 640 -118 z "},"ę":{"ha":750,"x_min":35,"x_max":708,"o":"m 707 225 q 588 50 675 118 q 495 -60 524 -17 q 467 -151 467 -103 q 488 -206 467 -185 q 543 -226 510 -226 q 617 -203 578 -226 l 631 -231 q 549 -273 601 -256 q 454 -290 496 -290 q 344 -265 383 -290 q 304 -190 304 -239 q 339 -101 304 -144 q 443 -11 374 -57 q 379 -17 417 -17 q 189 33 267 -17 q 73 163 111 82 q 35 339 35 244 q 80 544 35 457 q 208 680 125 632 q 400 728 290 728 q 633 647 560 728 q 708 404 707 567 l 251 404 q 291 258 254 318 q 385 168 328 197 q 507 139 443 139 q 608 165 560 139 q 683 235 657 190 l 707 225 m 376 686 q 290 624 324 686 q 251 446 256 561 l 488 446 q 456 624 485 563 q 376 686 428 686 z "},"Ě":{"ha":872,"x_min":35,"x_max":844,"o":"m 844 244 l 800 0 l 35 0 l 35 21 l 114 47 q 154 103 154 60 l 154 869 q 114 925 154 913 l 35 951 l 35 972 l 786 972 l 831 728 l 810 728 l 696 889 q 670 916 683 907 q 639 925 657 925 l 388 925 l 388 556 l 532 556 q 588 594 571 556 l 636 699 l 657 699 l 657 365 l 636 365 l 588 469 q 532 508 571 508 l 388 508 l 388 103 q 403 63 388 78 q 442 47 418 47 l 653 47 q 684 56 671 47 q 710 83 697 65 l 824 244 l 844 244 m 669 1256 l 526 1046 l 325 1046 l 197 1256 l 236 1256 l 426 1118 l 619 1256 l 669 1256 z "},"ě":{"ha":750,"x_min":35,"x_max":708,"o":"m 507 139 q 608 165 560 139 q 683 235 657 190 l 707 225 q 591 53 676 122 q 379 -17 506 -17 q 189 33 267 -17 q 73 163 111 82 q 35 339 35 244 q 80 544 35 457 q 208 680 125 632 q 400 728 290 728 q 633 647 560 728 q 708 404 707 567 l 251 404 q 291 258 254 318 q 385 168 328 197 q 507 139 443 139 m 376 686 q 290 624 324 686 q 251 446 256 561 l 488 446 q 456 624 485 563 q 376 686 428 686 m 633 994 l 490 785 l 289 785 l 161 994 l 200 994 l 390 857 l 583 994 l 633 994 z "},"Ĝ":{"ha":1040,"x_min":42,"x_max":1026,"o":"m 831 731 q 721 885 794 825 q 549 944 647 944 q 356 860 432 944 q 281 583 281 775 q 322 315 281 442 q 435 111 364 188 q 590 35 507 35 q 689 70 661 35 q 717 147 717 106 l 717 411 q 685 469 717 461 l 594 496 l 594 517 l 1026 517 l 1026 496 l 958 469 q 925 411 925 456 l 925 243 q 938 208 925 221 q 974 194 951 194 l 1026 194 l 1026 174 q 772 28 889 67 q 531 -10 654 -10 q 274 53 385 -10 q 102 224 163 115 q 42 469 42 333 q 108 740 42 622 q 292 923 174 858 q 561 988 410 988 q 711 974 632 988 q 850 939 790 961 l 851 731 l 831 731 m 749 1046 l 556 1183 l 365 1046 l 326 1046 l 454 1256 l 656 1256 l 799 1046 l 749 1046 z "},"ĝ":{"ha":778,"x_min":21,"x_max":750,"o":"m 469 150 q 674 94 597 138 q 750 -36 750 51 q 697 -157 750 -103 q 551 -242 643 -211 q 350 -272 460 -272 q 110 -226 200 -272 q 21 -106 21 -181 q 79 -21 21 -56 q 217 22 138 14 l 231 22 q 125 79 160 42 q 90 165 90 117 q 112 238 90 208 q 183 292 133 267 q 90 371 125 322 q 56 486 56 419 q 94 608 56 553 q 206 696 133 664 q 372 728 278 728 q 547 690 468 728 l 660 818 l 700 781 l 589 665 q 658 586 633 632 q 683 486 683 540 q 645 365 683 419 q 536 278 607 310 q 372 247 465 247 q 203 282 281 247 q 183 228 183 258 q 211 187 183 201 q 299 167 239 172 l 469 150 m 350 689 q 302 647 319 689 q 285 538 285 606 q 299 406 285 464 q 340 315 314 347 q 394 283 365 283 q 441 326 424 283 q 458 440 458 369 q 457 475 458 463 q 420 630 450 571 q 350 689 390 689 m 372 -233 q 500 -193 458 -233 q 542 -94 542 -153 q 512 -36 542 -56 q 425 -8 482 -17 l 300 8 q 240 19 275 11 q 219 -76 219 -10 q 240 -153 219 -117 q 294 -211 260 -189 q 372 -233 329 -233 m 561 785 l 368 922 l 178 785 l 139 785 l 267 994 l 468 994 l 611 785 l 561 785 z "},"Ğ":{"ha":1040,"x_min":42,"x_max":1026,"o":"m 831 731 q 721 885 794 825 q 549 944 647 944 q 356 860 432 944 q 281 583 281 775 q 322 315 281 442 q 435 111 364 188 q 590 35 507 35 q 689 70 661 35 q 717 147 717 106 l 717 411 q 685 469 717 461 l 594 496 l 594 517 l 1026 517 l 1026 496 l 958 469 q 925 411 925 456 l 925 243 q 938 208 925 221 q 974 194 951 194 l 1026 194 l 1026 174 q 772 28 889 67 q 531 -10 654 -10 q 274 53 385 -10 q 102 224 163 115 q 42 469 42 333 q 108 740 42 622 q 292 923 174 858 q 561 988 410 988 q 711 974 632 988 q 850 939 790 961 l 851 731 l 831 731 m 563 1028 q 418 1091 472 1028 q 357 1256 364 1154 l 399 1256 q 452 1168 410 1203 q 563 1133 494 1133 q 674 1168 631 1133 q 729 1256 718 1203 l 768 1256 q 707 1091 761 1154 q 563 1028 653 1028 z "},"ğ":{"ha":778,"x_min":21,"x_max":750,"o":"m 469 150 q 674 94 597 138 q 750 -36 750 51 q 697 -157 750 -103 q 551 -242 643 -211 q 350 -272 460 -272 q 110 -226 200 -272 q 21 -106 21 -181 q 79 -21 21 -56 q 217 22 138 14 l 231 22 q 125 79 160 42 q 90 165 90 117 q 112 238 90 208 q 183 292 133 267 q 90 371 125 322 q 56 486 56 419 q 94 608 56 553 q 206 696 133 664 q 372 728 278 728 q 547 690 468 728 l 660 818 l 700 781 l 589 665 q 658 586 633 632 q 683 486 683 540 q 645 365 683 419 q 536 278 607 310 q 372 247 465 247 q 203 282 281 247 q 183 228 183 258 q 211 187 183 201 q 299 167 239 172 l 469 150 m 350 689 q 302 647 319 689 q 285 538 285 606 q 299 406 285 464 q 340 315 314 347 q 394 283 365 283 q 441 326 424 283 q 458 440 458 369 q 457 475 458 463 q 420 630 450 571 q 350 689 390 689 m 372 -233 q 500 -193 458 -233 q 542 -94 542 -153 q 512 -36 542 -56 q 425 -8 482 -17 l 300 8 q 240 19 275 11 q 219 -76 219 -10 q 240 -153 219 -117 q 294 -211 260 -189 q 372 -233 329 -233 m 375 767 q 231 830 285 767 q 169 994 176 893 l 211 994 q 265 907 222 942 q 375 872 307 872 q 487 907 443 872 q 542 994 531 942 l 581 994 q 519 830 574 893 q 375 767 465 767 z "},"Ġ":{"ha":1040,"x_min":42,"x_max":1026,"o":"m 831 731 q 721 885 794 825 q 549 944 647 944 q 356 860 432 944 q 281 583 281 775 q 322 315 281 442 q 435 111 364 188 q 590 35 507 35 q 689 70 661 35 q 717 147 717 106 l 717 411 q 685 469 717 461 l 594 496 l 594 517 l 1026 517 l 1026 496 l 958 469 q 925 411 925 456 l 925 243 q 938 208 925 221 q 974 194 951 194 l 1026 194 l 1026 174 q 772 28 889 67 q 531 -10 654 -10 q 274 53 385 -10 q 102 224 163 115 q 42 469 42 333 q 108 740 42 622 q 292 923 174 858 q 561 988 410 988 q 711 974 632 988 q 850 939 790 961 l 851 731 l 831 731 m 563 1047 q 465 1083 506 1047 q 424 1172 424 1118 q 465 1260 424 1225 q 563 1294 506 1294 q 660 1260 619 1294 q 701 1172 701 1225 q 660 1083 701 1118 q 563 1047 619 1047 z "},"ġ":{"ha":778,"x_min":21,"x_max":750,"o":"m 469 150 q 674 94 597 138 q 750 -36 750 51 q 697 -157 750 -103 q 551 -242 643 -211 q 350 -272 460 -272 q 110 -226 200 -272 q 21 -106 21 -181 q 79 -21 21 -56 q 217 22 138 14 l 231 22 q 125 79 160 42 q 90 165 90 117 q 112 238 90 208 q 183 292 133 267 q 90 371 125 322 q 56 486 56 419 q 94 608 56 553 q 206 696 133 664 q 372 728 278 728 q 547 690 468 728 l 660 818 l 700 781 l 589 665 q 658 586 633 632 q 683 486 683 540 q 645 365 683 419 q 536 278 607 310 q 372 247 465 247 q 203 282 281 247 q 183 228 183 258 q 211 187 183 201 q 299 167 239 172 l 469 150 m 350 689 q 302 647 319 689 q 285 538 285 606 q 299 406 285 464 q 340 315 314 347 q 394 283 365 283 q 441 326 424 283 q 458 440 458 369 q 457 475 458 463 q 420 630 450 571 q 350 689 390 689 m 372 -233 q 500 -193 458 -233 q 542 -94 542 -153 q 512 -36 542 -56 q 425 -8 482 -17 l 300 8 q 240 19 275 11 q 219 -76 219 -10 q 240 -153 219 -117 q 294 -211 260 -189 q 372 -233 329 -233 m 375 786 q 277 822 318 786 q 236 911 236 857 q 277 999 236 964 q 375 1033 318 1033 q 473 999 432 1033 q 514 911 514 964 q 473 822 514 857 q 375 786 432 786 z "},"Ģ":{"ha":1040,"x_min":42,"x_max":1026,"o":"m 831 731 q 721 885 794 825 q 549 944 647 944 q 356 860 432 944 q 281 583 281 775 q 322 315 281 442 q 435 111 364 188 q 590 35 507 35 q 689 70 661 35 q 717 147 717 106 l 717 411 q 685 469 717 461 l 594 496 l 594 517 l 1026 517 l 1026 496 l 958 469 q 925 411 925 456 l 925 243 q 938 208 925 221 q 974 194 951 194 l 1026 194 l 1026 174 q 772 28 889 67 q 531 -10 654 -10 q 274 53 385 -10 q 102 224 163 115 q 42 469 42 333 q 108 740 42 622 q 292 923 174 858 q 561 988 410 988 q 711 974 632 988 q 850 939 790 961 l 851 731 l 831 731 m 658 -49 q 599 -217 657 -151 q 439 -331 542 -282 l 418 -311 q 458 -247 444 -285 q 472 -169 472 -208 q 440 -62 472 -106 l 658 -49 z "},"ģ":{"ha":778,"x_min":21,"x_max":750,"o":"m 469 150 q 674 94 597 138 q 750 -36 750 51 q 697 -157 750 -103 q 551 -242 643 -211 q 350 -272 460 -272 q 110 -226 200 -272 q 21 -106 21 -181 q 79 -21 21 -56 q 217 22 138 14 l 231 22 q 125 79 160 42 q 90 165 90 117 q 112 238 90 208 q 183 292 133 267 q 90 371 125 322 q 56 486 56 419 q 94 608 56 553 q 206 696 133 664 q 372 728 278 728 q 547 690 468 728 l 660 818 l 700 781 l 589 665 q 658 586 633 632 q 683 486 683 540 q 645 365 683 419 q 536 278 607 310 q 372 247 465 247 q 203 282 281 247 q 183 228 183 258 q 211 187 183 201 q 299 167 239 172 l 469 150 m 350 689 q 302 647 319 689 q 285 538 285 606 q 299 406 285 464 q 340 315 314 347 q 394 283 365 283 q 441 326 424 283 q 458 440 458 369 q 457 475 458 463 q 420 630 450 571 q 350 689 390 689 m 372 -233 q 500 -193 458 -233 q 542 -94 542 -153 q 512 -36 542 -56 q 425 -8 482 -17 l 300 8 q 240 19 275 11 q 219 -76 219 -10 q 240 -153 219 -117 q 294 -211 260 -189 q 372 -233 329 -233 m 269 801 q 328 969 271 904 q 489 1083 386 1035 l 510 1064 q 469 999 483 1038 q 456 922 456 961 q 488 815 456 858 l 269 801 z "},"Ĥ":{"ha":1156,"x_min":35,"x_max":1121,"o":"m 1042 925 q 1001 869 1001 913 l 1001 103 q 1042 47 1001 60 l 1121 21 l 1121 0 l 649 0 l 649 21 l 728 47 q 768 103 768 60 l 768 461 l 388 461 l 388 103 q 428 47 388 60 l 507 21 l 507 0 l 35 0 l 35 21 l 114 47 q 154 103 154 60 l 154 869 q 114 925 154 913 l 35 951 l 35 972 l 507 972 l 507 951 l 428 925 q 388 869 388 913 l 388 508 l 768 508 l 768 869 q 728 925 768 913 l 649 951 l 649 972 l 1121 972 l 1121 951 l 1042 925 m 764 1046 l 571 1183 l 381 1046 l 342 1046 l 469 1256 l 671 1256 l 814 1046 l 764 1046 z "},"ĥ":{"ha":904,"x_min":-3,"x_max":876,"o":"m 876 21 l 876 0 l 482 0 l 482 21 l 528 38 q 567 93 567 51 l 567 561 q 555 600 567 585 q 524 615 543 615 q 453 598 490 615 q 349 536 417 581 l 349 93 q 388 38 349 51 l 433 21 l 433 0 l 39 0 l 39 21 l 85 38 q 124 93 124 51 l 124 851 q 86 908 124 894 l 28 931 l 28 951 l 300 989 l 349 989 l 349 593 q 533 696 461 664 q 657 728 604 728 q 756 683 719 728 q 792 561 792 639 l 792 93 q 831 38 792 51 l 876 21 m 419 1006 l 226 1143 l 36 1006 l -3 1006 l 125 1215 l 326 1215 l 469 1006 l 419 1006 z "},"Ħ":{"ha":1156,"x_min":-12,"x_max":1168,"o":"m 1001 694 l 1001 103 q 1042 47 1001 60 l 1121 21 l 1121 0 l 649 0 l 649 21 l 728 47 q 768 103 768 60 l 768 461 l 388 461 l 388 103 q 428 47 388 60 l 507 21 l 507 0 l 35 0 l 35 21 l 114 47 q 154 103 154 60 l 154 694 l -12 694 l -12 742 l 154 742 l 154 869 q 114 925 154 913 l 35 951 l 35 972 l 507 972 l 507 951 l 428 925 q 388 869 388 913 l 388 742 l 768 742 l 768 869 q 728 925 768 913 l 649 951 l 649 972 l 1121 972 l 1121 951 l 1042 925 q 1001 869 1001 913 l 1001 742 l 1168 742 l 1168 694 l 1001 694 m 768 694 l 388 694 l 388 508 l 768 508 l 768 694 z "},"ħ":{"ha":904,"x_min":15,"x_max":876,"o":"m 876 21 l 876 0 l 482 0 l 482 21 l 528 38 q 567 93 567 51 l 567 561 q 555 600 567 585 q 524 615 543 615 q 453 598 490 615 q 349 536 417 581 l 349 93 q 388 38 349 51 l 433 21 l 433 0 l 39 0 l 39 21 l 85 38 q 124 93 124 51 l 124 801 l 15 801 l 15 843 l 124 843 l 124 851 q 86 908 124 894 l 28 931 l 28 951 l 300 989 l 349 989 l 349 843 l 504 843 l 504 801 l 349 801 l 349 593 q 533 696 461 664 q 657 728 604 728 q 756 683 719 728 q 792 561 792 639 l 792 93 q 831 38 792 51 l 876 21 z "},"Ĩ":{"ha":542,"x_min":29,"x_max":511,"o":"m 35 21 l 114 47 q 154 103 154 60 l 154 869 q 114 925 154 913 l 35 951 l 35 972 l 507 972 l 507 951 l 428 925 q 388 869 388 913 l 388 103 q 428 47 388 60 l 507 21 l 507 0 l 35 0 l 35 21 m 29 1046 q 74 1184 31 1129 q 176 1239 117 1239 q 234 1231 204 1239 q 322 1201 264 1222 q 407 1176 385 1176 q 453 1194 438 1176 q 481 1256 468 1211 l 511 1243 q 465 1101 506 1157 q 368 1046 424 1046 q 295 1055 329 1046 q 218 1081 261 1064 q 125 1106 158 1106 q 82 1090 96 1106 q 58 1033 68 1075 l 29 1046 z "},"ĩ":{"ha":461,"x_min":-33,"x_max":449,"o":"m 433 21 l 433 0 l 39 0 l 39 21 l 85 38 q 124 93 124 51 l 124 590 q 86 647 124 633 l 28 669 l 28 690 l 300 728 l 349 728 l 349 93 q 388 38 349 51 l 433 21 m -33 788 q 11 926 -32 871 q 114 981 54 981 q 172 972 142 981 q 260 943 201 964 q 344 918 322 918 q 390 935 375 918 q 418 997 406 953 l 449 985 q 402 843 443 899 q 306 788 361 788 q 233 797 267 788 q 156 822 199 806 q 63 847 96 847 q 19 832 33 847 q -4 775 6 817 l -33 788 z "},"Ī":{"ha":542,"x_min":35,"x_max":507,"o":"m 35 21 l 114 47 q 154 103 154 60 l 154 869 q 114 925 154 913 l 35 951 l 35 972 l 507 972 l 507 951 l 428 925 q 388 869 388 913 l 388 103 q 428 47 388 60 l 507 21 l 507 0 l 35 0 l 35 21 m 47 1168 l 493 1168 l 493 1122 l 47 1122 l 47 1168 z "},"ī":{"ha":461,"x_min":-17,"x_max":433,"o":"m 433 21 l 433 0 l 39 0 l 39 21 l 85 38 q 124 93 124 51 l 124 590 q 86 647 124 633 l 28 669 l 28 690 l 300 728 l 349 728 l 349 93 q 388 38 349 51 l 433 21 m -17 910 l 429 910 l 429 864 l -17 864 l -17 910 z "},"Ĭ":{"ha":542,"x_min":35,"x_max":507,"o":"m 35 21 l 114 47 q 154 103 154 60 l 154 869 q 114 925 154 913 l 35 951 l 35 972 l 507 972 l 507 951 l 428 925 q 388 869 388 913 l 388 103 q 428 47 388 60 l 507 21 l 507 0 l 35 0 l 35 21 m 271 1028 q 126 1091 181 1028 q 65 1256 72 1154 l 107 1256 q 160 1168 118 1203 q 271 1133 203 1133 q 383 1168 339 1133 q 438 1256 426 1203 l 476 1256 q 415 1091 469 1154 q 271 1028 361 1028 z "},"ĭ":{"ha":461,"x_min":1,"x_max":433,"o":"m 433 21 l 433 0 l 39 0 l 39 21 l 85 38 q 124 93 124 51 l 124 590 q 86 647 124 633 l 28 669 l 28 690 l 300 728 l 349 728 l 349 93 q 388 38 349 51 l 433 21 m 207 769 q 63 833 117 769 q 1 997 8 896 l 43 997 q 97 910 54 944 q 207 875 139 875 q 319 910 275 875 q 374 997 363 944 l 413 997 q 351 833 406 896 q 207 769 297 769 z "},"Į":{"ha":542,"x_min":35,"x_max":507,"o":"m 428 925 q 388 869 388 913 l 388 103 q 428 47 388 60 l 507 21 l 507 0 l 338 0 q 277 -81 297 -44 q 257 -157 257 -118 q 278 -211 257 -190 q 333 -232 300 -232 q 407 -208 368 -232 l 421 -236 q 339 -278 392 -261 q 244 -296 286 -296 q 134 -270 174 -296 q 94 -196 94 -244 q 136 -98 94 -146 q 260 0 178 -50 l 35 0 l 35 21 l 114 47 q 154 103 154 60 l 154 869 q 114 925 154 913 l 35 951 l 35 972 l 507 972 l 507 951 l 428 925 z "},"į":{"ha":461,"x_min":28,"x_max":472,"o":"m 208 789 q 110 824 151 789 q 69 914 69 860 q 110 1001 69 967 q 208 1036 151 1036 q 306 1001 265 1036 q 347 914 347 967 q 306 824 347 860 q 208 789 265 789 m 472 -237 q 399 -280 449 -262 q 307 -297 350 -297 q 195 -264 238 -297 q 153 -175 153 -231 q 210 -73 153 -118 q 351 0 268 -28 l 39 0 l 39 21 l 85 38 q 124 93 124 51 l 124 590 q 86 647 124 633 l 28 669 l 28 690 l 300 728 l 349 728 l 349 93 q 388 38 349 51 l 433 21 l 433 -3 q 349 -67 379 -29 q 318 -144 318 -104 q 337 -205 318 -181 q 390 -229 356 -229 q 458 -210 421 -229 l 472 -237 z "},"İ":{"ha":542,"x_min":35,"x_max":507,"o":"m 35 21 l 114 47 q 154 103 154 60 l 154 869 q 114 925 154 913 l 35 951 l 35 972 l 507 972 l 507 951 l 428 925 q 388 869 388 913 l 388 103 q 428 47 388 60 l 507 21 l 507 0 l 35 0 l 35 21 m 271 1047 q 173 1083 214 1047 q 132 1172 132 1118 q 173 1260 132 1225 q 271 1294 214 1294 q 369 1260 328 1294 q 410 1172 410 1225 q 369 1083 410 1118 q 271 1047 328 1047 z "},"ı":{"ha":461,"x_min":28,"x_max":433,"o":"m 433 21 l 433 0 l 39 0 l 39 21 l 85 38 q 124 93 124 51 l 124 590 q 86 647 124 633 l 28 669 l 28 690 l 300 728 l 349 728 l 349 93 q 388 38 349 51 l 433 21 z "},"Ĳ":{"ha":1392,"x_min":35,"x_max":1357,"o":"m 35 21 l 114 47 q 154 103 154 60 l 154 869 q 114 925 154 913 l 35 951 l 35 972 l 507 972 l 507 951 l 428 925 q 388 869 388 913 l 388 103 q 428 47 388 60 l 507 21 l 507 0 l 35 0 l 35 21 m 1357 972 l 1357 951 l 1278 925 q 1238 869 1238 913 l 1238 276 q 1147 59 1238 135 q 890 -17 1056 -17 q 656 47 750 -17 q 556 242 563 111 l 785 242 q 803 131 786 179 q 848 57 821 83 q 904 31 875 31 q 977 66 950 31 q 1004 206 1004 101 l 1004 869 q 964 925 1004 913 l 885 951 l 885 972 l 1357 972 z "},"ĳ":{"ha":889,"x_min":28,"x_max":814,"o":"m 433 21 l 433 0 l 39 0 l 39 21 l 85 38 q 124 93 124 51 l 124 590 q 86 647 124 633 l 28 669 l 28 690 l 300 728 l 349 728 l 349 93 q 388 38 349 51 l 433 21 m 231 786 q 133 822 174 786 q 92 911 92 857 q 133 999 92 964 q 231 1033 174 1033 q 328 999 288 1033 q 369 911 369 964 q 328 822 369 857 q 231 786 288 786 m 799 728 l 799 51 q 768 -90 799 -32 q 658 -192 738 -149 q 438 -264 579 -235 l 426 -236 q 522 -194 496 -212 q 561 -129 549 -176 q 574 24 574 -82 l 574 590 q 536 647 574 633 l 478 669 l 478 690 l 750 728 l 799 728 m 675 789 q 577 824 618 789 q 536 914 536 860 q 577 1001 536 967 q 675 1036 618 1036 q 773 1001 732 1036 q 814 914 814 967 q 773 824 814 860 q 675 789 732 789 z "},"Ĵ":{"ha":864,"x_min":28,"x_max":829,"o":"m 829 972 l 829 951 l 750 925 q 710 869 710 913 l 710 276 q 619 59 710 135 q 363 -17 528 -17 q 128 47 222 -17 q 28 242 35 111 l 257 242 q 276 131 258 179 q 320 57 293 83 q 376 31 347 31 q 449 66 422 31 q 476 206 476 101 l 476 869 q 436 925 476 913 l 357 951 l 357 972 l 829 972 m 775 1046 l 582 1183 l 392 1046 l 353 1046 l 481 1256 l 682 1256 l 825 1046 l 775 1046 z "},"ĵ":{"ha":428,"x_min":-35,"x_max":450,"o":"m 338 728 l 338 51 q 307 -90 338 -32 q 197 -192 276 -149 q -24 -264 118 -235 l -35 -236 q 61 -194 35 -212 q 100 -129 88 -176 q 113 24 113 -82 l 113 590 q 75 647 113 633 l 17 669 l 17 690 l 289 728 l 338 728 m 400 785 l 207 922 l 17 785 l -22 785 l 106 994 l 307 994 l 450 785 l 400 785 z "},"Ķ":{"ha":1133,"x_min":35,"x_max":1113,"o":"m 1113 21 l 1113 0 l 635 0 l 635 21 l 675 32 q 710 67 710 42 q 701 94 710 81 l 494 429 q 472 454 485 447 q 438 461 458 461 l 388 461 l 388 103 q 428 47 388 60 l 507 21 l 507 0 l 35 0 l 35 21 l 114 47 q 154 103 154 60 l 154 869 q 114 925 154 913 l 35 951 l 35 972 l 507 972 l 507 951 l 428 925 q 388 869 388 913 l 388 508 l 424 508 q 483 535 458 508 l 790 886 q 800 906 800 896 q 754 933 800 924 l 679 951 l 679 972 l 1038 972 l 1038 951 l 911 918 q 881 907 893 914 q 858 888 869 900 l 632 635 l 972 88 q 1022 47 992 57 l 1113 21 m 639 -49 q 580 -217 638 -151 q 419 -331 522 -282 l 399 -311 q 439 -247 425 -285 q 453 -169 453 -208 q 421 -62 453 -106 l 639 -49 z "},"ķ":{"ha":914,"x_min":28,"x_max":897,"o":"m 897 19 l 897 0 l 593 0 l 407 332 q 349 365 389 365 l 349 93 q 388 38 349 51 l 433 21 l 433 0 l 39 0 l 39 21 l 85 38 q 124 93 124 51 l 124 846 q 86 903 124 889 l 28 925 l 28 946 l 300 983 l 349 983 l 349 407 l 363 407 q 422 432 399 407 l 610 622 q 629 650 629 642 q 597 667 629 660 l 525 683 l 525 711 l 849 711 l 849 683 l 753 664 q 697 633 719 656 l 549 488 l 781 85 q 800 60 789 68 q 829 44 811 51 l 897 19 m 576 -49 q 517 -217 575 -151 q 357 -331 460 -282 l 336 -311 q 376 -247 363 -285 q 390 -169 390 -208 q 358 -62 390 -106 l 576 -49 z "},"ĸ":{"ha":919,"x_min":28,"x_max":903,"o":"m 903 21 l 903 1 l 599 1 l 413 333 q 354 367 394 367 l 338 367 l 338 94 q 376 39 338 53 l 422 22 l 422 1 l 28 1 l 28 22 l 74 39 q 113 94 113 53 l 113 618 q 74 674 113 660 l 28 690 l 28 711 l 338 711 l 338 408 l 368 408 q 428 433 404 408 l 615 624 q 635 653 635 646 q 603 671 635 665 l 531 688 l 531 713 l 854 713 l 854 688 l 758 668 q 730 658 742 665 q 703 635 718 650 l 554 489 l 786 86 q 806 61 794 69 q 835 46 817 53 l 903 21 z "},"Ĺ":{"ha":872,"x_min":35,"x_max":844,"o":"m 844 244 l 800 0 l 35 0 l 35 21 l 114 47 q 154 103 154 60 l 154 869 q 114 925 154 913 l 35 951 l 35 972 l 507 972 l 507 951 l 428 925 q 388 869 388 913 l 388 103 q 403 63 388 78 q 442 47 418 47 l 653 47 q 684 56 671 47 q 710 83 697 65 l 824 244 l 844 244 m 232 1046 l 326 1256 l 500 1256 l 278 1046 l 232 1046 z "},"ĺ":{"ha":461,"x_min":28,"x_max":433,"o":"m 433 21 l 433 0 l 39 0 l 39 21 l 85 38 q 124 93 124 51 l 124 846 q 86 903 124 889 l 28 925 l 28 946 l 300 983 l 349 983 l 349 93 q 388 38 349 51 l 433 21 m 136 1006 l 231 1215 l 404 1215 l 182 1006 l 136 1006 z "},"Ļ":{"ha":872,"x_min":35,"x_max":844,"o":"m 844 244 l 800 0 l 35 0 l 35 21 l 114 47 q 154 103 154 60 l 154 869 q 114 925 154 913 l 35 951 l 35 972 l 507 972 l 507 951 l 428 925 q 388 869 388 913 l 388 103 q 403 63 388 78 q 442 47 418 47 l 653 47 q 684 56 671 47 q 710 83 697 65 l 824 244 l 844 244 m 540 -49 q 481 -217 539 -151 q 321 -331 424 -282 l 300 -311 q 340 -247 326 -285 q 354 -169 354 -208 q 322 -62 354 -106 l 540 -49 z "},"ļ":{"ha":461,"x_min":28,"x_max":433,"o":"m 433 21 l 433 0 l 39 0 l 39 21 l 85 38 q 124 93 124 51 l 124 846 q 86 903 124 889 l 28 925 l 28 946 l 300 983 l 349 983 l 349 93 q 388 38 349 51 l 433 21 m 336 -49 q 277 -217 335 -151 q 117 -331 219 -282 l 96 -311 q 136 -247 122 -285 q 150 -169 150 -208 q 118 -62 150 -106 l 336 -49 z "},"Ľ":{"ha":872,"x_min":35,"x_max":844,"o":"m 844 244 l 800 0 l 35 0 l 35 21 l 114 47 q 154 103 154 60 l 154 869 q 114 925 154 913 l 35 951 l 35 972 l 507 972 l 507 951 l 428 925 q 388 869 388 913 l 388 103 q 403 63 388 78 q 442 47 418 47 l 653 47 q 684 56 671 47 q 710 83 697 65 l 824 244 l 844 244 m 579 818 l 607 1097 l 738 1097 l 619 818 l 579 818 z "},"ľ":{"ha":535,"x_min":28,"x_max":563,"o":"m 433 21 l 433 0 l 39 0 l 39 21 l 85 38 q 124 93 124 51 l 124 846 q 86 903 124 889 l 28 925 l 28 946 l 300 983 l 349 983 l 349 93 q 388 38 349 51 l 433 21 m 404 788 l 432 1067 l 563 1067 l 444 788 l 404 788 z "},"Ŀ":{"ha":872,"x_min":35,"x_max":844,"o":"m 844 244 l 800 0 l 35 0 l 35 21 l 114 47 q 154 103 154 60 l 154 869 q 114 925 154 913 l 35 951 l 35 972 l 507 972 l 507 951 l 428 925 q 388 869 388 913 l 388 103 q 403 63 388 78 q 442 47 418 47 l 653 47 q 684 56 671 47 q 710 83 697 65 l 824 244 l 844 244 m 633 396 q 551 429 585 396 q 517 513 517 463 q 551 594 517 561 q 633 628 585 628 q 717 594 685 628 q 750 513 750 561 q 716 429 750 463 q 633 396 682 396 z "},"ŀ":{"ha":676,"x_min":28,"x_max":642,"o":"m 433 21 l 433 0 l 39 0 l 39 21 l 85 38 q 124 93 124 51 l 124 846 q 86 903 124 889 l 28 925 l 28 946 l 300 983 l 349 983 l 349 93 q 388 38 349 51 l 433 21 m 525 396 q 442 429 476 396 q 408 513 408 463 q 442 594 408 561 q 525 628 476 628 q 609 594 576 628 q 642 513 642 561 q 608 429 642 463 q 525 396 574 396 z "},"Ł":{"ha":872,"x_min":-6,"x_max":844,"o":"m 844 244 l 800 0 l 35 0 l 35 21 l 114 47 q 154 103 154 60 l 154 390 l 17 324 l -6 365 l 154 443 l 154 869 q 114 925 154 913 l 35 951 l 35 972 l 507 972 l 507 951 l 428 925 q 388 869 388 913 l 388 558 l 567 646 l 590 604 l 388 506 l 388 103 q 403 63 388 78 q 442 47 418 47 l 653 47 q 684 56 671 47 q 710 83 697 65 l 824 244 l 844 244 z "},"ł":{"ha":461,"x_min":-14,"x_max":489,"o":"m 349 93 q 388 38 349 51 l 433 21 l 433 0 l 39 0 l 39 21 l 85 38 q 124 93 124 51 l 124 424 l 7 367 l -14 410 l 124 478 l 124 846 q 86 903 124 889 l 28 925 l 28 946 l 300 983 l 349 983 l 349 589 l 468 647 l 489 603 l 349 535 l 349 93 z "},"Ń":{"ha":1039,"x_min":35,"x_max":1004,"o":"m 1004 972 l 1004 951 l 917 926 q 875 872 875 914 l 875 0 l 825 0 l 229 753 l 229 113 q 269 57 229 71 l 374 21 l 374 0 l 38 0 l 38 21 l 128 56 q 167 113 167 71 l 167 832 q 107 906 129 883 q 57 942 85 929 l 35 951 l 35 972 l 356 972 l 815 388 l 815 872 q 774 925 815 915 l 667 951 l 667 972 l 1004 972 m 479 1046 l 574 1256 l 747 1256 l 525 1046 l 479 1046 z "},"ń":{"ha":904,"x_min":28,"x_max":876,"o":"m 876 21 l 876 0 l 482 0 l 482 21 l 528 38 q 567 93 567 51 l 567 561 q 555 600 567 585 q 524 615 543 615 q 453 598 490 615 q 349 536 417 581 l 349 93 q 388 38 349 51 l 433 21 l 433 0 l 39 0 l 39 21 l 85 38 q 124 93 124 51 l 124 590 q 86 647 124 633 l 28 669 l 28 690 l 300 728 l 349 728 l 349 593 q 533 696 461 664 q 657 728 604 728 q 756 683 719 728 q 792 561 792 639 l 792 93 q 831 38 792 51 l 876 21 m 406 788 l 500 997 l 674 997 l 451 788 l 406 788 z "},"Ņ":{"ha":1039,"x_min":35,"x_max":1004,"o":"m 1004 972 l 1004 951 l 917 926 q 875 872 875 914 l 875 0 l 825 0 l 229 753 l 229 113 q 269 57 229 71 l 374 21 l 374 0 l 38 0 l 38 21 l 128 56 q 167 113 167 71 l 167 832 q 107 906 129 883 q 57 942 85 929 l 35 951 l 35 972 l 356 972 l 815 388 l 815 872 q 774 925 815 915 l 667 951 l 667 972 l 1004 972 m 639 -49 q 580 -217 638 -151 q 419 -331 522 -282 l 399 -311 q 439 -247 425 -285 q 453 -169 453 -208 q 421 -62 453 -106 l 639 -49 z "},"ņ":{"ha":904,"x_min":28,"x_max":876,"o":"m 876 21 l 876 0 l 482 0 l 482 21 l 528 38 q 567 93 567 51 l 567 561 q 555 600 567 585 q 524 615 543 615 q 453 598 490 615 q 349 536 417 581 l 349 93 q 388 38 349 51 l 433 21 l 433 0 l 39 0 l 39 21 l 85 38 q 124 93 124 51 l 124 590 q 86 647 124 633 l 28 669 l 28 690 l 300 728 l 349 728 l 349 593 q 533 696 461 664 q 657 728 604 728 q 756 683 719 728 q 792 561 792 639 l 792 93 q 831 38 792 51 l 876 21 m 564 -49 q 505 -217 563 -151 q 344 -331 447 -282 l 324 -311 q 364 -247 350 -285 q 378 -169 378 -208 q 346 -62 378 -106 l 564 -49 z "},"Ň":{"ha":1039,"x_min":35,"x_max":1004,"o":"m 1004 972 l 1004 951 l 917 926 q 875 872 875 914 l 875 0 l 825 0 l 229 753 l 229 113 q 269 57 229 71 l 374 21 l 374 0 l 38 0 l 38 21 l 128 56 q 167 113 167 71 l 167 832 q 107 906 129 883 q 57 942 85 929 l 35 951 l 35 972 l 356 972 l 815 388 l 815 872 q 774 925 815 915 l 667 951 l 667 972 l 1004 972 m 756 1256 l 613 1046 l 411 1046 l 283 1256 l 322 1256 l 513 1118 l 706 1256 l 756 1256 z "},"ň":{"ha":904,"x_min":28,"x_max":876,"o":"m 876 21 l 876 0 l 482 0 l 482 21 l 528 38 q 567 93 567 51 l 567 561 q 555 600 567 585 q 524 615 543 615 q 453 598 490 615 q 349 536 417 581 l 349 93 q 388 38 349 51 l 433 21 l 433 0 l 39 0 l 39 21 l 85 38 q 124 93 124 51 l 124 590 q 86 647 124 633 l 28 669 l 28 690 l 300 728 l 349 728 l 349 593 q 533 696 461 664 q 657 728 604 728 q 756 683 719 728 q 792 561 792 639 l 792 93 q 831 38 792 51 l 876 21 m 679 997 l 536 788 l 335 788 l 207 997 l 246 997 l 436 860 l 629 997 l 679 997 z "},"ŉ":{"ha":904,"x_min":28,"x_max":876,"o":"m 876 21 l 876 0 l 482 0 l 482 21 l 528 38 q 567 93 567 51 l 567 561 q 555 600 567 585 q 524 615 543 615 q 453 598 490 615 q 349 536 417 581 l 349 93 q 388 38 349 51 l 433 21 l 433 0 l 39 0 l 39 21 l 85 38 q 124 93 124 51 l 124 590 q 86 647 124 633 l 28 669 l 28 690 l 300 728 l 349 728 l 349 593 q 533 696 461 664 q 657 728 604 728 q 756 683 719 728 q 792 561 792 639 l 792 93 q 831 38 792 51 l 876 21 z "},"Ŋ":{"ha":1039,"x_min":35,"x_max":1004,"o":"m 1004 972 l 1004 951 l 917 926 q 875 872 875 914 l 875 -26 q 801 -233 875 -156 q 601 -310 728 -310 q 413 -255 490 -310 q 314 -97 336 -200 l 507 -97 q 556 -199 514 -160 q 658 -239 597 -239 q 763 -195 721 -239 q 804 -81 804 -151 q 785 26 804 -14 q 713 128 767 67 l 736 111 l 229 753 l 229 113 q 269 57 229 71 l 374 21 l 374 0 l 38 0 l 38 21 l 128 56 q 167 113 167 71 l 167 832 q 107 906 129 883 q 57 942 85 929 l 35 951 l 35 972 l 356 972 l 815 388 l 815 872 q 774 925 815 915 l 667 951 l 667 972 l 1004 972 z "},"ŋ":{"ha":819,"x_min":28,"x_max":792,"o":"m 657 728 q 756 683 719 728 q 792 561 792 639 l 792 51 q 761 -90 792 -32 q 651 -192 731 -149 q 431 -264 572 -235 l 419 -236 q 515 -194 489 -212 q 554 -129 542 -176 q 567 24 567 -82 l 567 561 q 555 600 567 585 q 524 615 543 615 q 453 598 490 615 q 349 536 417 581 l 349 93 q 388 38 349 51 l 433 21 l 433 0 l 39 0 l 39 21 l 85 38 q 124 93 124 51 l 124 593 q 86 650 124 636 l 28 672 l 28 693 l 300 731 l 349 731 l 349 593 q 533 696 461 664 q 657 728 604 728 z "},"Ō":{"ha":1043,"x_min":42,"x_max":1001,"o":"m 526 989 q 784 923 676 989 q 947 747 892 857 q 1001 508 1001 636 q 939 235 1001 356 q 766 49 876 115 q 519 -17 656 -17 q 260 50 368 -17 q 97 226 151 117 q 42 465 42 336 q 105 738 42 619 q 278 923 168 857 q 526 989 389 989 m 507 940 q 387 885 439 940 q 306 730 335 829 q 278 503 278 631 q 308 272 278 379 q 398 98 339 164 q 539 32 457 32 q 657 86 606 32 q 737 238 708 140 q 765 461 765 336 q 736 698 765 589 q 649 874 707 807 q 507 940 590 940 m 299 1168 l 744 1168 l 744 1122 l 299 1122 l 299 1168 z "},"ō":{"ha":826,"x_min":35,"x_max":792,"o":"m 406 -17 q 212 29 296 -17 q 81 159 128 75 q 35 354 35 243 q 87 548 35 463 q 226 681 139 633 q 417 728 314 728 q 613 681 528 728 q 744 550 697 635 q 792 354 792 465 q 739 163 792 247 q 598 31 686 78 q 406 -17 510 -17 m 431 25 q 495 60 467 25 q 540 159 524 96 q 557 303 557 222 q 539 478 557 389 q 484 626 521 567 q 396 686 447 686 q 331 651 360 686 q 285 552 301 615 q 268 408 268 489 q 287 233 268 322 q 342 85 306 144 q 431 25 379 25 m 185 907 l 631 907 l 631 861 l 185 861 l 185 907 z "},"Ŏ":{"ha":1043,"x_min":42,"x_max":1001,"o":"m 526 989 q 784 923 676 989 q 947 747 892 857 q 1001 508 1001 636 q 939 235 1001 356 q 766 49 876 115 q 519 -17 656 -17 q 260 50 368 -17 q 97 226 151 117 q 42 465 42 336 q 105 738 42 619 q 278 923 168 857 q 526 989 389 989 m 507 940 q 387 885 439 940 q 306 730 335 829 q 278 503 278 631 q 308 272 278 379 q 398 98 339 164 q 539 32 457 32 q 657 86 606 32 q 737 238 708 140 q 765 461 765 336 q 736 698 765 589 q 649 874 707 807 q 507 940 590 940 m 522 1028 q 378 1091 432 1028 q 317 1256 324 1154 l 358 1256 q 412 1168 369 1203 q 522 1133 454 1133 q 634 1168 590 1133 q 689 1256 678 1203 l 728 1256 q 667 1091 721 1154 q 522 1028 613 1028 z "},"ŏ":{"ha":826,"x_min":35,"x_max":792,"o":"m 406 -17 q 212 29 296 -17 q 81 159 128 75 q 35 354 35 243 q 87 548 35 463 q 226 681 139 633 q 417 728 314 728 q 613 681 528 728 q 744 550 697 635 q 792 354 792 465 q 739 163 792 247 q 598 31 686 78 q 406 -17 510 -17 m 431 25 q 495 60 467 25 q 540 159 524 96 q 557 303 557 222 q 539 478 557 389 q 484 626 521 567 q 396 686 447 686 q 331 651 360 686 q 285 552 301 615 q 268 408 268 489 q 287 233 268 322 q 342 85 306 144 q 431 25 379 25 m 408 767 q 264 830 318 767 q 203 994 210 893 l 244 994 q 298 907 256 942 q 408 872 340 872 q 520 907 476 872 q 575 994 564 942 l 614 994 q 553 830 607 893 q 408 767 499 767 z "},"Ő":{"ha":1043,"x_min":42,"x_max":1001,"o":"m 526 989 q 784 923 676 989 q 947 747 892 857 q 1001 508 1001 636 q 939 235 1001 356 q 766 49 876 115 q 519 -17 656 -17 q 260 50 368 -17 q 97 226 151 117 q 42 465 42 336 q 105 738 42 619 q 278 923 168 857 q 526 989 389 989 m 507 940 q 387 885 439 940 q 306 730 335 829 q 278 503 278 631 q 308 272 278 379 q 398 98 339 164 q 539 32 457 32 q 657 86 606 32 q 737 238 708 140 q 765 461 765 336 q 736 698 765 589 q 649 874 707 807 q 507 940 590 940 m 365 1046 l 449 1256 l 604 1256 l 414 1046 l 365 1046 m 581 1046 l 664 1256 l 833 1256 l 629 1046 l 581 1046 z "},"ő":{"ha":826,"x_min":35,"x_max":792,"o":"m 406 -17 q 212 29 296 -17 q 81 159 128 75 q 35 354 35 243 q 87 548 35 463 q 226 681 139 633 q 417 728 314 728 q 613 681 528 728 q 744 550 697 635 q 792 354 792 465 q 739 163 792 247 q 598 31 686 78 q 406 -17 510 -17 m 431 25 q 495 60 467 25 q 540 159 524 96 q 557 303 557 222 q 539 478 557 389 q 484 626 521 567 q 396 686 447 686 q 331 651 360 686 q 285 552 301 615 q 268 408 268 489 q 287 233 268 322 q 342 85 306 144 q 431 25 379 25 m 251 785 l 335 994 l 490 994 l 300 785 l 251 785 m 467 785 l 550 994 l 719 994 l 515 785 l 467 785 z "},"Œ":{"ha":1435,"x_min":42,"x_max":1407,"o":"m 1363 0 l 633 0 q 515 -17 582 -17 q 263 48 369 -17 q 99 224 156 113 q 42 472 42 335 q 108 735 42 617 q 290 921 174 853 q 554 989 407 989 q 733 972 633 989 l 1349 972 l 1393 728 l 1372 728 l 1258 889 q 1233 916 1246 907 q 1201 925 1219 925 l 950 925 l 950 556 l 1094 556 q 1150 594 1133 556 l 1199 699 l 1219 699 l 1219 365 l 1199 365 l 1150 469 q 1094 508 1133 508 l 950 508 l 950 103 q 965 63 950 78 q 1004 47 981 47 l 1215 47 q 1247 56 1233 47 q 1272 83 1260 65 l 1386 244 l 1407 244 l 1363 0 m 278 554 q 313 313 278 418 q 418 150 349 208 q 583 92 488 92 q 717 119 658 92 l 717 869 q 708 901 717 888 q 557 947 640 947 q 344 842 411 947 q 278 554 278 738 z "},"œ":{"ha":1281,"x_min":35,"x_max":1246,"o":"m 1044 139 q 1146 165 1097 139 q 1221 235 1194 190 l 1244 225 q 1128 53 1214 122 q 917 -17 1043 -17 q 669 79 761 -17 q 549 8 617 33 q 406 -17 481 -17 q 212 29 296 -17 q 81 159 128 75 q 35 354 35 243 q 87 548 35 463 q 226 681 139 633 q 417 728 314 728 q 682 632 578 728 q 794 703 729 678 q 938 728 860 728 q 1171 647 1097 728 q 1246 404 1244 567 l 789 404 l 792 374 q 838 244 800 297 q 930 165 875 190 q 1044 139 985 139 m 431 25 q 495 60 467 25 q 540 159 524 96 q 557 303 557 222 q 539 478 557 389 q 484 626 521 567 q 396 686 447 686 q 331 651 360 686 q 285 552 301 615 q 268 408 268 489 q 287 233 268 322 q 342 85 306 144 q 431 25 379 25 m 914 686 q 827 624 861 686 q 789 446 793 561 l 1025 446 q 994 624 1022 563 q 914 686 965 686 z "},"Ŕ":{"ha":1057,"x_min":35,"x_max":1043,"o":"m 922 89 q 965 38 935 53 q 1043 21 996 24 l 1043 0 l 699 0 l 575 335 q 502 425 554 392 q 401 458 450 458 l 388 458 l 388 103 q 398 67 388 82 q 428 47 408 51 l 558 21 l 558 0 l 35 0 l 35 21 l 114 47 q 154 103 154 60 l 154 869 q 114 925 154 913 l 35 951 l 35 972 l 471 972 q 754 913 660 972 q 849 721 849 854 q 560 463 849 493 q 731 439 657 463 q 832 340 804 415 l 922 89 m 433 506 q 564 565 518 506 q 610 721 610 624 q 433 925 610 925 l 388 925 l 388 506 l 433 506 m 426 1046 l 521 1256 l 694 1256 l 472 1046 l 426 1046 z "},"ŕ":{"ha":686,"x_min":28,"x_max":644,"o":"m 592 735 q 644 728 621 735 l 644 517 q 519 542 593 542 q 410 516 456 542 q 349 447 365 490 l 349 106 q 358 72 349 85 q 386 50 367 58 l 461 21 l 461 0 l 39 0 l 39 21 l 89 47 q 124 104 124 65 l 124 590 q 86 647 124 633 l 28 669 l 28 690 l 300 728 l 349 728 l 349 522 q 445 683 381 632 q 592 735 510 735 m 321 785 l 415 994 l 589 994 l 367 785 l 321 785 z "},"Ŗ":{"ha":1057,"x_min":35,"x_max":1043,"o":"m 922 89 q 965 38 935 53 q 1043 21 996 24 l 1043 0 l 699 0 l 575 335 q 502 425 554 392 q 401 458 450 458 l 388 458 l 388 103 q 398 67 388 82 q 428 47 408 51 l 558 21 l 558 0 l 35 0 l 35 21 l 114 47 q 154 103 154 60 l 154 869 q 114 925 154 913 l 35 951 l 35 972 l 471 972 q 754 913 660 972 q 849 721 849 854 q 560 463 849 493 q 731 439 657 463 q 832 340 804 415 l 922 89 m 433 506 q 564 565 518 506 q 610 721 610 624 q 433 925 610 925 l 388 925 l 388 506 l 433 506 m 649 -49 q 590 -217 647 -151 q 429 -331 532 -282 l 408 -311 q 449 -247 435 -285 q 463 -169 463 -208 q 431 -62 463 -106 l 649 -49 z "},"ŗ":{"ha":686,"x_min":28,"x_max":644,"o":"m 592 735 q 644 728 621 735 l 644 517 q 519 542 593 542 q 410 516 456 542 q 349 447 365 490 l 349 106 q 358 72 349 85 q 386 50 367 58 l 461 21 l 461 0 l 39 0 l 39 21 l 89 47 q 124 104 124 65 l 124 590 q 86 647 124 633 l 28 669 l 28 690 l 300 728 l 349 728 l 349 522 q 445 683 381 632 q 592 735 510 735 m 351 -49 q 292 -217 350 -151 q 132 -331 235 -282 l 111 -311 q 151 -247 138 -285 q 165 -169 165 -208 q 133 -62 165 -106 l 351 -49 z "},"Ř":{"ha":1057,"x_min":35,"x_max":1043,"o":"m 922 89 q 965 38 935 53 q 1043 21 996 24 l 1043 0 l 699 0 l 575 335 q 502 425 554 392 q 401 458 450 458 l 388 458 l 388 103 q 398 67 388 82 q 428 47 408 51 l 558 21 l 558 0 l 35 0 l 35 21 l 114 47 q 154 103 154 60 l 154 869 q 114 925 154 913 l 35 951 l 35 972 l 471 972 q 754 913 660 972 q 849 721 849 854 q 560 463 849 493 q 731 439 657 463 q 832 340 804 415 l 922 89 m 433 506 q 564 565 518 506 q 610 721 610 624 q 433 925 610 925 l 388 925 l 388 506 l 433 506 m 703 1256 l 560 1046 l 358 1046 l 231 1256 l 269 1256 l 460 1118 l 653 1256 l 703 1256 z "},"ř":{"ha":686,"x_min":28,"x_max":644,"o":"m 592 735 q 644 728 621 735 l 644 517 q 519 542 593 542 q 410 516 456 542 q 349 447 365 490 l 349 106 q 358 72 349 85 q 386 50 367 58 l 461 21 l 461 0 l 39 0 l 39 21 l 89 47 q 124 104 124 65 l 124 590 q 86 647 124 633 l 28 669 l 28 690 l 300 728 l 349 728 l 349 522 q 445 683 381 632 q 592 735 510 735 m 597 994 l 454 785 l 253 785 l 125 994 l 164 994 l 354 857 l 547 994 l 597 994 z "},"Ś":{"ha":793,"x_min":49,"x_max":758,"o":"m 69 300 q 133 158 85 219 q 248 62 182 96 q 378 28 314 28 q 499 72 457 28 q 542 189 542 117 q 512 289 542 247 q 437 358 482 331 q 324 414 392 385 q 187 482 242 450 q 90 572 132 514 q 49 714 49 629 q 90 856 49 793 q 210 953 132 918 q 396 989 289 989 q 688 917 563 989 l 688 708 l 667 708 q 617 833 654 778 q 528 918 581 888 q 417 949 475 949 q 294 907 339 949 q 250 807 250 865 q 303 687 250 731 q 461 600 357 643 q 685 464 611 539 q 758 278 758 389 q 710 121 758 188 q 574 19 661 54 q 372 -17 486 -17 q 201 -1 279 -17 q 49 51 124 15 l 49 300 l 69 300 m 357 1046 l 451 1256 l 625 1256 l 403 1046 l 357 1046 z "},"ś":{"ha":654,"x_min":56,"x_max":631,"o":"m 322 -17 q 188 -6 256 -17 q 68 24 121 4 l 68 231 l 89 231 q 178 81 117 136 q 326 25 240 25 q 424 57 389 25 q 460 132 460 89 q 441 196 460 172 q 384 234 422 219 q 267 268 346 249 q 119 338 183 289 q 56 500 56 388 q 133 666 56 604 q 336 728 211 728 q 558 690 476 728 l 558 503 l 538 503 q 459 634 510 582 q 332 686 408 686 q 249 658 275 686 q 222 599 222 629 q 257 519 222 549 q 367 468 292 489 q 490 424 436 449 q 588 351 544 400 q 631 226 631 301 q 592 104 631 160 q 484 16 554 49 q 322 -17 414 -17 m 274 785 l 368 994 l 542 994 l 319 785 l 274 785 z "},"Ŝ":{"ha":793,"x_min":49,"x_max":758,"o":"m 69 300 q 133 158 85 219 q 248 62 182 96 q 378 28 314 28 q 499 72 457 28 q 542 189 542 117 q 512 289 542 247 q 437 358 482 331 q 324 414 392 385 q 187 482 242 450 q 90 572 132 514 q 49 714 49 629 q 90 856 49 793 q 210 953 132 918 q 396 989 289 989 q 688 917 563 989 l 688 708 l 667 708 q 617 833 654 778 q 528 918 581 888 q 417 949 475 949 q 294 907 339 949 q 250 807 250 865 q 303 687 250 731 q 461 600 357 643 q 685 464 611 539 q 758 278 758 389 q 710 121 758 188 q 574 19 661 54 q 372 -17 486 -17 q 201 -1 279 -17 q 49 51 124 15 l 49 300 l 69 300 m 583 1046 l 390 1183 l 200 1046 l 161 1046 l 289 1256 l 490 1256 l 633 1046 l 583 1046 z "},"ŝ":{"ha":654,"x_min":56,"x_max":631,"o":"m 322 -17 q 188 -6 256 -17 q 68 24 121 4 l 68 231 l 89 231 q 178 81 117 136 q 326 25 240 25 q 424 57 389 25 q 460 132 460 89 q 441 196 460 172 q 384 234 422 219 q 267 268 346 249 q 119 338 183 289 q 56 500 56 388 q 133 666 56 604 q 336 728 211 728 q 558 690 476 728 l 558 503 l 538 503 q 459 634 510 582 q 332 686 408 686 q 249 658 275 686 q 222 599 222 629 q 257 519 222 549 q 367 468 292 489 q 490 424 436 449 q 588 351 544 400 q 631 226 631 301 q 592 104 631 160 q 484 16 554 49 q 322 -17 414 -17 m 500 785 l 307 922 l 117 785 l 78 785 l 206 994 l 407 994 l 550 785 l 500 785 z "},"Ş":{"ha":793,"x_min":49,"x_max":758,"o":"m 758 278 q 659 67 758 146 q 394 -17 560 -11 l 365 -71 q 467 -110 422 -83 q 511 -182 511 -137 q 460 -276 511 -244 q 325 -307 410 -307 q 256 -303 292 -307 l 256 -282 q 385 -211 385 -285 q 358 -168 385 -186 q 283 -140 332 -150 l 354 -17 q 194 1 268 -15 q 49 51 121 17 l 49 300 l 69 300 q 133 158 85 219 q 248 62 182 96 q 378 28 314 28 q 499 72 457 28 q 542 189 542 117 q 512 289 542 247 q 437 358 482 331 q 324 414 392 385 q 187 482 242 450 q 90 572 132 514 q 49 714 49 629 q 90 856 49 793 q 210 953 132 918 q 396 989 289 989 q 688 917 563 989 l 688 708 l 667 708 q 617 833 654 778 q 528 918 581 888 q 417 949 475 949 q 294 907 339 949 q 250 807 250 865 q 303 687 250 731 q 461 600 357 643 q 685 464 611 539 q 758 278 758 389 z "},"ş":{"ha":654,"x_min":56,"x_max":631,"o":"m 367 468 q 490 424 436 449 q 588 351 544 400 q 631 226 631 301 q 594 107 631 161 q 492 19 558 53 q 339 -17 426 -14 l 310 -71 q 411 -110 367 -83 q 456 -182 456 -137 q 405 -276 456 -244 q 269 -307 354 -307 q 200 -303 235 -307 l 200 -282 q 329 -211 329 -285 q 303 -168 329 -186 q 228 -140 276 -150 l 299 -17 q 68 24 174 -12 l 68 231 l 89 231 q 178 81 117 136 q 326 25 240 25 q 424 57 389 25 q 460 132 460 89 q 441 196 460 172 q 384 234 422 219 q 267 268 346 249 q 119 338 183 289 q 56 500 56 388 q 133 666 56 604 q 336 728 211 728 q 558 690 476 728 l 558 503 l 538 503 q 459 634 510 582 q 332 686 408 686 q 249 658 275 686 q 222 599 222 629 q 257 519 222 549 q 367 468 292 489 z "},"Š":{"ha":793,"x_min":49,"x_max":758,"o":"m 69 300 q 133 158 85 219 q 248 62 182 96 q 378 28 314 28 q 499 72 457 28 q 542 189 542 117 q 512 289 542 247 q 437 358 482 331 q 324 414 392 385 q 187 482 242 450 q 90 572 132 514 q 49 714 49 629 q 90 856 49 793 q 210 953 132 918 q 396 989 289 989 q 688 917 563 989 l 688 708 l 667 708 q 617 833 654 778 q 528 918 581 888 q 417 949 475 949 q 294 907 339 949 q 250 807 250 865 q 303 687 250 731 q 461 600 357 643 q 685 464 611 539 q 758 278 758 389 q 710 121 758 188 q 574 19 661 54 q 372 -17 486 -17 q 201 -1 279 -17 q 49 51 124 15 l 49 300 l 69 300 m 633 1256 l 490 1046 l 289 1046 l 161 1256 l 200 1256 l 390 1118 l 583 1256 l 633 1256 z "},"š":{"ha":654,"x_min":56,"x_max":631,"o":"m 322 -17 q 188 -6 256 -17 q 68 24 121 4 l 68 231 l 89 231 q 178 81 117 136 q 326 25 240 25 q 424 57 389 25 q 460 132 460 89 q 441 196 460 172 q 384 234 422 219 q 267 268 346 249 q 119 338 183 289 q 56 500 56 388 q 133 666 56 604 q 336 728 211 728 q 558 690 476 728 l 558 503 l 538 503 q 459 634 510 582 q 332 686 408 686 q 249 658 275 686 q 222 599 222 629 q 257 519 222 549 q 367 468 292 489 q 490 424 436 449 q 588 351 544 400 q 631 226 631 301 q 592 104 631 160 q 484 16 554 49 q 322 -17 414 -17 m 550 994 l 407 785 l 206 785 l 78 994 l 117 994 l 307 857 l 500 994 l 550 994 z "},"Ţ":{"ha":983,"x_min":28,"x_max":956,"o":"m 256 21 l 335 47 q 375 103 375 63 l 375 925 l 219 925 q 188 916 201 925 q 163 889 175 907 l 49 728 l 28 728 l 72 972 l 911 972 l 956 728 l 935 728 l 821 889 q 795 916 808 907 q 764 925 782 925 l 608 925 l 608 103 q 649 47 608 63 l 728 21 l 728 0 l 256 0 l 256 21 m 350 -282 q 479 -211 479 -285 q 453 -168 479 -186 q 378 -140 426 -150 l 458 0 l 497 0 l 460 -71 q 561 -110 517 -83 q 606 -182 606 -137 q 555 -276 606 -244 q 419 -307 504 -307 q 350 -303 385 -307 l 350 -282 z "},"ţ":{"ha":614,"x_min":42,"x_max":572,"o":"m 419 711 l 572 711 l 572 669 l 419 669 l 419 0 l 194 0 l 194 669 l 42 669 l 42 711 l 201 711 l 201 886 l 399 972 l 419 972 l 419 711 m 193 -282 q 322 -211 322 -285 q 296 -168 322 -186 q 221 -140 269 -150 l 301 0 l 340 0 l 303 -71 q 404 -110 360 -83 q 449 -182 449 -137 q 398 -276 449 -244 q 263 -307 347 -307 q 193 -303 228 -307 l 193 -282 z "},"Ť":{"ha":983,"x_min":28,"x_max":956,"o":"m 256 21 l 335 47 q 375 103 375 63 l 375 925 l 219 925 q 188 916 201 925 q 163 889 175 907 l 49 728 l 28 728 l 72 972 l 911 972 l 956 728 l 935 728 l 821 889 q 795 916 808 907 q 764 925 782 925 l 608 925 l 608 103 q 649 47 608 63 l 728 21 l 728 0 l 256 0 l 256 21 m 728 1256 l 585 1046 l 383 1046 l 256 1256 l 294 1256 l 485 1118 l 678 1256 l 728 1256 z "},"ť":{"ha":643,"x_min":42,"x_max":643,"o":"m 419 711 l 572 711 l 572 669 l 419 669 l 419 0 l 194 0 l 194 669 l 42 669 l 42 711 l 201 711 l 201 886 l 399 972 l 419 972 l 419 711 m 485 788 l 513 1067 l 643 1067 l 525 788 l 485 788 z "},"Ŧ":{"ha":983,"x_min":28,"x_max":956,"o":"m 956 728 l 935 728 l 821 889 q 795 916 808 907 q 764 925 782 925 l 608 925 l 608 507 l 736 507 l 736 465 l 608 465 l 608 103 q 649 47 608 63 l 728 21 l 728 0 l 256 0 l 256 21 l 335 47 q 375 103 375 63 l 375 465 l 247 465 l 247 507 l 375 507 l 375 925 l 219 925 q 188 916 201 925 q 163 889 175 907 l 49 728 l 28 728 l 72 972 l 911 972 l 956 728 z "},"ŧ":{"ha":614,"x_min":42,"x_max":572,"o":"m 419 669 l 419 376 l 551 376 l 551 335 l 419 335 l 419 0 l 194 0 l 194 335 l 63 335 l 63 376 l 194 376 l 194 669 l 42 669 l 42 711 l 201 711 l 201 886 l 399 972 l 419 972 l 419 711 l 572 711 l 572 669 l 419 669 z "},"Ũ":{"ha":1060,"x_min":35,"x_max":1025,"o":"m 1025 972 l 1025 951 l 940 926 q 899 872 899 914 l 899 347 q 814 74 899 169 q 563 -21 729 -21 q 255 73 356 -21 q 154 342 154 167 l 154 869 q 114 925 154 913 l 35 951 l 35 972 l 507 972 l 507 951 l 428 925 q 404 906 410 919 q 399 868 399 893 l 399 325 q 444 122 399 188 q 599 57 490 57 q 772 126 708 57 q 836 331 836 194 l 836 871 q 831 904 836 892 q 808 921 825 917 l 700 951 l 700 972 l 1025 972 m 331 1046 q 375 1184 332 1129 q 478 1239 418 1239 q 535 1231 506 1239 q 624 1201 565 1222 q 708 1176 686 1176 q 754 1194 739 1176 q 782 1256 769 1211 l 813 1243 q 766 1101 807 1157 q 669 1046 725 1046 q 597 1055 631 1046 q 519 1081 563 1064 q 426 1106 460 1106 q 383 1090 397 1106 q 360 1033 369 1075 l 331 1046 z "},"ũ":{"ha":915,"x_min":28,"x_max":888,"o":"m 888 42 l 888 21 l 615 -17 l 567 -17 l 567 118 q 383 15 454 47 q 258 -17 311 -17 q 160 28 196 -17 q 124 150 124 72 l 124 590 q 86 647 124 633 l 28 669 l 28 690 l 300 728 l 349 728 l 349 150 q 360 111 349 126 q 392 96 372 96 q 462 113 425 96 q 567 175 499 131 l 567 590 q 529 647 567 633 l 471 669 l 471 690 l 743 728 l 792 728 l 792 121 q 829 64 792 78 l 888 42 m 219 785 q 264 923 221 868 q 367 978 307 978 q 424 969 394 978 q 513 940 454 961 q 597 915 575 915 q 643 933 628 915 q 671 994 658 950 l 701 982 q 655 840 696 896 q 558 785 614 785 q 485 794 519 785 q 408 819 451 803 q 315 844 349 844 q 272 829 286 844 q 249 772 258 814 l 219 785 z "},"Ū":{"ha":1060,"x_min":35,"x_max":1025,"o":"m 1025 972 l 1025 951 l 940 926 q 899 872 899 914 l 899 347 q 814 74 899 169 q 563 -21 729 -21 q 255 73 356 -21 q 154 342 154 167 l 154 869 q 114 925 154 913 l 35 951 l 35 972 l 507 972 l 507 951 l 428 925 q 404 906 410 919 q 399 868 399 893 l 399 325 q 444 122 399 188 q 599 57 490 57 q 772 126 708 57 q 836 331 836 194 l 836 871 q 831 904 836 892 q 808 921 825 917 l 700 951 l 700 972 l 1025 972 m 349 1168 l 794 1168 l 794 1122 l 349 1122 l 349 1168 z "},"ū":{"ha":915,"x_min":28,"x_max":888,"o":"m 888 42 l 888 21 l 615 -17 l 567 -17 l 567 118 q 383 15 454 47 q 258 -17 311 -17 q 160 28 196 -17 q 124 150 124 72 l 124 590 q 86 647 124 633 l 28 669 l 28 690 l 300 728 l 349 728 l 349 150 q 360 111 349 126 q 392 96 372 96 q 462 113 425 96 q 567 175 499 131 l 567 590 q 529 647 567 633 l 471 669 l 471 690 l 743 728 l 792 728 l 792 121 q 829 64 792 78 l 888 42 m 238 907 l 683 907 l 683 861 l 238 861 l 238 907 z "},"Ŭ":{"ha":1060,"x_min":35,"x_max":1025,"o":"m 1025 972 l 1025 951 l 940 926 q 899 872 899 914 l 899 347 q 814 74 899 169 q 563 -21 729 -21 q 255 73 356 -21 q 154 342 154 167 l 154 869 q 114 925 154 913 l 35 951 l 35 972 l 507 972 l 507 951 l 428 925 q 404 906 410 919 q 399 868 399 893 l 399 325 q 444 122 399 188 q 599 57 490 57 q 772 126 708 57 q 836 331 836 194 l 836 871 q 831 904 836 892 q 808 921 825 917 l 700 951 l 700 972 l 1025 972 m 572 1028 q 428 1091 482 1028 q 367 1256 374 1154 l 408 1256 q 462 1168 419 1203 q 572 1133 504 1133 q 684 1168 640 1133 q 739 1256 728 1203 l 778 1256 q 717 1091 771 1154 q 572 1028 663 1028 z "},"ŭ":{"ha":915,"x_min":28,"x_max":888,"o":"m 888 42 l 888 21 l 615 -17 l 567 -17 l 567 118 q 383 15 454 47 q 258 -17 311 -17 q 160 28 196 -17 q 124 150 124 72 l 124 590 q 86 647 124 633 l 28 669 l 28 690 l 300 728 l 349 728 l 349 150 q 360 111 349 126 q 392 96 372 96 q 462 113 425 96 q 567 175 499 131 l 567 590 q 529 647 567 633 l 471 669 l 471 690 l 743 728 l 792 728 l 792 121 q 829 64 792 78 l 888 42 m 458 767 q 314 830 368 767 q 253 994 260 893 l 294 994 q 348 907 306 942 q 458 872 390 872 q 570 907 526 872 q 625 994 614 942 l 664 994 q 603 830 657 893 q 458 767 549 767 z "},"Ů":{"ha":1060,"x_min":35,"x_max":1025,"o":"m 1025 972 l 1025 951 l 940 926 q 899 872 899 914 l 899 347 q 814 74 899 169 q 563 -21 729 -21 q 255 73 356 -21 q 154 342 154 167 l 154 869 q 114 925 154 913 l 35 951 l 35 972 l 507 972 l 507 951 l 428 925 q 404 906 410 919 q 399 868 399 893 l 399 325 q 444 122 399 188 q 599 57 490 57 q 772 126 708 57 q 836 331 836 194 l 836 871 q 831 904 836 892 q 808 921 825 917 l 700 951 l 700 972 l 1025 972 m 572 1029 q 458 1072 504 1029 q 411 1178 411 1114 q 458 1285 411 1243 q 572 1328 504 1328 q 687 1285 640 1328 q 733 1178 733 1243 q 687 1072 733 1114 q 572 1029 640 1029 m 572 1074 q 647 1101 618 1074 q 675 1178 675 1129 q 646 1254 675 1225 q 572 1283 617 1283 q 499 1254 528 1283 q 471 1178 471 1225 q 499 1101 471 1129 q 572 1074 528 1074 z "},"ů":{"ha":915,"x_min":28,"x_max":888,"o":"m 888 42 l 888 21 l 615 -17 l 567 -17 l 567 118 q 383 15 454 47 q 258 -17 311 -17 q 160 28 196 -17 q 124 150 124 72 l 124 590 q 86 647 124 633 l 28 669 l 28 690 l 300 728 l 349 728 l 349 150 q 360 111 349 126 q 392 96 372 96 q 462 113 425 96 q 567 175 499 131 l 567 590 q 529 647 567 633 l 471 669 l 471 690 l 743 728 l 792 728 l 792 121 q 829 64 792 78 l 888 42 m 461 768 q 347 810 393 768 q 300 917 300 853 q 347 1024 300 982 q 461 1067 393 1067 q 576 1024 529 1067 q 622 917 622 982 q 576 810 622 853 q 461 768 529 768 m 461 813 q 535 840 507 813 q 564 917 564 868 q 535 993 564 964 q 461 1022 506 1022 q 388 993 417 1022 q 360 917 360 964 q 388 840 360 868 q 461 813 417 813 z "},"Ű":{"ha":1060,"x_min":35,"x_max":1025,"o":"m 1025 972 l 1025 951 l 940 926 q 899 872 899 914 l 899 347 q 814 74 899 169 q 563 -21 729 -21 q 255 73 356 -21 q 154 342 154 167 l 154 869 q 114 925 154 913 l 35 951 l 35 972 l 507 972 l 507 951 l 428 925 q 404 906 410 919 q 399 868 399 893 l 399 325 q 444 122 399 188 q 599 57 490 57 q 772 126 708 57 q 836 331 836 194 l 836 871 q 831 904 836 892 q 808 921 825 917 l 700 951 l 700 972 l 1025 972 m 415 1046 l 499 1256 l 654 1256 l 464 1046 l 415 1046 m 631 1046 l 714 1256 l 883 1256 l 679 1046 l 631 1046 z "},"ű":{"ha":915,"x_min":28,"x_max":888,"o":"m 888 42 l 888 21 l 615 -17 l 567 -17 l 567 118 q 383 15 454 47 q 258 -17 311 -17 q 160 28 196 -17 q 124 150 124 72 l 124 590 q 86 647 124 633 l 28 669 l 28 690 l 300 728 l 349 728 l 349 150 q 360 111 349 126 q 392 96 372 96 q 462 113 425 96 q 567 175 499 131 l 567 590 q 529 647 567 633 l 471 669 l 471 690 l 743 728 l 792 728 l 792 121 q 829 64 792 78 l 888 42 m 304 785 l 388 994 l 543 994 l 353 785 l 304 785 m 519 785 l 603 994 l 772 994 l 568 785 l 519 785 z "},"Ų":{"ha":1060,"x_min":35,"x_max":1025,"o":"m 1025 972 l 1025 951 l 940 926 q 899 872 899 914 l 899 347 q 763 31 899 118 q 680 -70 706 -29 q 654 -157 654 -111 q 676 -211 654 -190 q 731 -232 697 -232 q 804 -208 765 -232 l 818 -236 q 736 -278 789 -261 q 642 -296 683 -296 q 531 -270 571 -296 q 492 -196 492 -244 q 632 -17 492 -107 q 563 -21 599 -21 q 255 73 356 -21 q 154 342 154 167 l 154 869 q 114 925 154 913 l 35 951 l 35 972 l 507 972 l 507 951 l 428 925 q 404 906 410 919 q 399 868 399 893 l 399 325 q 444 122 399 188 q 599 57 490 57 q 772 126 708 57 q 836 331 836 194 l 836 871 q 831 904 836 892 q 808 921 825 917 l 700 951 l 700 972 l 1025 972 z "},"ų":{"ha":915,"x_min":28,"x_max":888,"o":"m 761 3 q 709 -72 726 -37 q 692 -142 692 -106 q 713 -196 692 -175 q 768 -217 735 -217 q 842 -193 803 -217 l 856 -221 q 774 -263 826 -246 q 679 -281 721 -281 q 569 -255 608 -281 q 529 -181 529 -229 q 654 -11 529 -96 l 615 -17 l 567 -17 l 567 118 q 383 15 454 47 q 258 -17 311 -17 q 160 28 196 -17 q 124 150 124 72 l 124 590 q 86 647 124 633 l 28 669 l 28 690 l 300 728 l 349 728 l 349 150 q 360 111 349 126 q 392 96 372 96 q 462 113 425 96 q 567 175 499 131 l 567 590 q 529 647 567 633 l 471 669 l 471 690 l 743 728 l 792 728 l 792 121 q 829 64 792 78 l 888 42 l 888 21 l 761 3 z "},"Ŵ":{"ha":1447,"x_min":14,"x_max":1433,"o":"m 1089 251 l 1258 854 q 1261 872 1261 868 q 1226 915 1261 903 l 1128 951 l 1128 972 l 1433 972 l 1433 951 l 1374 924 q 1332 864 1346 911 l 1078 0 l 931 0 l 736 576 l 543 0 l 388 0 l 103 865 q 64 925 88 911 l 14 951 l 14 972 l 479 972 l 479 951 l 386 915 q 354 874 354 903 q 357 854 354 861 l 547 221 l 749 824 l 896 824 l 1089 251 m 979 1046 l 786 1183 l 596 1046 l 557 1046 l 685 1256 l 886 1256 l 1029 1046 l 979 1046 z "},"ŵ":{"ha":1260,"x_min":21,"x_max":1239,"o":"m 926 201 l 1065 606 q 1069 626 1069 617 q 1035 668 1069 658 l 961 690 l 961 711 l 1239 711 l 1239 690 l 1179 665 q 1149 648 1160 658 q 1133 619 1139 638 l 915 0 l 781 0 l 624 447 l 464 0 l 331 0 l 107 625 q 91 652 101 642 q 61 671 81 663 l 21 690 l 21 711 l 413 711 l 413 690 l 376 672 q 344 632 344 657 q 349 610 344 622 l 476 200 l 632 650 l 776 650 l 926 201 m 828 785 l 635 922 l 444 785 l 406 785 l 533 994 l 735 994 l 878 785 l 828 785 z "},"Ŷ":{"ha":939,"x_min":7,"x_max":932,"o":"m 932 951 l 861 926 q 813 882 826 914 l 594 417 l 594 100 q 635 46 594 58 l 715 21 l 715 0 l 242 0 l 242 21 l 321 46 q 361 100 361 58 l 361 382 l 110 883 q 64 929 90 919 l 7 951 l 7 972 l 443 972 l 443 951 l 383 932 q 356 915 367 926 q 346 890 346 904 q 351 868 346 879 l 547 456 l 739 868 q 744 893 744 881 q 713 931 744 918 l 656 951 l 656 972 l 932 972 l 932 951 m 686 1046 l 493 1183 l 303 1046 l 264 1046 l 392 1256 l 593 1256 l 736 1046 l 686 1046 z "},"ŷ":{"ha":886,"x_min":21,"x_max":865,"o":"m 865 711 l 865 690 l 792 665 q 744 619 758 654 l 471 -82 q 382 -230 433 -178 q 233 -282 331 -282 q 165 -275 203 -282 l 165 -126 q 282 -146 235 -146 q 369 -131 332 -146 q 422 -85 407 -117 l 426 -75 l 129 619 q 78 667 115 650 l 21 690 l 21 711 l 432 711 l 432 690 l 383 671 q 357 636 357 660 q 363 608 357 621 l 526 197 l 685 606 q 690 628 690 622 q 654 667 690 656 l 572 690 l 572 711 l 865 711 m 629 785 l 436 922 l 246 785 l 207 785 l 335 994 l 536 994 l 679 785 l 629 785 z "},"Ÿ":{"ha":939,"x_min":7,"x_max":932,"o":"m 932 951 l 861 926 q 813 882 826 914 l 594 417 l 594 100 q 635 46 594 58 l 715 21 l 715 0 l 242 0 l 242 21 l 321 46 q 361 100 361 58 l 361 382 l 110 883 q 64 929 90 919 l 7 951 l 7 972 l 443 972 l 443 951 l 383 932 q 356 915 367 926 q 346 890 346 904 q 351 868 346 879 l 547 456 l 739 868 q 744 893 744 881 q 713 931 744 918 l 656 951 l 656 972 l 932 972 l 932 951 m 357 1057 q 269 1089 306 1057 q 232 1169 232 1121 q 269 1249 232 1217 q 357 1281 306 1281 q 445 1249 408 1281 q 482 1169 482 1217 q 445 1089 482 1121 q 357 1057 408 1057 m 643 1057 q 555 1089 592 1057 q 518 1169 518 1121 q 555 1249 518 1217 q 643 1281 592 1281 q 731 1249 694 1281 q 768 1169 768 1217 q 731 1089 768 1121 q 643 1057 694 1057 z "},"Ź":{"ha":892,"x_min":35,"x_max":857,"o":"m 857 244 l 813 0 l 35 0 l 35 47 l 590 925 l 263 925 q 231 916 244 925 q 206 889 218 907 l 92 728 l 71 728 l 115 972 l 853 972 l 853 925 l 297 47 l 665 47 q 697 56 683 47 q 722 83 710 65 l 836 244 l 857 244 m 433 1046 l 528 1256 l 701 1256 l 479 1046 l 433 1046 z "},"ź":{"ha":743,"x_min":35,"x_max":701,"o":"m 688 635 l 271 42 l 500 42 q 554 58 529 42 q 594 101 579 74 l 681 257 l 701 257 l 654 0 l 35 0 l 35 76 l 451 669 l 250 669 q 201 658 221 669 q 163 619 181 646 l 69 476 l 49 476 l 103 711 l 688 711 l 688 635 m 332 785 l 426 994 l 600 994 l 378 785 l 332 785 z "},"Ż":{"ha":892,"x_min":35,"x_max":857,"o":"m 857 244 l 813 0 l 35 0 l 35 47 l 590 925 l 263 925 q 231 916 244 925 q 206 889 218 907 l 92 728 l 71 728 l 115 972 l 853 972 l 853 925 l 297 47 l 665 47 q 697 56 683 47 q 722 83 710 65 l 836 244 l 857 244 m 474 1047 q 376 1083 417 1047 q 335 1172 335 1118 q 376 1260 335 1225 q 474 1294 417 1294 q 572 1260 531 1294 q 613 1172 613 1225 q 572 1083 613 1118 q 474 1047 531 1047 z "},"ż":{"ha":743,"x_min":35,"x_max":701,"o":"m 688 635 l 271 42 l 500 42 q 554 58 529 42 q 594 101 579 74 l 681 257 l 701 257 l 654 0 l 35 0 l 35 76 l 451 669 l 250 669 q 201 658 221 669 q 163 619 181 646 l 69 476 l 49 476 l 103 711 l 688 711 l 688 635 m 372 786 q 274 822 315 786 q 233 911 233 857 q 274 999 233 964 q 372 1033 315 1033 q 470 999 429 1033 q 511 911 511 964 q 470 822 511 857 q 372 786 429 786 z "},"Ž":{"ha":892,"x_min":35,"x_max":857,"o":"m 857 244 l 813 0 l 35 0 l 35 47 l 590 925 l 263 925 q 231 916 244 925 q 206 889 218 907 l 92 728 l 71 728 l 115 972 l 853 972 l 853 925 l 297 47 l 665 47 q 697 56 683 47 q 722 83 710 65 l 836 244 l 857 244 m 710 1256 l 567 1046 l 365 1046 l 238 1256 l 276 1256 l 467 1118 l 660 1256 l 710 1256 z "},"ž":{"ha":743,"x_min":35,"x_max":701,"o":"m 688 635 l 271 42 l 500 42 q 554 58 529 42 q 594 101 579 74 l 681 257 l 701 257 l 654 0 l 35 0 l 35 76 l 451 669 l 250 669 q 201 658 221 669 q 163 619 181 646 l 69 476 l 49 476 l 103 711 l 688 711 l 688 635 m 608 994 l 465 785 l 264 785 l 136 994 l 175 994 l 365 857 l 558 994 l 608 994 z "},"ſ":{"ha":629,"x_min":22,"x_max":571,"o":"m 571 888 q 340 940 408 940 q 283 904 283 940 q 292 867 283 888 q 324 806 301 846 q 353 747 344 768 q 363 711 363 726 l 363 93 q 401 38 363 47 l 467 21 l 467 0 l 60 0 l 60 21 l 101 38 q 138 93 138 51 l 138 669 l 22 669 l 22 711 l 138 711 q 188 870 138 790 q 336 1015 238 950 q 571 1115 435 1079 l 571 888 z "},"ƒ":{"ha":772,"x_min":42,"x_max":731,"o":"m 731 538 l 499 538 l 499 153 q 449 -6 499 74 q 300 -151 399 -86 q 65 -251 201 -215 l 65 -24 q 296 -76 228 -76 q 353 -40 353 -76 q 344 -3 353 -24 q 313 58 335 18 q 283 117 292 96 q 274 153 274 138 l 274 538 l 42 538 l 42 579 l 274 579 l 274 711 q 324 870 274 790 q 472 1015 374 950 q 707 1115 571 1079 l 707 888 q 476 940 544 940 q 419 904 419 940 q 428 867 419 888 q 460 806 438 846 q 490 747 481 768 q 499 711 499 726 l 499 579 l 731 579 l 731 538 z "},"Ǻ":{"ha":1093,"x_min":28,"x_max":1065,"o":"m 553 1029 q 438 1072 485 1029 q 392 1178 392 1114 q 424 1270 392 1231 q 508 1322 457 1310 l 597 1519 l 771 1519 l 567 1328 q 672 1281 631 1322 q 714 1178 714 1239 q 667 1072 714 1114 q 553 1029 621 1029 m 553 1283 q 480 1254 508 1283 q 451 1178 451 1225 q 480 1101 451 1129 q 553 1074 508 1074 q 627 1101 599 1074 q 656 1178 656 1129 q 626 1254 656 1225 q 553 1283 597 1283 m 1065 21 l 1065 0 l 604 0 l 604 21 l 690 57 q 719 99 719 69 q 715 121 719 108 l 642 306 l 289 306 l 217 122 q 211 99 211 106 q 244 58 211 72 l 347 21 l 347 0 l 28 0 l 28 21 l 101 56 q 143 108 128 69 l 488 972 l 619 972 l 964 108 q 981 74 972 88 q 1001 54 989 61 l 1065 21 m 624 353 l 464 756 l 307 353 l 624 353 z "},"ǻ":{"ha":794,"x_min":35,"x_max":774,"o":"m 381 768 q 266 810 313 768 q 219 917 219 853 q 252 1009 219 969 q 336 1061 285 1049 l 425 1258 l 599 1258 l 394 1067 q 500 1019 458 1061 q 542 917 542 978 q 495 810 542 853 q 381 768 449 768 m 381 1022 q 308 993 336 1022 q 279 917 279 964 q 308 840 279 868 q 381 813 336 813 q 455 840 426 813 q 483 917 483 868 q 454 993 483 964 q 381 1022 425 1022 m 774 42 l 774 21 l 501 -17 l 453 -17 l 453 122 q 358 19 411 54 q 238 -17 306 -17 q 90 35 146 -17 q 35 174 35 88 q 122 340 35 276 q 372 419 208 403 l 453 428 l 453 493 q 427 635 453 583 q 360 686 401 686 q 273 628 299 686 q 250 492 247 571 l 38 492 q 89 619 40 565 q 214 700 138 672 q 378 728 290 728 q 601 654 525 728 q 678 447 678 581 l 678 121 q 715 64 678 79 l 774 42 m 356 104 q 453 165 410 104 l 453 388 l 399 378 q 303 323 338 368 q 268 210 268 278 q 293 134 268 164 q 356 104 318 104 z "},"Ǽ":{"ha":1428,"x_min":0,"x_max":1400,"o":"m 1400 244 l 1356 0 l 590 0 l 590 21 l 669 47 q 710 103 710 60 l 710 306 l 344 306 l 217 122 q 207 97 207 108 q 244 58 207 74 l 347 18 l 347 0 l 0 0 l 0 18 l 88 61 q 144 108 125 79 l 694 910 q 669 925 686 921 l 590 951 l 590 972 l 1342 972 l 1386 728 l 1365 728 l 1251 889 q 1226 916 1239 907 q 1194 925 1213 925 l 943 925 l 943 556 l 1088 556 q 1143 594 1126 556 l 1192 699 l 1213 699 l 1213 365 l 1192 365 l 1143 469 q 1088 508 1126 508 l 943 508 l 943 103 q 958 63 943 78 q 997 47 974 47 l 1208 47 q 1240 56 1226 47 q 1265 83 1253 65 l 1379 244 l 1400 244 m 710 353 l 710 829 l 378 353 l 710 353 m 750 1046 l 844 1256 l 1018 1256 l 796 1046 l 750 1046 z "},"ǽ":{"ha":1168,"x_min":35,"x_max":1126,"o":"m 925 139 q 1026 165 978 139 q 1101 235 1075 190 l 1125 225 q 1009 53 1094 122 q 797 -17 924 -17 q 610 31 686 -17 q 493 160 533 79 q 384 32 457 81 q 238 -17 311 -17 q 90 35 146 -17 q 35 174 35 88 q 122 340 35 276 q 372 419 208 403 l 453 428 l 453 493 q 427 635 453 583 q 360 686 401 686 q 273 628 299 686 q 250 492 247 571 l 38 492 q 89 619 40 565 q 214 700 138 672 q 378 728 290 728 q 593 658 517 728 q 818 728 686 728 q 1051 647 978 728 q 1126 404 1125 567 l 669 404 q 709 258 672 318 q 803 168 746 197 q 925 139 861 139 m 794 686 q 708 624 742 686 q 669 446 674 561 l 906 446 q 874 624 903 563 q 794 686 846 686 m 349 104 q 423 125 388 104 q 482 183 458 146 q 453 336 453 254 l 453 388 l 399 378 q 303 323 338 368 q 268 210 268 278 q 292 134 268 164 q 349 104 315 104 m 544 785 l 639 994 l 813 994 l 590 785 l 544 785 z "},"Ș":{"ha":793,"x_min":49,"x_max":758,"o":"m 69 300 q 133 158 85 219 q 248 62 182 96 q 378 28 314 28 q 499 72 457 28 q 542 189 542 117 q 512 289 542 247 q 437 358 482 331 q 324 414 392 385 q 187 482 242 450 q 90 572 132 514 q 49 714 49 629 q 90 856 49 793 q 210 953 132 918 q 396 989 289 989 q 688 917 563 989 l 688 708 l 667 708 q 617 833 654 778 q 528 918 581 888 q 417 949 475 949 q 294 907 339 949 q 250 807 250 865 q 303 687 250 731 q 461 600 357 643 q 685 464 611 539 q 758 278 758 389 q 710 121 758 188 q 574 19 661 54 q 372 -17 486 -17 q 201 -1 279 -17 q 49 51 124 15 l 49 300 l 69 300 m 503 -49 q 444 -217 501 -151 q 283 -331 386 -282 l 263 -311 q 303 -247 289 -285 q 317 -169 317 -208 q 285 -62 317 -106 l 503 -49 z "},"ș":{"ha":654,"x_min":56,"x_max":631,"o":"m 322 -17 q 188 -6 256 -17 q 68 24 121 4 l 68 231 l 89 231 q 178 81 117 136 q 326 25 240 25 q 424 57 389 25 q 460 132 460 89 q 441 196 460 172 q 384 234 422 219 q 267 268 346 249 q 119 338 183 289 q 56 500 56 388 q 133 666 56 604 q 336 728 211 728 q 558 690 476 728 l 558 503 l 538 503 q 459 634 510 582 q 332 686 408 686 q 249 658 275 686 q 222 599 222 629 q 257 519 222 549 q 367 468 292 489 q 490 424 436 449 q 588 351 544 400 q 631 226 631 301 q 592 104 631 160 q 484 16 554 49 q 322 -17 414 -17 m 433 -49 q 374 -217 432 -151 q 214 -331 317 -282 l 193 -311 q 233 -247 219 -285 q 247 -169 247 -208 q 215 -62 247 -106 l 433 -49 z "},"Ț":{"ha":983,"x_min":28,"x_max":956,"o":"m 256 21 l 335 47 q 375 103 375 63 l 375 925 l 219 925 q 188 916 201 925 q 163 889 175 907 l 49 728 l 28 728 l 72 972 l 911 972 l 956 728 l 935 728 l 821 889 q 795 916 808 907 q 764 925 782 925 l 608 925 l 608 103 q 649 47 608 63 l 728 21 l 728 0 l 256 0 l 256 21 m 597 -49 q 538 -217 596 -151 q 378 -331 481 -282 l 357 -311 q 397 -247 383 -285 q 411 -169 411 -208 q 379 -62 411 -106 l 597 -49 z "},"ț":{"ha":614,"x_min":42,"x_max":572,"o":"m 419 711 l 572 711 l 572 669 l 419 669 l 419 0 l 194 0 l 194 669 l 42 669 l 42 711 l 201 711 l 201 886 l 399 972 l 419 972 l 419 711 m 426 -49 q 367 -217 425 -151 q 207 -331 310 -282 l 186 -311 q 226 -247 213 -285 q 240 -169 240 -208 q 208 -62 240 -106 l 426 -49 z "},"ȷ":{"ha":428,"x_min":-35,"x_max":338,"o":"m 338 728 l 338 51 q 307 -90 338 -32 q 197 -192 276 -149 q -24 -264 118 -235 l -35 -236 q 61 -194 35 -212 q 100 -129 88 -176 q 113 24 113 -82 l 113 590 q 75 647 113 633 l 17 669 l 17 690 l 289 728 l 338 728 z "},"ˆ":{"ha":611,"x_min":69,"x_max":542,"o":"m 492 785 l 299 922 l 108 785 l 69 785 l 197 994 l 399 994 l 542 785 l 492 785 z "},"ˇ":{"ha":611,"x_min":69,"x_max":542,"o":"m 542 994 l 399 785 l 197 785 l 69 994 l 108 994 l 299 857 l 492 994 l 542 994 z "},"˘":{"ha":550,"x_min":69,"x_max":481,"o":"m 275 767 q 131 830 185 767 q 69 994 76 893 l 111 994 q 165 907 122 942 q 275 872 207 872 q 387 907 343 872 q 442 994 431 942 l 481 994 q 419 830 474 893 q 275 767 365 767 z "},"˙":{"ha":378,"x_min":50,"x_max":328,"o":"m 189 786 q 91 822 132 786 q 50 911 50 857 q 91 999 50 964 q 189 1033 132 1033 q 287 999 246 1033 q 328 911 328 964 q 287 822 328 857 q 189 786 246 786 z "},"˚":{"ha":461,"x_min":69,"x_max":392,"o":"m 231 768 q 116 810 163 768 q 69 917 69 853 q 116 1024 69 982 q 231 1067 163 1067 q 345 1024 299 1067 q 392 917 392 982 q 345 810 392 853 q 231 768 299 768 m 231 813 q 305 840 276 813 q 333 917 333 868 q 304 993 333 964 q 231 1022 275 1022 q 158 993 186 1022 q 129 917 129 964 q 158 840 129 868 q 231 813 186 813 z "},"˛":{"ha":465,"x_min":69,"x_max":396,"o":"m 219 -294 q 109 -269 149 -294 q 69 -194 69 -243 q 138 -69 69 -131 q 347 63 207 -7 l 357 50 q 261 -64 290 -21 q 232 -156 232 -107 q 253 -210 232 -189 q 308 -231 274 -231 q 382 -207 343 -231 l 396 -235 q 314 -277 367 -260 q 219 -294 261 -294 z "},"˜":{"ha":621,"x_min":69,"x_max":551,"o":"m 69 785 q 114 923 71 868 q 217 978 157 978 q 274 969 244 978 q 363 940 304 961 q 447 915 425 915 q 493 933 478 915 q 521 994 508 950 l 551 982 q 505 840 546 896 q 408 785 464 785 q 335 794 369 785 q 258 819 301 803 q 165 844 199 844 q 122 829 136 844 q 99 772 108 814 l 69 785 z "},"˝":{"ha":607,"x_min":69,"x_max":538,"o":"m 69 785 l 153 994 l 308 994 l 118 785 l 69 785 m 285 785 l 368 994 l 538 994 l 333 785 l 285 785 z "},"̀":{"ha":0,"x_min":-374,"x_max":-106,"o":"m -374 994 l -200 994 l -106 785 l -151 785 l -374 994 z "},"́":{"ha":0,"x_min":-375,"x_max":-107,"o":"m -375 785 l -281 994 l -107 994 l -329 785 l -375 785 z "},"̂":{"ha":0,"x_min":-556,"x_max":-83,"o":"m -133 785 l -326 922 l -517 785 l -556 785 l -428 994 l -226 994 l -83 785 l -133 785 z "},"̃":{"ha":0,"x_min":-576,"x_max":-94,"o":"m -576 785 q -532 923 -575 868 q -429 978 -489 978 q -372 969 -401 978 q -283 940 -342 961 q -199 915 -221 915 q -153 933 -168 915 q -125 994 -137 950 l -94 982 q -141 840 -100 896 q -237 785 -182 785 q -310 794 -276 785 q -387 819 -344 803 q -481 844 -447 844 q -524 829 -510 844 q -547 772 -537 814 l -576 785 z "},"̄":{"ha":0,"x_min":-515,"x_max":-69,"o":"m -515 907 l -69 907 l -69 861 l -515 861 l -515 907 z "},"̆":{"ha":0,"x_min":-481,"x_max":-69,"o":"m -275 767 q -419 830 -365 767 q -481 994 -474 893 l -439 994 q -385 907 -428 942 q -275 872 -343 872 q -163 907 -207 872 q -108 994 -119 942 l -69 994 q -131 830 -76 893 q -275 767 -185 767 z "},"̇":{"ha":0,"x_min":-356,"x_max":-78,"o":"m -217 786 q -315 822 -274 786 q -356 911 -356 857 q -315 999 -356 964 q -217 1033 -274 1033 q -119 999 -160 1033 q -78 911 -78 964 q -119 822 -78 857 q -217 786 -160 786 z "},"̈":{"ha":0,"x_min":-628,"x_max":-92,"o":"m -503 796 q -591 828 -554 796 q -628 908 -628 860 q -591 988 -628 956 q -503 1019 -554 1019 q -415 988 -451 1019 q -378 908 -378 956 q -415 828 -378 860 q -503 796 -451 796 m -217 796 q -305 828 -268 796 q -342 908 -342 860 q -305 988 -342 956 q -217 1019 -268 1019 q -128 988 -165 1019 q -92 908 -92 956 q -128 828 -92 860 q -217 796 -165 796 z "},"̊":{"ha":0,"x_min":-393,"x_max":-71,"o":"m -232 768 q -347 810 -300 768 q -393 917 -393 853 q -347 1024 -393 982 q -232 1067 -300 1067 q -117 1024 -164 1067 q -71 917 -71 982 q -117 810 -71 853 q -232 768 -164 768 m -232 813 q -158 840 -186 813 q -129 917 -129 868 q -158 993 -129 964 q -232 1022 -187 1022 q -305 993 -276 1022 q -333 917 -333 964 q -305 840 -333 868 q -232 813 -276 813 z "},"̋":{"ha":0,"x_min":-565,"x_max":-97,"o":"m -565 785 l -482 994 l -326 994 l -517 785 l -565 785 m -350 785 l -267 994 l -97 994 l -301 785 l -350 785 z "},"̌":{"ha":0,"x_min":-556,"x_max":-83,"o":"m -83 994 l -226 785 l -428 785 l -556 994 l -517 994 l -326 857 l -133 994 l -83 994 z "},"̒":{"ha":0,"x_min":-317,"x_max":-76,"o":"m -317 1021 q -258 1189 -315 1124 q -97 1303 -200 1254 l -76 1283 q -117 1219 -103 1257 q -131 1142 -131 1181 q -99 1035 -131 1078 l -317 1021 z "},"̦":{"ha":0,"x_min":-331,"x_max":-90,"o":"m -90 -49 q -149 -217 -92 -151 q -310 -331 -207 -282 l -331 -311 q -290 -247 -304 -285 q -276 -169 -276 -208 q -308 -62 -276 -106 l -90 -49 z "},"̧":{"ha":0,"x_min":-325,"x_max":-69,"o":"m -325 -282 q -196 -211 -196 -285 q -222 -168 -196 -186 q -297 -140 -249 -150 l -217 0 l -178 0 l -215 -71 q -114 -110 -158 -83 q -69 -182 -69 -137 q -120 -276 -69 -244 q -256 -307 -171 -307 q -325 -303 -290 -307 l -325 -282 z "},"̨":{"ha":0,"x_min":-396,"x_max":-69,"o":"m -246 -294 q -356 -269 -317 -294 q -396 -194 -396 -243 q -327 -69 -396 -131 q -118 63 -258 -7 l -108 50 q -204 -64 -175 -21 q -233 -156 -233 -107 q -212 -210 -233 -189 q -157 -231 -192 -231 q -83 -207 -122 -231 l -69 -235 q -151 -277 -99 -260 q -246 -294 -204 -294 z "},"π":{"ha":965,"x_min":7,"x_max":965,"o":"m 876 75 q 965 90 915 75 l 965 49 q 867 -1 918 14 q 750 -17 817 -17 q 629 33 672 -17 q 586 167 586 83 l 586 669 l 397 669 l 397 0 l 172 0 l 172 669 l 7 669 l 31 711 l 956 711 l 956 669 l 811 669 l 811 139 q 829 93 811 111 q 876 75 847 75 z "},"Ẁ":{"ha":1447,"x_min":14,"x_max":1433,"o":"m 1089 251 l 1258 854 q 1261 872 1261 868 q 1226 915 1261 903 l 1128 951 l 1128 972 l 1433 972 l 1433 951 l 1374 924 q 1332 864 1346 911 l 1078 0 l 931 0 l 736 576 l 543 0 l 388 0 l 103 865 q 64 925 88 911 l 14 951 l 14 972 l 479 972 l 479 951 l 386 915 q 354 874 354 903 q 357 854 354 861 l 547 221 l 749 824 l 896 824 l 1089 251 m 597 1256 l 771 1256 l 865 1046 l 819 1046 l 597 1256 z "},"ẁ":{"ha":1260,"x_min":21,"x_max":1239,"o":"m 926 201 l 1065 606 q 1069 626 1069 617 q 1035 668 1069 658 l 961 690 l 961 711 l 1239 711 l 1239 690 l 1179 665 q 1149 648 1160 658 q 1133 619 1139 638 l 915 0 l 781 0 l 624 447 l 464 0 l 331 0 l 107 625 q 91 652 101 642 q 61 671 81 663 l 21 690 l 21 711 l 413 711 l 413 690 l 376 672 q 344 632 344 657 q 349 610 344 622 l 476 200 l 632 650 l 776 650 l 926 201 m 453 994 l 626 994 l 721 785 l 675 785 l 453 994 z "},"Ẃ":{"ha":1447,"x_min":14,"x_max":1433,"o":"m 1089 251 l 1258 854 q 1261 872 1261 868 q 1226 915 1261 903 l 1128 951 l 1128 972 l 1433 972 l 1433 951 l 1374 924 q 1332 864 1346 911 l 1078 0 l 931 0 l 736 576 l 543 0 l 388 0 l 103 865 q 64 925 88 911 l 14 951 l 14 972 l 479 972 l 479 951 l 386 915 q 354 874 354 903 q 357 854 354 861 l 547 221 l 749 824 l 896 824 l 1089 251 m 753 1046 l 847 1256 l 1021 1256 l 799 1046 l 753 1046 z "},"ẃ":{"ha":1260,"x_min":21,"x_max":1239,"o":"m 926 201 l 1065 606 q 1069 626 1069 617 q 1035 668 1069 658 l 961 690 l 961 711 l 1239 711 l 1239 690 l 1179 665 q 1149 648 1160 658 q 1133 619 1139 638 l 915 0 l 781 0 l 624 447 l 464 0 l 331 0 l 107 625 q 91 652 101 642 q 61 671 81 663 l 21 690 l 21 711 l 413 711 l 413 690 l 376 672 q 344 632 344 657 q 349 610 344 622 l 476 200 l 632 650 l 776 650 l 926 201 m 608 785 l 703 994 l 876 994 l 654 785 l 608 785 z "},"Ẅ":{"ha":1447,"x_min":14,"x_max":1433,"o":"m 1089 251 l 1258 854 q 1261 872 1261 868 q 1226 915 1261 903 l 1128 951 l 1128 972 l 1433 972 l 1433 951 l 1374 924 q 1332 864 1346 911 l 1078 0 l 931 0 l 736 576 l 543 0 l 388 0 l 103 865 q 64 925 88 911 l 14 951 l 14 972 l 479 972 l 479 951 l 386 915 q 354 874 354 903 q 357 854 354 861 l 547 221 l 749 824 l 896 824 l 1089 251 m 650 1057 q 562 1089 599 1057 q 525 1169 525 1121 q 562 1249 525 1217 q 650 1281 599 1281 q 738 1249 701 1281 q 775 1169 775 1217 q 738 1089 775 1121 q 650 1057 701 1057 m 936 1057 q 848 1089 885 1057 q 811 1169 811 1121 q 848 1249 811 1217 q 936 1281 885 1281 q 1024 1249 988 1281 q 1061 1169 1061 1217 q 1024 1089 1061 1121 q 936 1057 988 1057 z "},"ẅ":{"ha":1260,"x_min":21,"x_max":1239,"o":"m 926 201 l 1065 606 q 1069 626 1069 617 q 1035 668 1069 658 l 961 690 l 961 711 l 1239 711 l 1239 690 l 1179 665 q 1149 648 1160 658 q 1133 619 1139 638 l 915 0 l 781 0 l 624 447 l 464 0 l 331 0 l 107 625 q 91 652 101 642 q 61 671 81 663 l 21 690 l 21 711 l 413 711 l 413 690 l 376 672 q 344 632 344 657 q 349 610 344 622 l 476 200 l 632 650 l 776 650 l 926 201 m 506 796 q 417 828 454 796 q 381 908 381 860 q 417 988 381 956 q 506 1019 454 1019 q 594 988 557 1019 q 631 908 631 956 q 594 828 631 860 q 506 796 557 796 m 792 796 q 703 828 740 796 q 667 908 667 860 q 703 988 667 956 q 792 1019 740 1019 q 880 988 843 1019 q 917 908 917 956 q 880 828 917 860 q 792 796 843 796 z "},"ẞ":{"ha":1053,"x_min":35,"x_max":1019,"o":"m 650 628 q 845 582 761 628 q 974 459 929 536 q 1019 293 1019 382 q 980 133 1019 204 q 871 23 940 63 q 717 -17 801 -17 q 568 23 632 -17 q 467 121 504 63 l 485 140 q 563 81 529 97 q 644 64 596 64 q 726 85 688 64 q 787 145 764 107 q 810 231 810 183 q 778 354 810 297 q 681 444 747 411 q 511 472 614 478 l 494 546 l 838 925 l 388 925 l 388 0 l 35 0 l 35 21 l 114 47 q 154 103 154 60 l 154 869 q 114 925 154 913 l 35 951 l 35 972 l 915 972 l 915 910 l 650 628 z "},"Ỳ":{"ha":939,"x_min":7,"x_max":932,"o":"m 932 951 l 861 926 q 813 882 826 914 l 594 417 l 594 100 q 635 46 594 58 l 715 21 l 715 0 l 242 0 l 242 21 l 321 46 q 361 100 361 58 l 361 382 l 110 883 q 64 929 90 919 l 7 951 l 7 972 l 443 972 l 443 951 l 383 932 q 356 915 367 926 q 346 890 346 904 q 351 868 346 879 l 547 456 l 739 868 q 744 893 744 881 q 713 931 744 918 l 656 951 l 656 972 l 932 972 l 932 951 m 304 1256 l 478 1256 l 572 1046 l 526 1046 l 304 1256 z "},"ỳ":{"ha":886,"x_min":21,"x_max":865,"o":"m 865 711 l 865 690 l 792 665 q 744 619 758 654 l 471 -82 q 382 -230 433 -178 q 233 -282 331 -282 q 165 -275 203 -282 l 165 -126 q 282 -146 235 -146 q 369 -131 332 -146 q 422 -85 407 -117 l 426 -75 l 129 619 q 78 667 115 650 l 21 690 l 21 711 l 432 711 l 432 690 l 383 671 q 357 636 357 660 q 363 608 357 621 l 526 197 l 685 606 q 690 628 690 622 q 654 667 690 656 l 572 690 l 572 711 l 865 711 m 247 994 l 421 994 l 515 785 l 469 785 l 247 994 z "},"–":{"ha":553,"x_min":33,"x_max":519,"o":"m 519 378 l 33 378 l 33 425 l 519 425 l 519 378 z "},"—":{"ha":1039,"x_min":33,"x_max":1006,"o":"m 1006 378 l 33 378 l 33 425 l 1006 425 l 1006 378 z "},"‘":{"ha":394,"x_min":76,"x_max":318,"o":"m 201 661 q 111 701 146 661 q 76 806 76 740 q 110 943 76 882 q 199 1040 143 1004 q 318 1082 254 1076 l 318 1047 q 219 994 260 1038 q 178 890 178 950 q 276 863 235 896 q 318 776 318 829 q 284 694 318 728 q 201 661 250 661 z "},"’":{"ha":381,"x_min":63,"x_max":304,"o":"m 179 1119 q 269 1080 235 1119 q 304 975 304 1040 q 271 838 304 899 q 182 740 238 776 q 63 699 126 704 l 63 733 q 162 787 121 743 q 203 890 203 831 q 104 918 146 885 q 63 1004 63 951 q 97 1086 63 1053 q 179 1119 131 1119 z "},"‚":{"ha":394,"x_min":76,"x_max":318,"o":"m 193 213 q 283 173 249 213 q 318 68 318 133 q 285 -69 318 -8 q 196 -167 251 -131 q 76 -208 140 -203 l 76 -174 q 176 -120 135 -164 q 217 -17 217 -76 q 118 11 160 -22 q 76 97 76 44 q 110 179 76 146 q 193 213 144 213 z "},"“":{"ha":704,"x_min":76,"x_max":628,"o":"m 201 661 q 111 701 146 661 q 76 806 76 740 q 110 943 76 882 q 199 1040 143 1004 q 318 1082 254 1076 l 318 1047 q 219 994 260 1038 q 178 890 178 950 q 276 863 235 896 q 318 776 318 829 q 284 694 318 728 q 201 661 250 661 m 511 661 q 421 701 456 661 q 386 806 386 740 q 419 943 386 882 q 508 1040 453 1004 q 628 1082 564 1076 l 628 1047 q 528 994 569 1038 q 488 890 488 950 q 586 863 544 896 q 628 776 628 829 q 594 694 628 728 q 511 661 560 661 z "},"”":{"ha":690,"x_min":63,"x_max":614,"o":"z "},"„":{"ha":704,"x_min":76,"x_max":628,"o":"m 503 213 q 593 173 558 213 q 628 68 628 133 q 594 -69 628 -8 q 506 -167 561 -131 q 386 -208 450 -203 l 386 -174 q 485 -120 444 -164 q 526 -17 526 -76 q 428 11 469 -22 q 386 97 386 44 q 420 179 386 146 q 503 213 454 213 m 193 213 q 283 173 249 213 q 318 68 318 133 q 285 -69 318 -8 q 196 -167 251 -131 q 76 -208 140 -203 l 76 -174 q 176 -120 135 -164 q 217 -17 217 -76 q 118 11 160 -22 q 76 97 76 44 q 110 179 76 146 q 193 213 144 213 z "},"†":{"ha":554,"x_min":76,"x_max":478,"o":"m 253 718 l 76 718 l 76 760 l 253 760 l 253 954 l 301 954 l 301 760 l 478 760 l 478 718 l 301 718 l 301 317 l 253 317 l 253 718 z "},"‡":{"ha":554,"x_min":76,"x_max":478,"o":"m 301 461 l 478 461 l 478 419 l 301 419 l 301 18 l 253 18 l 253 419 l 76 419 l 76 461 l 253 461 l 253 718 l 76 718 l 76 760 l 253 760 l 253 954 l 301 954 l 301 760 l 478 760 l 478 718 l 301 718 l 301 461 z "},"•":{"ha":639,"x_min":42,"x_max":597,"o":"m 322 100 q 181 138 244 100 q 79 238 117 175 q 42 378 42 301 q 79 517 42 453 q 181 618 117 581 q 322 656 246 656 q 460 618 397 656 q 560 517 524 581 q 597 378 597 453 q 560 238 597 301 q 460 138 524 175 q 322 100 397 100 z "},"…":{"ha":986,"x_min":76,"x_max":910,"o":"m 793 -19 q 710 14 744 -19 q 676 97 676 47 q 710 179 676 146 q 793 213 744 213 q 877 179 844 213 q 910 97 910 146 q 876 14 910 47 q 793 -19 842 -19 m 493 -19 q 410 14 444 -19 q 376 97 376 47 q 410 179 376 146 q 493 213 444 213 q 577 179 544 213 q 610 97 610 146 q 576 14 610 47 q 493 -19 542 -19 m 193 -19 q 110 14 144 -19 q 76 97 76 47 q 110 179 76 146 q 193 213 144 213 q 277 179 244 213 q 310 97 310 146 q 276 14 310 47 q 193 -19 242 -19 z "},"‰":{"ha":1435,"x_min":33,"x_max":1401,"o":"m 211 0 l 747 972 l 801 972 l 265 0 l 211 0 m 240 497 q 135 526 182 497 q 60 607 88 556 q 33 722 33 658 q 60 836 33 785 q 135 917 88 888 q 240 947 182 947 q 345 918 299 947 q 419 837 392 889 q 446 722 446 785 q 419 607 446 658 q 346 526 393 556 q 240 497 299 497 m 247 542 q 301 586 282 542 q 321 707 321 631 q 297 849 321 796 q 233 903 274 903 q 178 859 199 903 q 158 742 158 815 q 183 597 158 651 q 247 542 207 542 m 750 -18 q 644 11 692 -18 q 570 92 597 40 q 543 207 543 143 q 570 321 543 269 q 644 402 597 372 q 750 432 692 432 q 855 403 808 432 q 928 322 901 374 q 956 207 956 269 q 929 92 956 143 q 856 11 903 40 q 750 -18 808 -18 m 1196 -18 q 1090 11 1138 -18 q 1016 92 1043 40 q 989 207 989 143 q 1016 321 989 269 q 1090 402 1043 372 q 1196 432 1138 432 q 1301 403 1254 432 q 1374 322 1347 374 q 1401 207 1401 269 q 1375 92 1401 143 q 1301 11 1349 40 q 1196 -18 1254 -18 m 757 26 q 811 71 792 26 q 831 192 831 115 q 807 334 831 281 q 743 388 783 388 q 688 344 708 388 q 668 226 668 300 q 692 81 668 136 q 757 26 717 26 m 1203 26 q 1257 71 1238 26 q 1276 192 1276 115 q 1253 334 1276 281 q 1189 388 1229 388 q 1134 344 1154 388 q 1114 226 1114 300 q 1138 81 1114 136 q 1203 26 1163 26 z "},"‹":{"ha":485,"x_min":56,"x_max":429,"o":"m 56 404 l 401 654 l 429 629 l 206 360 l 429 89 l 401 64 l 56 315 l 56 404 z "},"›":{"ha":485,"x_min":56,"x_max":429,"o":"m 83 64 l 56 89 l 279 360 l 56 629 l 83 654 l 429 404 l 429 315 l 83 64 z "},"⁄":{"ha":218,"x_min":-186,"x_max":404,"o":"m -186 0 l 350 972 l 404 972 l -132 0 l -186 0 z "},"⁺":{"ha":410,"x_min":18,"x_max":392,"o":"m 392 58 l 229 58 l 229 -107 l 182 -107 l 182 58 l 18 58 l 18 103 l 182 103 l 182 267 l 229 267 l 229 103 l 392 103 l 392 58 z "},"⁻":{"ha":410,"x_min":18,"x_max":392,"o":"m 18 876 l 392 876 l 392 829 l 18 829 l 18 876 z "},"⁼":{"ha":410,"x_min":18,"x_max":392,"o":"m 18 938 l 392 938 l 392 890 l 18 890 l 18 938 m 18 801 l 392 801 l 392 754 l 18 754 l 18 801 z "},"⁽":{"ha":346,"x_min":33,"x_max":339,"o":"m 339 394 q 228 258 268 360 q 188 32 188 156 q 228 -193 188 -92 q 339 -329 268 -294 l 317 -361 q 109 -212 185 -321 q 33 33 33 -103 q 108 277 33 169 q 317 426 183 385 l 339 394 z "},"⁾":{"ha":339,"x_min":7,"x_max":313,"o":"m 31 426 q 238 277 163 385 q 313 33 313 169 q 238 -212 313 -103 q 31 -361 163 -321 l 7 -329 q 119 -193 79 -294 q 160 32 160 -92 q 119 258 160 156 q 7 394 78 360 l 31 426 z "},"₊":{"ha":410,"x_min":18,"x_max":392,"o":"m 392 58 l 229 58 l 229 -107 l 182 -107 l 182 58 l 18 58 l 18 103 l 182 103 l 182 267 l 229 267 l 229 103 l 392 103 l 392 58 z "},"₋":{"ha":410,"x_min":18,"x_max":392,"o":"m 18 103 l 392 103 l 392 56 l 18 56 l 18 103 z "},"₌":{"ha":410,"x_min":18,"x_max":392,"o":"m 18 174 l 392 174 l 392 126 l 18 126 l 18 174 m 18 38 l 392 38 l 392 -10 l 18 -10 l 18 38 z "},"₍":{"ha":346,"x_min":33,"x_max":339,"o":"m 339 394 q 228 258 268 360 q 188 32 188 156 q 228 -193 188 -92 q 339 -329 268 -294 l 317 -361 q 109 -212 185 -321 q 33 33 33 -103 q 108 277 33 169 q 317 426 183 385 l 339 394 z "},"₎":{"ha":339,"x_min":7,"x_max":313,"o":"m 31 426 q 238 277 163 385 q 313 33 313 169 q 238 -212 313 -103 q 31 -361 163 -321 l 7 -329 q 119 -193 79 -294 q 160 32 160 -92 q 119 258 160 156 q 7 394 78 360 l 31 426 z "},"€":{"ha":846,"x_min":-94,"x_max":888,"o":"m 888 264 q 824 138 868 201 q 701 28 779 74 q 515 -17 624 -17 q 288 34 388 -17 q 128 174 189 85 q 49 379 67 264 l -94 379 l -94 426 l 43 426 l 42 464 q 47 553 42 514 l -94 553 l -94 600 l 56 600 q 152 802 82 714 q 326 940 222 890 q 554 989 429 989 q 719 975 632 989 q 850 939 806 961 l 851 731 l 831 731 q 726 889 797 831 q 556 947 654 947 q 353 856 421 947 q 279 600 286 764 l 624 600 l 624 553 l 278 553 l 278 535 q 286 426 278 479 l 624 426 l 624 379 l 294 379 q 398 168 324 244 q 583 92 472 92 q 758 143 688 92 q 867 274 829 194 l 888 264 z "},"№":{"ha":1515,"x_min":35,"x_max":1481,"o":"m 1238 504 q 1067 569 1132 504 q 1003 742 1003 635 q 1035 870 1003 814 q 1124 958 1068 926 q 1243 989 1179 989 q 1415 923 1349 989 q 1481 750 1481 857 q 1447 622 1481 678 q 1358 535 1414 565 q 1238 504 1303 504 m 1004 951 l 917 926 q 875 872 875 914 l 875 0 l 825 0 l 229 753 l 229 113 q 269 57 229 71 l 374 21 l 374 0 l 38 0 l 38 21 l 128 56 q 167 113 167 71 l 167 832 q 107 906 129 883 q 57 942 85 929 l 35 951 l 35 972 l 356 972 l 815 388 l 815 872 q 774 925 815 915 l 667 951 l 667 972 l 1004 972 l 1004 951 m 1232 954 q 1149 903 1181 954 q 1117 774 1117 853 q 1151 615 1117 689 q 1251 540 1185 540 q 1335 591 1303 540 q 1367 721 1367 642 q 1333 880 1367 806 q 1232 954 1299 954 m 1006 440 l 1463 440 l 1463 393 l 1006 393 l 1006 440 z "},"℗":{"ha":1050,"x_min":42,"x_max":1008,"o":"m 524 -19 q 283 46 393 -19 q 107 222 172 111 q 42 464 42 333 q 107 706 42 594 q 283 882 172 817 q 524 947 393 947 q 766 882 654 947 q 943 706 878 817 q 1008 464 1008 594 q 943 222 1008 333 q 766 46 878 111 q 524 -19 654 -19 m 525 26 q 743 85 643 26 q 902 245 843 144 q 961 464 961 346 q 902 683 961 582 q 743 842 843 783 q 525 901 643 901 q 307 842 407 901 q 148 683 207 783 q 89 464 89 582 q 148 245 89 346 q 307 85 207 144 q 525 26 407 26 m 419 439 l 419 204 l 371 204 l 371 742 l 554 742 q 677 700 631 742 q 724 590 724 658 q 677 481 724 522 q 554 439 631 439 l 419 439 m 419 485 l 556 485 q 642 513 611 485 q 674 590 674 542 q 642 667 674 639 q 556 696 611 696 l 419 696 l 419 485 z "},"™":{"ha":1085,"x_min":76,"x_max":1008,"o":"m 169 588 l 203 599 q 219 622 219 603 l 219 946 l 161 946 q 139 932 150 946 l 93 864 l 76 864 l 94 972 l 440 972 l 458 864 l 442 864 l 396 932 q 374 946 385 946 l 315 946 l 315 622 q 332 599 315 603 l 365 588 l 365 572 l 169 572 l 169 588 m 426 588 l 460 599 q 479 621 475 604 l 529 915 l 529 919 q 515 939 529 933 l 474 956 l 474 972 l 615 972 l 717 725 l 824 972 l 967 972 l 967 956 l 931 940 q 917 917 914 935 l 958 621 q 963 606 960 611 q 975 599 967 601 l 1008 588 l 1008 572 l 814 572 l 814 588 l 846 597 q 863 622 865 603 l 826 889 l 706 618 l 668 618 l 558 883 l 517 622 l 517 619 q 533 597 517 601 l 571 588 l 571 572 l 426 572 l 426 588 z "},"Ω":{"ha":1026,"x_min":33,"x_max":993,"o":"m 968 215 l 989 215 l 933 0 l 589 0 l 589 210 q 713 323 668 236 q 758 543 758 410 q 728 751 758 660 q 642 895 699 843 q 508 947 585 947 q 333 847 396 947 q 269 582 269 746 q 310 351 269 449 q 432 207 350 254 l 432 0 l 104 0 l 49 201 l 69 201 l 131 126 q 149 107 142 113 q 171 101 157 101 l 385 101 l 385 144 q 117 292 201 189 q 33 543 33 396 q 94 776 33 675 q 267 933 156 876 q 524 989 378 989 q 769 938 663 989 q 935 794 876 886 q 993 581 993 701 q 897 310 993 425 q 636 154 801 194 l 636 115 l 867 115 q 888 121 881 115 q 907 140 896 126 l 968 215 z "},"℮":{"ha":1031,"x_min":33,"x_max":997,"o":"m 528 -19 q 277 44 390 -19 q 99 219 164 108 q 33 464 33 329 q 97 709 33 599 q 271 883 161 819 q 515 947 381 947 q 761 883 650 947 q 935 707 872 818 q 997 461 999 596 l 207 461 l 207 168 q 344 67 261 108 q 528 26 426 26 q 724 73 636 26 q 874 211 811 119 l 913 183 q 747 34 847 88 q 528 -19 646 -19 m 825 763 q 694 860 776 818 q 515 901 613 901 q 335 860 418 901 q 207 761 253 818 l 207 515 l 825 515 l 825 763 z "},"⅛":{"ha":1158,"x_min":25,"x_max":1140,"o":"m 261 0 l 797 972 l 851 972 l 315 0 l 261 0 z "},"⅜":{"ha":1171,"x_min":10,"x_max":1153,"o":"m 274 0 l 810 972 l 864 972 l 328 0 l 274 0 z "},"⅝":{"ha":1179,"x_min":14,"x_max":1161,"o":"m 282 0 l 818 972 l 872 972 l 336 0 l 282 0 z "},"⅞":{"ha":1129,"x_min":18,"x_max":1111,"o":"m 232 0 l 768 972 l 822 972 l 286 0 l 232 0 z "},"←":{"ha":1014,"x_min":82,"x_max":971,"o":"m 971 328 l 165 328 l 496 7 l 461 -28 l 82 351 l 463 731 l 497 694 l 165 375 l 971 375 l 971 328 z "},"↑":{"ha":928,"x_min":108,"x_max":867,"o":"m 832 449 l 511 779 l 511 -26 l 464 -26 l 464 779 l 144 447 l 108 482 l 488 863 l 867 483 l 832 449 z "},"→":{"ha":1014,"x_min":43,"x_max":932,"o":"m 932 351 l 553 -28 l 518 7 l 849 328 l 43 328 l 43 375 l 849 375 l 517 694 l 551 731 l 932 351 z "},"↓":{"ha":928,"x_min":61,"x_max":819,"o":"m 819 410 l 440 29 l 61 408 l 96 443 l 417 113 l 417 918 l 464 918 l 464 113 l 783 444 l 819 410 z "},"↔":{"ha":1494,"x_min":82,"x_max":1413,"o":"m 1413 351 l 1033 -28 l 999 7 l 1329 328 l 165 328 l 496 7 l 461 -28 l 82 351 l 463 731 l 497 694 l 165 375 l 1329 375 l 997 694 l 1032 731 l 1413 351 z "},"↕":{"ha":928,"x_min":61,"x_max":819,"o":"m 783 192 l 819 157 l 440 -224 l 61 156 l 96 190 l 417 -140 l 417 1024 l 96 693 l 61 728 l 440 1107 l 819 726 l 783 692 l 464 1024 l 464 -140 l 783 192 z "},"↖":{"ha":844,"x_min":88,"x_max":733,"o":"m 700 -1 l 129 569 l 138 107 l 88 107 l 88 643 l 625 643 l 625 593 l 163 603 l 733 32 l 700 -1 z "},"↗":{"ha":844,"x_min":111,"x_max":757,"o":"m 757 643 l 757 107 l 707 107 l 715 569 l 144 -1 l 111 32 l 682 603 l 219 593 l 219 643 l 757 643 z "},"↘":{"ha":843,"x_min":78,"x_max":722,"o":"m 722 538 l 722 0 l 186 0 l 186 50 l 649 42 l 78 613 l 111 646 l 682 75 l 672 538 l 722 538 z "},"↙":{"ha":843,"x_min":121,"x_max":765,"o":"m 194 42 l 657 50 l 657 0 l 121 0 l 121 538 l 171 538 l 161 75 l 732 646 l 765 613 l 194 42 z "},"∂":{"ha":864,"x_min":33,"x_max":831,"o":"m 401 989 q 630 931 533 989 q 778 766 726 872 q 831 518 831 660 q 777 251 831 374 q 622 57 724 129 q 385 -15 521 -15 q 210 21 290 -15 q 82 127 131 57 q 33 297 33 197 q 76 467 33 390 q 196 589 119 544 q 368 633 272 633 q 508 598 449 633 q 610 482 567 563 q 622 631 622 560 q 553 870 622 794 q 350 946 483 946 q 174 913 253 946 l 174 942 q 277 975 218 961 q 401 989 336 989 m 335 33 q 496 153 424 33 q 601 438 568 272 q 537 489 572 472 q 449 506 501 506 q 328 459 378 506 q 255 343 279 413 q 231 204 231 274 q 260 79 231 125 q 335 33 290 33 z "},"∆":{"ha":833,"x_min":-19,"x_max":853,"o":"m 853 0 l -19 0 l 399 972 l 435 972 l 853 0 m 603 47 l 328 689 l 53 47 l 603 47 z "},"∏":{"ha":1088,"x_min":33,"x_max":1053,"o":"m 974 925 q 933 869 933 913 l 933 103 q 974 47 933 60 l 1053 21 l 1053 0 l 581 0 l 581 21 l 660 47 q 700 103 700 60 l 700 925 l 386 925 l 386 103 q 426 47 386 60 l 506 21 l 506 0 l 33 0 l 33 21 l 113 47 q 153 103 153 60 l 153 869 q 113 925 153 913 l 33 951 l 33 972 l 1053 972 l 1053 951 l 974 925 z "},"∑":{"ha":846,"x_min":19,"x_max":826,"o":"m 826 217 l 782 0 l 19 0 l 19 39 l 421 419 l 19 932 l 19 972 l 768 972 l 813 756 l 792 756 l 678 889 q 650 917 661 908 q 621 925 639 925 l 288 925 l 607 518 l 129 67 l 635 67 q 660 73 650 67 q 678 89 669 79 q 692 103 688 99 l 806 217 l 826 217 z "},"−":{"ha":753,"x_min":69,"x_max":683,"o":"m 69 494 l 683 494 l 683 447 l 69 447 l 69 494 z "},"√":{"ha":646,"x_min":0,"x_max":700,"o":"m 143 483 l 0 483 l 0 526 l 176 526 l 339 40 l 654 972 l 700 972 l 375 0 l 306 0 l 143 483 z "},"∞":{"ha":1193,"x_min":58,"x_max":1119,"o":"m 867 699 q 1049 629 979 699 q 1119 449 1119 560 q 1050 269 1119 338 q 867 200 981 200 q 718 249 788 200 q 606 378 649 297 q 477 244 558 289 q 310 199 396 199 q 128 268 197 199 q 58 449 58 338 q 128 628 58 560 q 310 697 197 697 q 458 651 389 697 q 569 521 528 604 q 699 655 619 611 q 867 699 779 699 m 301 253 q 431 309 376 253 q 544 481 486 365 q 447 603 510 558 q 310 647 383 647 q 164 594 218 647 q 110 449 110 540 q 164 310 110 367 q 301 253 218 253 m 867 251 q 1013 304 958 251 q 1068 449 1068 357 q 1014 589 1068 535 q 874 643 960 643 q 744 587 801 643 q 628 422 686 531 q 732 297 668 343 q 867 251 796 251 z "},"∫":{"ha":733,"x_min":44,"x_max":689,"o":"m 681 915 q 617 921 631 921 q 556 904 579 921 q 517 844 532 888 q 494 715 503 800 l 424 38 q 340 -165 410 -89 q 110 -240 269 -240 q 44 -237 67 -240 l 50 -197 q 99 -200 86 -200 q 160 -183 136 -200 q 199 -122 183 -167 q 222 10 214 -78 l 294 688 q 596 963 322 963 q 689 956 633 963 l 681 915 z "},"≈":{"ha":808,"x_min":69,"x_max":739,"o":"m 69 590 q 260 681 158 681 q 337 666 303 681 q 413 625 371 651 q 483 586 453 599 q 549 574 513 574 q 739 689 640 574 l 739 621 q 549 525 649 525 q 472 540 506 525 q 393 582 438 554 q 323 621 353 608 q 258 633 293 633 q 167 606 215 633 q 69 525 118 579 l 69 590 m 69 344 q 260 438 161 438 q 336 423 303 438 q 413 381 369 408 q 483 342 453 354 q 549 329 513 329 q 739 443 639 329 l 739 376 q 549 279 647 279 q 474 293 507 279 q 396 336 442 307 q 324 375 353 363 q 258 388 294 388 q 167 361 215 388 q 69 281 118 335 l 69 344 z "},"≠":{"ha":753,"x_min":69,"x_max":683,"o":"m 436 565 l 369 386 l 683 386 l 683 339 l 351 339 l 268 119 l 215 119 l 299 339 l 69 339 l 69 386 l 317 386 l 383 565 l 69 565 l 69 613 l 401 613 l 485 832 l 538 832 l 454 613 l 683 613 l 683 565 l 436 565 z "},"≤":{"ha":753,"x_min":69,"x_max":683,"o":"m 651 278 l 629 228 l 97 500 l 97 551 l 629 824 l 651 775 l 147 526 l 651 278 m 69 0 l 69 47 l 683 47 l 683 0 l 69 0 z "},"≥":{"ha":753,"x_min":69,"x_max":683,"o":"m 101 775 l 124 824 l 656 551 l 656 500 l 124 228 l 101 278 l 606 526 l 101 775 m 69 47 l 683 47 l 683 0 l 69 0 l 69 47 z "},"◊":{"ha":657,"x_min":35,"x_max":622,"o":"m 35 464 l 300 928 l 357 928 l 622 464 l 357 0 l 300 0 l 35 464 m 571 464 l 329 890 l 86 464 l 329 38 l 571 464 z "},"○":{"ha":1050,"x_min":42,"x_max":1008,"o":"m 524 -19 q 283 46 393 -19 q 107 222 172 111 q 42 464 42 333 q 107 706 42 594 q 283 882 172 817 q 524 947 393 947 q 766 882 654 947 q 943 706 878 817 q 1008 464 1008 594 q 943 222 1008 333 q 766 46 878 111 q 524 -19 654 -19 m 525 26 q 743 85 643 26 q 902 245 843 144 q 961 464 961 346 q 902 683 961 582 q 743 842 843 783 q 525 901 643 901 q 307 842 407 901 q 148 683 207 783 q 89 464 89 582 q 148 245 89 346 q 307 85 207 144 q 525 26 407 26 z "},"●":{"ha":1050,"x_min":42,"x_max":1008,"o":"m 524 -19 q 766 46 654 -19 q 943 222 878 111 q 1008 464 1008 333 q 943 706 1008 594 q 766 882 878 817 q 524 947 654 947 q 283 882 393 947 q 107 706 172 817 q 42 464 42 594 q 107 222 42 333 q 283 46 172 111 q 524 -19 393 -19 z "},"":{"ha":1039,"x_min":35,"x_max":1004,"o":"m 828 333 q 915 309 874 333 q 980 243 956 285 q 1004 154 1004 201 q 980 68 1004 108 q 915 3 956 28 q 828 -21 875 -21 q 739 3 781 -21 q 673 68 697 28 q 649 154 649 108 l 649 288 l 389 288 l 389 154 q 365 68 389 108 q 299 3 340 28 q 210 -21 257 -21 q 122 3 163 -21 q 58 67 82 26 q 35 154 35 107 q 59 243 35 201 q 124 309 83 285 q 210 333 164 333 l 343 333 l 343 593 l 210 593 q 124 617 164 593 q 59 683 83 642 q 35 772 35 725 q 59 860 35 819 q 124 924 83 900 q 210 949 164 949 q 299 924 257 949 q 365 859 340 900 q 389 772 389 818 l 389 639 l 649 639 l 649 772 q 673 859 649 818 q 739 924 697 900 q 828 949 781 949 q 915 924 875 949 q 980 860 956 900 q 1004 772 1004 819 q 980 683 1004 725 q 915 617 956 642 q 828 593 874 593 l 694 593 l 694 333 l 828 333 m 81 772 q 119 678 81 717 q 210 639 157 639 l 343 639 l 343 772 q 304 865 343 826 q 210 903 265 903 q 118 865 156 903 q 81 772 81 826 m 828 903 q 733 865 772 903 q 694 772 694 826 l 694 639 l 828 639 q 920 678 882 639 q 958 772 958 717 q 920 865 958 826 q 828 903 882 903 m 649 333 l 649 593 l 389 593 l 389 333 l 649 333 m 210 25 q 304 63 265 25 q 343 154 343 101 l 343 288 l 210 288 q 119 249 157 288 q 81 154 81 210 q 118 63 81 100 q 210 25 156 25 m 828 25 q 920 63 882 25 q 958 154 958 100 q 920 249 958 210 q 828 288 882 288 l 694 288 l 694 154 q 733 63 694 101 q 828 25 772 25 z "}}}
